STARTFONT 2.1
FONT -FreeType-Consolas-Medium-R-Normal--13-100-96-96-P-60-ISO10646-1
SIZE 10 96 96
FONTBOUNDINGBOX 13 17 -4 -4
STARTPROPERTIES 19
FOUNDRY "FreeType"
FAMILY_NAME "Consolas"
WEIGHT_NAME "Medium"
SLANT "R"
SETWIDTH_NAME "Normal"
ADD_STYLE_NAME ""
PIXEL_SIZE 13
POINT_SIZE 100
RESOLUTION_X 96
RESOLUTION_Y 96
SPACING "P"
AVERAGE_WIDTH 60
CHARSET_REGISTRY "ISO10646"
CHARSET_ENCODING "1"
FONT_ASCENT 9
FONT_DESCENT 3
COPYRIGHT " 2008 Microsoft Corporation. All Rights Reserved."
_OTF_FONTFILE "font.ttf"
_OTF_PSNAME "Consolas"
ENDPROPERTIES
CHARS 2215
STARTCHAR 0000
ENCODING 0
SWIDTH 525 0
DWIDTH 7 0
BBX 0 0 0 0
BITMAP
ENDCHAR
STARTCHAR 000D
ENCODING 13
SWIDTH 0 0
DWIDTH 0 0
BBX 0 0 0 0
BITMAP
ENDCHAR
STARTCHAR 0020
ENCODING 32
SWIDTH 525 0
DWIDTH 7 0
BBX 0 0 0 0
BITMAP
ENDCHAR
STARTCHAR 0021
ENCODING 33
SWIDTH 525 0
DWIDTH 7 0
BBX 1 9 3 0
BITMAP
80
80
80
80
80
80
80
80
80
ENDCHAR
STARTCHAR 0022
ENCODING 34
SWIDTH 525 0
DWIDTH 7 0
BBX 4 3 2 6
BITMAP
B0
B0
A0
ENDCHAR
STARTCHAR 0023
ENCODING 35
SWIDTH 525 0
DWIDTH 7 0
BBX 7 9 0 0
BITMAP
24
24
24
7E
28
28
FE
28
48
ENDCHAR
STARTCHAR 0024
ENCODING 36
SWIDTH 525 0
DWIDTH 7 0
BBX 6 12 1 -2
BITMAP
10
10
F8
A0
A0
70
38
2C
28
F0
40
40
ENDCHAR
STARTCHAR 0025
ENCODING 37
SWIDTH 525 0
DWIDTH 7 0
BBX 7 9 0 0
BITMAP
62
94
98
68
10
2C
2A
4A
CE
ENDCHAR
STARTCHAR 0026
ENCODING 38
SWIDTH 525 0
DWIDTH 7 0
BBX 7 9 0 0
BITMAP
38
48
48
78
70
5E
CC
C4
7E
ENDCHAR
STARTCHAR 0027
ENCODING 39
SWIDTH 525 0
DWIDTH 7 0
BBX 1 3 3 6
BITMAP
80
80
80
ENDCHAR
STARTCHAR 0028
ENCODING 40
SWIDTH 525 0
DWIDTH 7 0
BBX 3 11 2 -2
BITMAP
20
40
40
80
80
80
80
80
40
40
20
ENDCHAR
STARTCHAR 0029
ENCODING 41
SWIDTH 525 0
DWIDTH 7 0
BBX 3 13 2 -3
BITMAP
80
80
40
20
20
20
20
20
20
20
40
C0
80
ENDCHAR
STARTCHAR 002A
ENCODING 42
SWIDTH 525 0
DWIDTH 7 0
BBX 5 5 1 4
BITMAP
20
E8
30
F8
20
ENDCHAR
STARTCHAR 002B
ENCODING 43
SWIDTH 525 0
DWIDTH 7 0
BBX 6 7 1 0
BITMAP
20
20
20
FC
20
20
20
ENDCHAR
STARTCHAR 002C
ENCODING 44
SWIDTH 525 0
DWIDTH 7 0
BBX 3 4 2 -2
BITMAP
40
60
40
C0
ENDCHAR
STARTCHAR 002D
ENCODING 45
SWIDTH 525 0
DWIDTH 7 0
BBX 4 1 2 3
BITMAP
F0
ENDCHAR
STARTCHAR 002E
ENCODING 46
SWIDTH 525 0
DWIDTH 7 0
BBX 2 2 3 0
BITMAP
C0
C0
ENDCHAR
STARTCHAR 002F
ENCODING 47
SWIDTH 525 0
DWIDTH 7 0
BBX 5 10 1 -1
BITMAP
08
08
10
10
20
20
40
40
40
80
ENDCHAR
STARTCHAR 0030
ENCODING 48
SWIDTH 525 0
DWIDTH 7 0
BBX 6 9 1 0
BITMAP
30
D8
88
9C
B4
C4
8C
88
70
ENDCHAR
STARTCHAR 0031
ENCODING 49
SWIDTH 525 0
DWIDTH 7 0
BBX 5 9 1 0
BITMAP
30
70
B0
30
30
30
30
30
F8
ENDCHAR
STARTCHAR 0032
ENCODING 50
SWIDTH 525 0
DWIDTH 7 0
BBX 6 9 1 0
BITMAP
20
D8
08
08
18
30
60
C0
FC
ENDCHAR
STARTCHAR 0033
ENCODING 51
SWIDTH 525 0
DWIDTH 7 0
BBX 5 9 1 0
BITMAP
60
98
08
08
70
08
08
08
F0
ENDCHAR
STARTCHAR 0034
ENCODING 52
SWIDTH 525 0
DWIDTH 7 0
BBX 7 9 0 0
BITMAP
0C
1C
1C
2C
4C
4C
FE
0C
0C
ENDCHAR
STARTCHAR 0035
ENCODING 53
SWIDTH 525 0
DWIDTH 7 0
BBX 5 9 1 0
BITMAP
F8
80
80
80
F8
08
08
08
F0
ENDCHAR
STARTCHAR 0036
ENCODING 54
SWIDTH 525 0
DWIDTH 7 0
BBX 6 9 1 0
BITMAP
08
70
C0
80
F8
8C
8C
88
78
ENDCHAR
STARTCHAR 0037
ENCODING 55
SWIDTH 525 0
DWIDTH 7 0
BBX 6 9 1 0
BITMAP
FC
FC
08
18
10
30
20
60
40
ENDCHAR
STARTCHAR 0038
ENCODING 56
SWIDTH 525 0
DWIDTH 7 0
BBX 6 9 1 0
BITMAP
30
C8
88
C8
70
D8
8C
88
F8
ENDCHAR
STARTCHAR 0039
ENCODING 57
SWIDTH 525 0
DWIDTH 7 0
BBX 6 9 1 0
BITMAP
30
D8
88
88
8C
78
08
18
E0
ENDCHAR
STARTCHAR 003A
ENCODING 58
SWIDTH 525 0
DWIDTH 7 0
BBX 2 7 3 0
BITMAP
80
C0
00
00
00
80
C0
ENDCHAR
STARTCHAR 003B
ENCODING 59
SWIDTH 525 0
DWIDTH 7 0
BBX 3 9 2 -2
BITMAP
40
60
00
00
00
60
60
60
C0
ENDCHAR
STARTCHAR 003C
ENCODING 60
SWIDTH 525 0
DWIDTH 7 0
BBX 5 7 1 0
BITMAP
18
30
60
80
60
30
08
ENDCHAR
STARTCHAR 003D
ENCODING 61
SWIDTH 525 0
DWIDTH 7 0
BBX 5 3 1 2
BITMAP
F8
00
F8
ENDCHAR
STARTCHAR 003E
ENCODING 62
SWIDTH 525 0
DWIDTH 7 0
BBX 5 7 1 0
BITMAP
C0
20
10
08
10
60
C0
ENDCHAR
STARTCHAR 003F
ENCODING 63
SWIDTH 525 0
DWIDTH 7 0
BBX 4 9 2 0
BITMAP
E0
30
10
10
60
40
40
40
C0
ENDCHAR
STARTCHAR 0040
ENCODING 64
SWIDTH 525 0
DWIDTH 7 0
BBX 7 12 0 -3
BITMAP
3C
42
42
9E
AA
AA
AA
AA
94
80
44
38
ENDCHAR
STARTCHAR 0041
ENCODING 65
SWIDTH 525 0
DWIDTH 7 0
BBX 7 9 0 0
BITMAP
10
18
28
28
24
44
7C
42
82
ENDCHAR
STARTCHAR 0042
ENCODING 66
SWIDTH 525 0
DWIDTH 7 0
BBX 6 9 1 0
BITMAP
E0
98
88
88
F0
88
8C
88
F0
ENDCHAR
STARTCHAR 0043
ENCODING 67
SWIDTH 525 0
DWIDTH 7 0
BBX 5 9 1 0
BITMAP
38
68
80
80
80
80
80
C0
78
ENDCHAR
STARTCHAR 0044
ENCODING 68
SWIDTH 525 0
DWIDTH 7 0
BBX 6 9 1 0
BITMAP
C0
B8
88
84
84
84
8C
88
F0
ENDCHAR
STARTCHAR 0045
ENCODING 69
SWIDTH 525 0
DWIDTH 7 0
BBX 5 9 1 0
BITMAP
F8
80
80
80
F8
80
80
80
F8
ENDCHAR
STARTCHAR 0046
ENCODING 70
SWIDTH 525 0
DWIDTH 7 0
BBX 5 9 1 0
BITMAP
F8
C0
C0
C0
F8
C0
C0
C0
C0
ENDCHAR
STARTCHAR 0047
ENCODING 71
SWIDTH 525 0
DWIDTH 7 0
BBX 7 9 0 0
BITMAP
1C
36
40
40
CE
C6
46
66
3E
ENDCHAR
STARTCHAR 0048
ENCODING 72
SWIDTH 525 0
DWIDTH 7 0
BBX 6 9 1 0
BITMAP
8C
8C
8C
8C
FC
8C
8C
8C
8C
ENDCHAR
STARTCHAR 0049
ENCODING 73
SWIDTH 525 0
DWIDTH 7 0
BBX 5 9 1 0
BITMAP
F8
20
20
20
20
20
20
20
F8
ENDCHAR
STARTCHAR 004A
ENCODING 74
SWIDTH 525 0
DWIDTH 7 0
BBX 5 9 1 0
BITMAP
F8
F8
08
08
08
08
08
18
F0
ENDCHAR
STARTCHAR 004B
ENCODING 75
SWIDTH 525 0
DWIDTH 7 0
BBX 6 9 1 0
BITMAP
8C
88
90
A0
C0
A0
B0
98
88
ENDCHAR
STARTCHAR 004C
ENCODING 76
SWIDTH 525 0
DWIDTH 7 0
BBX 4 9 2 0
BITMAP
80
80
80
80
80
80
80
80
F0
ENDCHAR
STARTCHAR 004D
ENCODING 77
SWIDTH 525 0
DWIDTH 7 0
BBX 7 9 0 0
BITMAP
46
46
6A
6A
5A
D2
82
82
82
ENDCHAR
STARTCHAR 004E
ENCODING 78
SWIDTH 525 0
DWIDTH 7 0
BBX 6 9 1 0
BITMAP
8C
CC
CC
EC
AC
BC
9C
9C
8C
ENDCHAR
STARTCHAR 004F
ENCODING 79
SWIDTH 525 0
DWIDTH 7 0
BBX 7 9 0 0
BITMAP
18
6C
46
C2
C2
C2
42
44
3C
ENDCHAR
STARTCHAR 0050
ENCODING 80
SWIDTH 525 0
DWIDTH 7 0
BBX 6 9 1 0
BITMAP
C0
B8
8C
8C
88
F0
80
80
80
ENDCHAR
STARTCHAR 0051
ENCODING 81
SWIDTH 525 0
DWIDTH 7 0
BBX 7 11 0 -2
BITMAP
18
6C
46
C2
C2
C2
42
44
38
10
0E
ENDCHAR
STARTCHAR 0052
ENCODING 82
SWIDTH 525 0
DWIDTH 7 0
BBX 6 9 1 0
BITMAP
C0
B8
88
88
F0
90
98
88
8C
ENDCHAR
STARTCHAR 0053
ENCODING 83
SWIDTH 525 0
DWIDTH 7 0
BBX 5 9 1 0
BITMAP
30
C8
80
C0
70
18
08
08
F8
ENDCHAR
STARTCHAR 0054
ENCODING 84
SWIDTH 525 0
DWIDTH 7 0
BBX 6 9 1 0
BITMAP
FC
20
20
20
20
20
20
20
20
ENDCHAR
STARTCHAR 0055
ENCODING 85
SWIDTH 525 0
DWIDTH 7 0
BBX 6 9 1 0
BITMAP
8C
8C
8C
8C
8C
8C
8C
88
78
ENDCHAR
STARTCHAR 0056
ENCODING 86
SWIDTH 525 0
DWIDTH 7 0
BBX 7 9 0 0
BITMAP
82
C2
46
44
64
2C
28
38
18
ENDCHAR
STARTCHAR 0057
ENCODING 87
SWIDTH 525 0
DWIDTH 7 0
BBX 7 9 0 0
BITMAP
82
82
C2
52
52
6A
6A
6E
46
ENDCHAR
STARTCHAR 0058
ENCODING 88
SWIDTH 525 0
DWIDTH 7 0
BBX 7 9 0 0
BITMAP
C2
44
2C
38
10
38
2C
44
C6
ENDCHAR
STARTCHAR 0059
ENCODING 89
SWIDTH 525 0
DWIDTH 7 0
BBX 7 9 0 0
BITMAP
82
46
44
2C
38
18
10
10
10
ENDCHAR
STARTCHAR 005A
ENCODING 90
SWIDTH 525 0
DWIDTH 7 0
BBX 6 9 1 0
BITMAP
FC
F8
18
10
20
60
40
80
FC
ENDCHAR
STARTCHAR 005B
ENCODING 91
SWIDTH 525 0
DWIDTH 7 0
BBX 3 12 2 -3
BITMAP
E0
80
80
80
80
80
80
80
80
80
80
E0
ENDCHAR
STARTCHAR 005C
ENCODING 92
SWIDTH 525 0
DWIDTH 7 0
BBX 5 10 1 -1
BITMAP
80
40
40
20
20
30
10
10
08
08
ENDCHAR
STARTCHAR 005D
ENCODING 93
SWIDTH 525 0
DWIDTH 7 0
BBX 3 12 2 -3
BITMAP
E0
20
20
20
20
20
20
20
20
20
20
E0
ENDCHAR
STARTCHAR 005E
ENCODING 94
SWIDTH 525 0
DWIDTH 7 0
BBX 5 5 1 4
BITMAP
20
30
50
88
88
ENDCHAR
STARTCHAR 005F
ENCODING 95
SWIDTH 525 0
DWIDTH 7 0
BBX 7 1 0 -3
BITMAP
FE
ENDCHAR
STARTCHAR 0060
ENCODING 96
SWIDTH 525 0
DWIDTH 7 0
BBX 2 2 2 7
BITMAP
80
40
ENDCHAR
STARTCHAR 0061
ENCODING 97
SWIDTH 525 0
DWIDTH 7 0
BBX 5 7 1 0
BITMAP
70
88
08
78
88
88
F8
ENDCHAR
STARTCHAR 0062
ENCODING 98
SWIDTH 525 0
DWIDTH 7 0
BBX 6 9 1 0
BITMAP
80
80
B0
C8
8C
8C
8C
88
F0
ENDCHAR
STARTCHAR 0063
ENCODING 99
SWIDTH 525 0
DWIDTH 7 0
BBX 5 7 1 0
BITMAP
38
68
80
80
80
C0
78
ENDCHAR
STARTCHAR 0064
ENCODING 100
SWIDTH 525 0
DWIDTH 7 0
BBX 5 9 1 0
BITMAP
08
08
38
C8
88
88
88
98
F8
ENDCHAR
STARTCHAR 0065
ENCODING 101
SWIDTH 525 0
DWIDTH 7 0
BBX 6 7 1 0
BITMAP
30
C8
88
FC
80
80
78
ENDCHAR
STARTCHAR 0066
ENCODING 102
SWIDTH 525 0
DWIDTH 7 0
BBX 6 9 1 0
BITMAP
3C
20
20
FC
20
20
20
20
20
ENDCHAR
STARTCHAR 0067
ENCODING 103
SWIDTH 525 0
DWIDTH 7 0
BBX 6 10 1 -3
BITMAP
3C
D8
88
88
F0
80
F8
84
8C
70
ENDCHAR
STARTCHAR 0068
ENCODING 104
SWIDTH 525 0
DWIDTH 7 0
BBX 5 9 1 0
BITMAP
80
80
B0
C8
88
88
88
88
88
ENDCHAR
STARTCHAR 0069
ENCODING 105
SWIDTH 525 0
DWIDTH 7 0
BBX 5 9 1 0
BITMAP
30
20
E0
20
20
20
20
20
F8
ENDCHAR
STARTCHAR 006A
ENCODING 106
SWIDTH 525 0
DWIDTH 7 0
BBX 5 12 1 -3
BITMAP
18
00
F0
10
10
10
10
10
10
10
10
E0
ENDCHAR
STARTCHAR 006B
ENCODING 107
SWIDTH 525 0
DWIDTH 7 0
BBX 6 9 1 0
BITMAP
80
80
8C
98
B0
E0
B0
98
88
ENDCHAR
STARTCHAR 006C
ENCODING 108
SWIDTH 525 0
DWIDTH 7 0
BBX 5 9 1 0
BITMAP
E0
20
20
20
20
20
20
20
F8
ENDCHAR
STARTCHAR 006D
ENCODING 109
SWIDTH 525 0
DWIDTH 7 0
BBX 6 7 1 0
BITMAP
68
B4
A4
A4
A4
A4
A4
ENDCHAR
STARTCHAR 006E
ENCODING 110
SWIDTH 525 0
DWIDTH 7 0
BBX 5 7 1 0
BITMAP
B0
C8
88
88
88
88
88
ENDCHAR
STARTCHAR 006F
ENCODING 111
SWIDTH 525 0
DWIDTH 7 0
BBX 6 7 1 0
BITMAP
30
C8
8C
84
84
88
78
ENDCHAR
STARTCHAR 0070
ENCODING 112
SWIDTH 525 0
DWIDTH 7 0
BBX 6 10 1 -3
BITMAP
B0
C8
8C
8C
8C
88
F0
80
80
80
ENDCHAR
STARTCHAR 0071
ENCODING 113
SWIDTH 525 0
DWIDTH 7 0
BBX 5 10 1 -3
BITMAP
30
C8
88
88
88
98
F8
08
08
08
ENDCHAR
STARTCHAR 0072
ENCODING 114
SWIDTH 525 0
DWIDTH 7 0
BBX 6 7 1 0
BITMAP
98
A8
C4
80
80
80
80
ENDCHAR
STARTCHAR 0073
ENCODING 115
SWIDTH 525 0
DWIDTH 7 0
BBX 5 7 1 0
BITMAP
38
C0
C0
70
18
08
F8
ENDCHAR
STARTCHAR 0074
ENCODING 116
SWIDTH 525 0
DWIDTH 7 0
BBX 6 8 0 1
BITMAP
20
FC
20
20
20
20
30
1C
ENDCHAR
STARTCHAR 0075
ENCODING 117
SWIDTH 525 0
DWIDTH 7 0
BBX 5 7 1 0
BITMAP
88
88
88
88
88
88
78
ENDCHAR
STARTCHAR 0076
ENCODING 118
SWIDTH 525 0
DWIDTH 7 0
BBX 7 7 0 0
BITMAP
C2
44
44
2C
28
38
10
ENDCHAR
STARTCHAR 0077
ENCODING 119
SWIDTH 525 0
DWIDTH 7 0
BBX 7 7 0 0
BITMAP
82
82
52
5A
6A
6C
64
ENDCHAR
STARTCHAR 0078
ENCODING 120
SWIDTH 525 0
DWIDTH 7 0
BBX 6 7 1 0
BITMAP
8C
C8
50
30
70
58
8C
ENDCHAR
STARTCHAR 0079
ENCODING 121
SWIDTH 525 0
DWIDTH 7 0
BBX 7 10 0 -3
BITMAP
C2
44
44
24
28
38
18
10
20
C0
ENDCHAR
STARTCHAR 007A
ENCODING 122
SWIDTH 525 0
DWIDTH 7 0
BBX 5 7 1 0
BITMAP
F8
08
10
20
60
40
F8
ENDCHAR
STARTCHAR 007B
ENCODING 123
SWIDTH 525 0
DWIDTH 7 0
BBX 5 12 1 -3
BITMAP
30
20
20
20
20
C0
20
20
20
20
20
18
ENDCHAR
STARTCHAR 007C
ENCODING 124
SWIDTH 525 0
DWIDTH 7 0
BBX 1 14 3 -3
BITMAP
80
80
80
80
80
80
80
80
80
80
80
80
80
80
ENDCHAR
STARTCHAR 007D
ENCODING 125
SWIDTH 525 0
DWIDTH 7 0
BBX 5 12 1 -3
BITMAP
60
20
20
20
10
18
20
20
20
20
20
C0
ENDCHAR
STARTCHAR 007E
ENCODING 126
SWIDTH 525 0
DWIDTH 7 0
BBX 6 3 1 2
BITMAP
C4
B4
18
ENDCHAR
STARTCHAR 00A0
ENCODING 160
SWIDTH 525 0
DWIDTH 7 0
BBX 0 0 0 0
BITMAP
ENDCHAR
STARTCHAR 00A1
ENCODING 161
SWIDTH 525 0
DWIDTH 7 0
BBX 1 10 3 -3
BITMAP
80
80
00
80
80
80
80
80
80
80
ENDCHAR
STARTCHAR 00A2
ENCODING 162
SWIDTH 525 0
DWIDTH 7 0
BBX 5 12 1 -2
BITMAP
10
10
30
58
90
90
A0
E0
78
20
20
20
ENDCHAR
STARTCHAR 00A3
ENCODING 163
SWIDTH 525 0
DWIDTH 7 0
BBX 5 9 1 0
BITMAP
30
68
40
40
F8
40
40
40
F8
ENDCHAR
STARTCHAR 00A4
ENCODING 164
SWIDTH 525 0
DWIDTH 7 0
BBX 6 8 1 0
BITMAP
8C
F8
C8
88
88
78
88
80
ENDCHAR
STARTCHAR 00A5
ENCODING 165
SWIDTH 525 0
DWIDTH 7 0
BBX 7 9 0 0
BITMAP
C2
44
24
28
18
7C
10
7C
10
ENDCHAR
STARTCHAR 00A6
ENCODING 166
SWIDTH 525 0
DWIDTH 7 0
BBX 1 14 3 -3
BITMAP
80
80
80
80
80
80
00
00
80
80
80
80
80
80
ENDCHAR
STARTCHAR 00A7
ENCODING 167
SWIDTH 525 0
DWIDTH 7 0
BBX 5 11 1 -2
BITMAP
78
40
40
F0
88
C8
68
10
08
90
60
ENDCHAR
STARTCHAR 00A8
ENCODING 168
SWIDTH 525 0
DWIDTH 7 0
BBX 4 1 2 7
BITMAP
B0
ENDCHAR
STARTCHAR 00A9
ENCODING 169
SWIDTH 525 0
DWIDTH 7 0
BBX 7 9 0 0
BITMAP
18
64
42
BA
A2
A2
9A
46
3C
ENDCHAR
STARTCHAR 00AA
ENCODING 170
SWIDTH 525 0
DWIDTH 7 0
BBX 5 7 1 2
BITMAP
20
50
70
50
60
00
F8
ENDCHAR
STARTCHAR 00AB
ENCODING 171
SWIDTH 525 0
DWIDTH 7 0
BBX 5 5 1 1
BITMAP
48
50
90
58
48
ENDCHAR
STARTCHAR 00AC
ENCODING 172
SWIDTH 525 0
DWIDTH 7 0
BBX 5 3 1 1
BITMAP
F8
08
08
ENDCHAR
STARTCHAR 00AD
ENCODING 173
SWIDTH 525 0
DWIDTH 7 0
BBX 4 1 2 3
BITMAP
F0
ENDCHAR
STARTCHAR 00AE
ENCODING 174
SWIDTH 525 0
DWIDTH 7 0
BBX 6 6 1 3
BITMAP
78
B8
B4
D4
88
70
ENDCHAR
STARTCHAR 00AF
ENCODING 175
SWIDTH 525 0
DWIDTH 7 0
BBX 3 1 2 7
BITMAP
E0
ENDCHAR
STARTCHAR 00B0
ENCODING 176
SWIDTH 525 0
DWIDTH 7 0
BBX 5 4 1 5
BITMAP
78
88
C8
70
ENDCHAR
STARTCHAR 00B1
ENCODING 177
SWIDTH 525 0
DWIDTH 7 0
BBX 6 8 1 0
BITMAP
20
20
20
FC
20
20
00
F8
ENDCHAR
STARTCHAR 00B2
ENCODING 178
SWIDTH 525 0
DWIDTH 7 0
BBX 4 5 2 4
BITMAP
E0
20
60
C0
F0
ENDCHAR
STARTCHAR 00B3
ENCODING 179
SWIDTH 525 0
DWIDTH 7 0
BBX 4 5 2 4
BITMAP
E0
20
60
30
E0
ENDCHAR
STARTCHAR 00B4
ENCODING 180
SWIDTH 525 0
DWIDTH 7 0
BBX 3 2 3 7
BITMAP
60
80
ENDCHAR
STARTCHAR 00B5
ENCODING 181
SWIDTH 525 0
DWIDTH 7 0
BBX 6 10 1 -3
BITMAP
88
88
88
88
88
88
FC
80
80
80
ENDCHAR
STARTCHAR 00B6
ENCODING 182
SWIDTH 525 0
DWIDTH 7 0
BBX 5 10 1 -2
BITMAP
78
E8
E8
E8
68
08
08
08
08
58
ENDCHAR
STARTCHAR 00B7
ENCODING 183
SWIDTH 525 0
DWIDTH 7 0
BBX 2 2 3 3
BITMAP
80
C0
ENDCHAR
STARTCHAR 00B8
ENCODING 184
SWIDTH 525 0
DWIDTH 7 0
BBX 1 2 3 -2
BITMAP
80
80
ENDCHAR
STARTCHAR 00B9
ENCODING 185
SWIDTH 525 0
DWIDTH 7 0
BBX 4 5 2 4
BITMAP
C0
40
40
40
F0
ENDCHAR
STARTCHAR 00BA
ENCODING 186
SWIDTH 525 0
DWIDTH 7 0
BBX 5 7 1 2
BITMAP
20
58
C8
48
70
00
F8
ENDCHAR
STARTCHAR 00BB
ENCODING 187
SWIDTH 525 0
DWIDTH 7 0
BBX 5 5 1 1
BITMAP
90
48
28
48
90
ENDCHAR
STARTCHAR 00BC
ENCODING 188
SWIDTH 525 0
DWIDTH 7 0
BBX 7 9 0 0
BITMAP
E2
24
28
28
10
24
2C
5E
C4
ENDCHAR
STARTCHAR 00BD
ENCODING 189
SWIDTH 525 0
DWIDTH 7 0
BBX 7 9 0 0
BITMAP
E2
24
28
28
10
2C
22
44
CE
ENDCHAR
STARTCHAR 00BE
ENCODING 190
SWIDTH 525 0
DWIDTH 7 0
BBX 7 9 0 0
BITMAP
62
44
28
48
10
24
2C
5E
C4
ENDCHAR
STARTCHAR 00BF
ENCODING 191
SWIDTH 525 0
DWIDTH 7 0
BBX 4 10 1 -3
BITMAP
10
30
00
10
10
60
C0
C0
60
10
ENDCHAR
STARTCHAR 00C0
ENCODING 192
SWIDTH 525 0
DWIDTH 7 0
BBX 7 11 0 0
BITMAP
20
10
10
18
28
28
24
44
7C
42
82
ENDCHAR
STARTCHAR 00C1
ENCODING 193
SWIDTH 525 0
DWIDTH 7 0
BBX 7 11 0 0
BITMAP
0C
10
10
18
28
28
24
44
7C
42
82
ENDCHAR
STARTCHAR 00C2
ENCODING 194
SWIDTH 525 0
DWIDTH 7 0
BBX 7 11 0 0
BITMAP
18
2C
10
18
28
28
24
44
7C
42
82
ENDCHAR
STARTCHAR 00C3
ENCODING 195
SWIDTH 525 0
DWIDTH 7 0
BBX 7 11 0 0
BITMAP
34
08
10
18
28
28
24
44
7C
42
82
ENDCHAR
STARTCHAR 00C4
ENCODING 196
SWIDTH 525 0
DWIDTH 7 0
BBX 7 11 0 0
BITMAP
24
20
10
18
28
28
24
44
7C
42
82
ENDCHAR
STARTCHAR 00C5
ENCODING 197
SWIDTH 525 0
DWIDTH 7 0
BBX 7 11 0 0
BITMAP
38
18
10
18
28
28
24
44
7C
42
82
ENDCHAR
STARTCHAR 00C6
ENCODING 198
SWIDTH 525 0
DWIDTH 7 0
BBX 7 9 0 0
BITMAP
1E
18
28
28
2E
48
78
88
8E
ENDCHAR
STARTCHAR 00C7
ENCODING 199
SWIDTH 525 0
DWIDTH 7 0
BBX 5 11 1 -2
BITMAP
38
68
80
80
80
80
80
C0
78
20
20
ENDCHAR
STARTCHAR 00C8
ENCODING 200
SWIDTH 525 0
DWIDTH 7 0
BBX 5 11 1 0
BITMAP
40
20
F8
80
80
80
F8
80
80
80
F8
ENDCHAR
STARTCHAR 00C9
ENCODING 201
SWIDTH 525 0
DWIDTH 7 0
BBX 5 11 1 0
BITMAP
18
20
F8
80
80
80
F8
80
80
80
F8
ENDCHAR
STARTCHAR 00CA
ENCODING 202
SWIDTH 525 0
DWIDTH 7 0
BBX 5 11 1 0
BITMAP
30
58
F8
80
80
80
F8
80
80
80
F8
ENDCHAR
STARTCHAR 00CB
ENCODING 203
SWIDTH 525 0
DWIDTH 7 0
BBX 5 11 1 0
BITMAP
48
40
F8
80
80
80
F8
80
80
80
F8
ENDCHAR
STARTCHAR 00CC
ENCODING 204
SWIDTH 525 0
DWIDTH 7 0
BBX 5 11 1 0
BITMAP
40
20
F8
20
20
20
20
20
20
20
F8
ENDCHAR
STARTCHAR 00CD
ENCODING 205
SWIDTH 525 0
DWIDTH 7 0
BBX 5 11 1 0
BITMAP
18
20
F8
20
20
20
20
20
20
20
F8
ENDCHAR
STARTCHAR 00CE
ENCODING 206
SWIDTH 525 0
DWIDTH 7 0
BBX 5 11 1 0
BITMAP
30
58
F8
20
20
20
20
20
20
20
F8
ENDCHAR
STARTCHAR 00CF
ENCODING 207
SWIDTH 525 0
DWIDTH 7 0
BBX 5 11 1 0
BITMAP
48
40
F8
20
20
20
20
20
20
20
F8
ENDCHAR
STARTCHAR 00D0
ENCODING 208
SWIDTH 525 0
DWIDTH 7 0
BBX 7 9 0 0
BITMAP
60
5C
46
42
F2
42
46
44
78
ENDCHAR
STARTCHAR 00D1
ENCODING 209
SWIDTH 525 0
DWIDTH 7 0
BBX 6 11 1 0
BITMAP
68
10
8C
CC
CC
EC
AC
BC
9C
9C
8C
ENDCHAR
STARTCHAR 00D2
ENCODING 210
SWIDTH 525 0
DWIDTH 7 0
BBX 7 11 0 0
BITMAP
20
10
18
6C
46
C2
C2
C2
42
44
3C
ENDCHAR
STARTCHAR 00D3
ENCODING 211
SWIDTH 525 0
DWIDTH 7 0
BBX 7 11 0 0
BITMAP
0C
10
18
6C
46
C2
C2
C2
42
44
3C
ENDCHAR
STARTCHAR 00D4
ENCODING 212
SWIDTH 525 0
DWIDTH 7 0
BBX 7 11 0 0
BITMAP
18
2C
18
6C
46
C2
C2
C2
42
44
3C
ENDCHAR
STARTCHAR 00D5
ENCODING 213
SWIDTH 525 0
DWIDTH 7 0
BBX 7 11 0 0
BITMAP
34
08
18
6C
46
C2
C2
C2
42
44
3C
ENDCHAR
STARTCHAR 00D6
ENCODING 214
SWIDTH 525 0
DWIDTH 7 0
BBX 7 11 0 0
BITMAP
24
20
18
6C
46
C2
C2
C2
42
44
3C
ENDCHAR
STARTCHAR 00D7
ENCODING 215
SWIDTH 525 0
DWIDTH 7 0
BBX 5 5 1 1
BITMAP
88
50
20
50
88
ENDCHAR
STARTCHAR 00D8
ENCODING 216
SWIDTH 525 0
DWIDTH 7 0
BBX 7 11 0 -1
BITMAP
04
18
6C
4E
CA
D2
D2
52
64
38
20
ENDCHAR
STARTCHAR 00D9
ENCODING 217
SWIDTH 525 0
DWIDTH 7 0
BBX 6 11 1 0
BITMAP
40
20
8C
8C
8C
8C
8C
8C
8C
88
78
ENDCHAR
STARTCHAR 00DA
ENCODING 218
SWIDTH 525 0
DWIDTH 7 0
BBX 6 11 1 0
BITMAP
18
20
8C
8C
8C
8C
8C
8C
8C
88
78
ENDCHAR
STARTCHAR 00DB
ENCODING 219
SWIDTH 525 0
DWIDTH 7 0
BBX 6 11 1 0
BITMAP
30
58
8C
8C
8C
8C
8C
8C
8C
88
78
ENDCHAR
STARTCHAR 00DC
ENCODING 220
SWIDTH 525 0
DWIDTH 7 0
BBX 6 11 1 0
BITMAP
48
40
8C
8C
8C
8C
8C
8C
8C
88
78
ENDCHAR
STARTCHAR 00DD
ENCODING 221
SWIDTH 525 0
DWIDTH 7 0
BBX 7 11 0 0
BITMAP
0C
10
82
46
44
2C
38
18
10
10
10
ENDCHAR
STARTCHAR 00DE
ENCODING 222
SWIDTH 525 0
DWIDTH 7 0
BBX 6 9 1 0
BITMAP
80
80
F8
88
8C
88
F8
80
80
ENDCHAR
STARTCHAR 00DF
ENCODING 223
SWIDTH 525 0
DWIDTH 7 0
BBX 6 9 1 0
BITMAP
78
88
98
B0
A0
98
8C
8C
B8
ENDCHAR
STARTCHAR 00E0
ENCODING 224
SWIDTH 525 0
DWIDTH 7 0
BBX 5 9 1 0
BITMAP
40
20
70
88
08
78
88
88
F8
ENDCHAR
STARTCHAR 00E1
ENCODING 225
SWIDTH 525 0
DWIDTH 7 0
BBX 5 9 1 0
BITMAP
18
20
70
88
08
78
88
88
F8
ENDCHAR
STARTCHAR 00E2
ENCODING 226
SWIDTH 525 0
DWIDTH 7 0
BBX 5 9 1 0
BITMAP
70
00
70
88
08
78
88
88
F8
ENDCHAR
STARTCHAR 00E3
ENCODING 227
SWIDTH 525 0
DWIDTH 7 0
BBX 5 9 1 0
BITMAP
F8
00
70
88
08
78
88
88
F8
ENDCHAR
STARTCHAR 00E4
ENCODING 228
SWIDTH 525 0
DWIDTH 7 0
BBX 5 9 1 0
BITMAP
58
00
70
88
08
78
88
88
F8
ENDCHAR
STARTCHAR 00E5
ENCODING 229
SWIDTH 525 0
DWIDTH 7 0
BBX 5 10 1 0
BITMAP
30
50
30
70
88
08
78
88
88
F8
ENDCHAR
STARTCHAR 00E6
ENCODING 230
SWIDTH 525 0
DWIDTH 7 0
BBX 7 7 0 0
BITMAP
6C
1A
12
7E
90
90
6E
ENDCHAR
STARTCHAR 00E7
ENCODING 231
SWIDTH 525 0
DWIDTH 7 0
BBX 5 9 1 -2
BITMAP
38
68
80
80
80
C0
78
20
20
ENDCHAR
STARTCHAR 00E8
ENCODING 232
SWIDTH 525 0
DWIDTH 7 0
BBX 6 9 1 0
BITMAP
40
20
30
C8
88
FC
80
80
78
ENDCHAR
STARTCHAR 00E9
ENCODING 233
SWIDTH 525 0
DWIDTH 7 0
BBX 6 9 1 0
BITMAP
18
20
30
C8
88
FC
80
80
78
ENDCHAR
STARTCHAR 00EA
ENCODING 234
SWIDTH 525 0
DWIDTH 7 0
BBX 6 9 1 0
BITMAP
70
00
30
C8
88
FC
80
80
78
ENDCHAR
STARTCHAR 00EB
ENCODING 235
SWIDTH 525 0
DWIDTH 7 0
BBX 6 9 1 0
BITMAP
58
00
30
C8
88
FC
80
80
78
ENDCHAR
STARTCHAR 00EC
ENCODING 236
SWIDTH 525 0
DWIDTH 7 0
BBX 5 9 1 0
BITMAP
40
20
E0
20
20
20
20
20
F8
ENDCHAR
STARTCHAR 00ED
ENCODING 237
SWIDTH 525 0
DWIDTH 7 0
BBX 5 9 1 0
BITMAP
18
20
E0
20
20
20
20
20
F8
ENDCHAR
STARTCHAR 00EE
ENCODING 238
SWIDTH 525 0
DWIDTH 7 0
BBX 5 9 1 0
BITMAP
70
00
E0
20
20
20
20
20
F8
ENDCHAR
STARTCHAR 00EF
ENCODING 239
SWIDTH 525 0
DWIDTH 7 0
BBX 5 9 1 0
BITMAP
58
00
E0
20
20
20
20
20
F8
ENDCHAR
STARTCHAR 00F0
ENCODING 240
SWIDTH 525 0
DWIDTH 7 0
BBX 6 9 1 0
BITMAP
38
70
30
C8
88
8C
88
88
70
ENDCHAR
STARTCHAR 00F1
ENCODING 241
SWIDTH 525 0
DWIDTH 7 0
BBX 5 9 1 0
BITMAP
F8
00
B0
C8
88
88
88
88
88
ENDCHAR
STARTCHAR 00F2
ENCODING 242
SWIDTH 525 0
DWIDTH 7 0
BBX 6 9 1 0
BITMAP
40
20
30
C8
8C
84
84
88
78
ENDCHAR
STARTCHAR 00F3
ENCODING 243
SWIDTH 525 0
DWIDTH 7 0
BBX 6 9 1 0
BITMAP
18
20
30
C8
8C
84
84
88
78
ENDCHAR
STARTCHAR 00F4
ENCODING 244
SWIDTH 525 0
DWIDTH 7 0
BBX 6 9 1 0
BITMAP
70
00
30
C8
8C
84
84
88
78
ENDCHAR
STARTCHAR 00F5
ENCODING 245
SWIDTH 525 0
DWIDTH 7 0
BBX 6 9 1 0
BITMAP
F8
00
30
C8
8C
84
84
88
78
ENDCHAR
STARTCHAR 00F6
ENCODING 246
SWIDTH 525 0
DWIDTH 7 0
BBX 6 9 1 0
BITMAP
58
00
30
C8
8C
84
84
88
78
ENDCHAR
STARTCHAR 00F7
ENCODING 247
SWIDTH 525 0
DWIDTH 7 0
BBX 6 7 1 0
BITMAP
20
20
00
FC
00
20
20
ENDCHAR
STARTCHAR 00F8
ENCODING 248
SWIDTH 525 0
DWIDTH 7 0
BBX 6 9 1 -1
BITMAP
08
30
D8
9C
A4
A4
A8
78
40
ENDCHAR
STARTCHAR 00F9
ENCODING 249
SWIDTH 525 0
DWIDTH 7 0
BBX 5 9 1 0
BITMAP
40
20
88
88
88
88
88
88
78
ENDCHAR
STARTCHAR 00FA
ENCODING 250
SWIDTH 525 0
DWIDTH 7 0
BBX 5 9 1 0
BITMAP
18
20
88
88
88
88
88
88
78
ENDCHAR
STARTCHAR 00FB
ENCODING 251
SWIDTH 525 0
DWIDTH 7 0
BBX 5 9 1 0
BITMAP
70
00
88
88
88
88
88
88
78
ENDCHAR
STARTCHAR 00FC
ENCODING 252
SWIDTH 525 0
DWIDTH 7 0
BBX 5 9 1 0
BITMAP
58
00
88
88
88
88
88
88
78
ENDCHAR
STARTCHAR 00FD
ENCODING 253
SWIDTH 525 0
DWIDTH 7 0
BBX 7 12 0 -3
BITMAP
0C
10
C2
44
44
24
28
38
18
10
20
C0
ENDCHAR
STARTCHAR 00FE
ENCODING 254
SWIDTH 525 0
DWIDTH 7 0
BBX 6 12 1 -3
BITMAP
80
80
B0
C8
8C
8C
8C
88
F0
80
80
80
ENDCHAR
STARTCHAR 00FF
ENCODING 255
SWIDTH 525 0
DWIDTH 7 0
BBX 7 12 0 -3
BITMAP
2C
00
C2
44
44
24
28
38
18
10
20
C0
ENDCHAR
STARTCHAR 0100
ENCODING 256
SWIDTH 525 0
DWIDTH 7 0
BBX 7 11 0 0
BITMAP
3C
00
10
18
28
28
24
44
7C
42
82
ENDCHAR
STARTCHAR 0101
ENCODING 257
SWIDTH 525 0
DWIDTH 7 0
BBX 5 9 1 0
BITMAP
70
00
70
88
08
78
88
88
F8
ENDCHAR
STARTCHAR 0102
ENCODING 258
SWIDTH 525 0
DWIDTH 7 0
BBX 7 11 0 0
BITMAP
28
18
10
18
28
28
24
44
7C
42
82
ENDCHAR
STARTCHAR 0103
ENCODING 259
SWIDTH 525 0
DWIDTH 7 0
BBX 5 9 1 0
BITMAP
50
20
70
88
08
78
88
88
F8
ENDCHAR
STARTCHAR 0104
ENCODING 260
SWIDTH 525 0
DWIDTH 7 0
BBX 7 12 0 -3
BITMAP
10
18
28
28
24
44
7C
42
82
02
04
02
ENDCHAR
STARTCHAR 0105
ENCODING 261
SWIDTH 525 0
DWIDTH 7 0
BBX 5 9 1 -3
BITMAP
70
88
08
78
88
88
F8
08
18
ENDCHAR
STARTCHAR 0106
ENCODING 262
SWIDTH 525 0
DWIDTH 7 0
BBX 5 11 1 0
BITMAP
18
30
38
68
80
80
80
80
80
C0
78
ENDCHAR
STARTCHAR 0107
ENCODING 263
SWIDTH 525 0
DWIDTH 7 0
BBX 5 9 1 0
BITMAP
18
00
38
68
80
80
80
C0
78
ENDCHAR
STARTCHAR 0108
ENCODING 264
SWIDTH 525 0
DWIDTH 7 0
BBX 5 11 1 0
BITMAP
30
48
38
68
80
80
80
80
80
C0
78
ENDCHAR
STARTCHAR 0109
ENCODING 265
SWIDTH 525 0
DWIDTH 7 0
BBX 5 9 1 0
BITMAP
30
40
38
68
80
80
80
C0
78
ENDCHAR
STARTCHAR 010A
ENCODING 266
SWIDTH 525 0
DWIDTH 7 0
BBX 5 11 1 0
BITMAP
30
30
38
68
80
80
80
80
80
C0
78
ENDCHAR
STARTCHAR 010B
ENCODING 267
SWIDTH 525 0
DWIDTH 7 0
BBX 5 9 1 0
BITMAP
30
00
38
68
80
80
80
C0
78
ENDCHAR
STARTCHAR 010C
ENCODING 268
SWIDTH 525 0
DWIDTH 7 0
BBX 5 11 1 0
BITMAP
68
30
38
68
80
80
80
80
80
C0
78
ENDCHAR
STARTCHAR 010D
ENCODING 269
SWIDTH 525 0
DWIDTH 7 0
BBX 5 9 1 0
BITMAP
38
00
38
68
80
80
80
C0
78
ENDCHAR
STARTCHAR 010E
ENCODING 270
SWIDTH 525 0
DWIDTH 7 0
BBX 6 11 1 0
BITMAP
50
20
C0
B8
88
84
84
84
8C
88
F0
ENDCHAR
STARTCHAR 010F
ENCODING 271
SWIDTH 525 0
DWIDTH 7 0
BBX 8 10 0 0
BITMAP
01
05
04
1C
64
44
C4
C4
4C
74
ENDCHAR
STARTCHAR 0110
ENCODING 272
SWIDTH 525 0
DWIDTH 7 0
BBX 7 9 0 0
BITMAP
60
5C
46
42
F2
42
46
44
78
ENDCHAR
STARTCHAR 0111
ENCODING 273
SWIDTH 525 0
DWIDTH 7 0
BBX 6 9 1 0
BITMAP
08
3C
38
C8
88
88
88
98
E8
ENDCHAR
STARTCHAR 0112
ENCODING 274
SWIDTH 525 0
DWIDTH 7 0
BBX 5 11 1 0
BITMAP
78
00
F8
80
80
80
F8
80
80
80
F8
ENDCHAR
STARTCHAR 0113
ENCODING 275
SWIDTH 525 0
DWIDTH 7 0
BBX 6 9 1 0
BITMAP
70
00
30
C8
88
FC
80
80
78
ENDCHAR
STARTCHAR 0114
ENCODING 276
SWIDTH 525 0
DWIDTH 7 0
BBX 5 11 1 0
BITMAP
50
30
F8
80
80
80
F8
80
80
80
F8
ENDCHAR
STARTCHAR 0115
ENCODING 277
SWIDTH 525 0
DWIDTH 7 0
BBX 6 9 1 0
BITMAP
50
20
30
C8
88
FC
80
80
78
ENDCHAR
STARTCHAR 0116
ENCODING 278
SWIDTH 525 0
DWIDTH 7 0
BBX 5 11 1 0
BITMAP
20
20
F8
80
80
80
F8
80
80
80
F8
ENDCHAR
STARTCHAR 0117
ENCODING 279
SWIDTH 525 0
DWIDTH 7 0
BBX 6 9 1 0
BITMAP
30
00
30
C8
88
FC
80
80
78
ENDCHAR
STARTCHAR 0118
ENCODING 280
SWIDTH 525 0
DWIDTH 7 0
BBX 5 12 1 -3
BITMAP
F8
80
80
80
F8
80
80
80
F8
08
10
08
ENDCHAR
STARTCHAR 0119
ENCODING 281
SWIDTH 525 0
DWIDTH 7 0
BBX 6 9 1 -3
BITMAP
30
C8
88
FC
80
80
78
10
10
ENDCHAR
STARTCHAR 011A
ENCODING 282
SWIDTH 525 0
DWIDTH 7 0
BBX 5 11 1 0
BITMAP
50
20
F8
80
80
80
F8
80
80
80
F8
ENDCHAR
STARTCHAR 011B
ENCODING 283
SWIDTH 525 0
DWIDTH 7 0
BBX 6 9 1 0
BITMAP
70
00
30
C8
88
FC
80
80
78
ENDCHAR
STARTCHAR 011C
ENCODING 284
SWIDTH 525 0
DWIDTH 7 0
BBX 7 11 0 0
BITMAP
18
24
1C
36
40
40
CE
C6
46
66
3E
ENDCHAR
STARTCHAR 011D
ENCODING 285
SWIDTH 525 0
DWIDTH 7 0
BBX 6 12 1 -3
BITMAP
70
00
3C
D8
88
88
F0
80
F8
84
8C
70
ENDCHAR
STARTCHAR 011E
ENCODING 286
SWIDTH 525 0
DWIDTH 7 0
BBX 7 11 0 0
BITMAP
24
18
1C
36
40
40
CE
C6
46
66
3E
ENDCHAR
STARTCHAR 011F
ENCODING 287
SWIDTH 525 0
DWIDTH 7 0
BBX 6 12 1 -3
BITMAP
50
20
3C
D8
88
88
F0
80
F8
84
8C
70
ENDCHAR
STARTCHAR 0120
ENCODING 288
SWIDTH 525 0
DWIDTH 7 0
BBX 7 11 0 0
BITMAP
18
18
1C
36
40
40
CE
C6
46
66
3E
ENDCHAR
STARTCHAR 0121
ENCODING 289
SWIDTH 525 0
DWIDTH 7 0
BBX 6 12 1 -3
BITMAP
30
00
3C
D8
88
88
F0
80
F8
84
8C
70
ENDCHAR
STARTCHAR 0122
ENCODING 290
SWIDTH 525 0
DWIDTH 7 0
BBX 7 12 0 -3
BITMAP
1C
36
40
40
CE
C6
46
66
3E
00
10
10
ENDCHAR
STARTCHAR 0123
ENCODING 291
SWIDTH 525 0
DWIDTH 7 0
BBX 6 13 1 -3
BITMAP
10
20
00
3C
D8
88
88
F0
80
F8
84
8C
70
ENDCHAR
STARTCHAR 0124
ENCODING 292
SWIDTH 525 0
DWIDTH 7 0
BBX 6 11 1 0
BITMAP
30
58
8C
8C
8C
8C
FC
8C
8C
8C
8C
ENDCHAR
STARTCHAR 0125
ENCODING 293
SWIDTH 525 0
DWIDTH 7 0
BBX 5 11 1 0
BITMAP
70
00
80
80
B0
C8
88
88
88
88
88
ENDCHAR
STARTCHAR 0126
ENCODING 294
SWIDTH 525 0
DWIDTH 7 0
BBX 7 9 0 0
BITMAP
44
44
FE
44
7C
44
44
44
44
ENDCHAR
STARTCHAR 0127
ENCODING 295
SWIDTH 525 0
DWIDTH 7 0
BBX 6 9 0 0
BITMAP
40
F0
40
7C
64
44
44
44
44
ENDCHAR
STARTCHAR 0128
ENCODING 296
SWIDTH 525 0
DWIDTH 7 0
BBX 5 11 1 0
BITMAP
68
10
F8
20
20
20
20
20
20
20
F8
ENDCHAR
STARTCHAR 0129
ENCODING 297
SWIDTH 525 0
DWIDTH 7 0
BBX 5 9 1 0
BITMAP
F8
00
E0
20
20
20
20
20
F8
ENDCHAR
STARTCHAR 012A
ENCODING 298
SWIDTH 525 0
DWIDTH 7 0
BBX 5 11 1 0
BITMAP
78
00
F8
20
20
20
20
20
20
20
F8
ENDCHAR
STARTCHAR 012B
ENCODING 299
SWIDTH 525 0
DWIDTH 7 0
BBX 5 9 1 0
BITMAP
70
00
E0
20
20
20
20
20
F8
ENDCHAR
STARTCHAR 012C
ENCODING 300
SWIDTH 525 0
DWIDTH 7 0
BBX 5 11 1 0
BITMAP
50
30
F8
20
20
20
20
20
20
20
F8
ENDCHAR
STARTCHAR 012D
ENCODING 301
SWIDTH 525 0
DWIDTH 7 0
BBX 5 9 1 0
BITMAP
50
20
E0
20
20
20
20
20
F8
ENDCHAR
STARTCHAR 012E
ENCODING 302
SWIDTH 525 0
DWIDTH 7 0
BBX 5 11 1 -3
BITMAP
F8
20
20
20
20
20
20
20
F8
08
18
ENDCHAR
STARTCHAR 012F
ENCODING 303
SWIDTH 525 0
DWIDTH 7 0
BBX 5 11 1 -3
BITMAP
30
20
E0
20
20
20
20
20
F8
08
08
ENDCHAR
STARTCHAR 0130
ENCODING 304
SWIDTH 525 0
DWIDTH 7 0
BBX 5 11 1 0
BITMAP
20
20
F8
20
20
20
20
20
20
20
F8
ENDCHAR
STARTCHAR 0131
ENCODING 305
SWIDTH 525 0
DWIDTH 7 0
BBX 5 7 1 0
BITMAP
E0
20
20
20
20
20
F8
ENDCHAR
STARTCHAR 0132
ENCODING 306
SWIDTH 525 0
DWIDTH 7 0
BBX 6 9 1 0
BITMAP
8C
8C
8C
8C
8C
8C
8C
8C
B8
ENDCHAR
STARTCHAR 0133
ENCODING 307
SWIDTH 525 0
DWIDTH 7 0
BBX 6 12 1 -3
BITMAP
CC
88
88
88
88
88
88
88
88
08
08
70
ENDCHAR
STARTCHAR 0134
ENCODING 308
SWIDTH 525 0
DWIDTH 7 0
BBX 5 11 1 0
BITMAP
30
58
F8
F8
08
08
08
08
08
18
F0
ENDCHAR
STARTCHAR 0135
ENCODING 309
SWIDTH 525 0
DWIDTH 7 0
BBX 4 12 1 -3
BITMAP
70
00
F0
10
10
10
10
10
10
10
10
E0
ENDCHAR
STARTCHAR 0136
ENCODING 310
SWIDTH 525 0
DWIDTH 7 0
BBX 6 12 1 -3
BITMAP
8C
88
90
A0
C0
A0
B0
98
88
00
20
20
ENDCHAR
STARTCHAR 0137
ENCODING 311
SWIDTH 525 0
DWIDTH 7 0
BBX 6 12 1 -3
BITMAP
80
80
8C
98
B0
E0
B0
98
88
00
20
20
ENDCHAR
STARTCHAR 0138
ENCODING 312
SWIDTH 525 0
DWIDTH 7 0
BBX 6 7 1 0
BITMAP
8C
98
B0
E0
B0
98
88
ENDCHAR
STARTCHAR 0139
ENCODING 313
SWIDTH 525 0
DWIDTH 7 0
BBX 4 11 2 0
BITMAP
30
40
80
80
80
80
80
80
80
80
F0
ENDCHAR
STARTCHAR 013A
ENCODING 314
SWIDTH 525 0
DWIDTH 7 0
BBX 5 11 1 0
BITMAP
18
00
E0
20
20
20
20
20
20
20
F8
ENDCHAR
STARTCHAR 013B
ENCODING 315
SWIDTH 525 0
DWIDTH 7 0
BBX 4 12 2 -3
BITMAP
80
80
80
80
80
80
80
80
F0
00
40
40
ENDCHAR
STARTCHAR 013C
ENCODING 316
SWIDTH 525 0
DWIDTH 7 0
BBX 5 12 1 -3
BITMAP
E0
20
20
20
20
20
20
20
F8
00
20
20
ENDCHAR
STARTCHAR 013D
ENCODING 317
SWIDTH 525 0
DWIDTH 7 0
BBX 4 10 2 0
BITMAP
10
90
80
80
80
80
80
80
80
F0
ENDCHAR
STARTCHAR 013E
ENCODING 318
SWIDTH 525 0
DWIDTH 7 0
BBX 6 10 1 0
BITMAP
04
E4
20
20
20
20
20
20
20
F8
ENDCHAR
STARTCHAR 013F
ENCODING 319
SWIDTH 525 0
DWIDTH 7 0
BBX 6 9 1 0
BITMAP
80
80
80
80
8C
8C
80
80
F8
ENDCHAR
STARTCHAR 0140
ENCODING 320
SWIDTH 525 0
DWIDTH 7 0
BBX 7 9 1 0
BITMAP
E0
20
20
20
26
26
20
20
F8
ENDCHAR
STARTCHAR 0141
ENCODING 321
SWIDTH 525 0
DWIDTH 7 0
BBX 6 9 0 0
BITMAP
20
20
20
38
60
A0
20
20
3C
ENDCHAR
STARTCHAR 0142
ENCODING 322
SWIDTH 525 0
DWIDTH 7 0
BBX 5 9 1 0
BITMAP
E0
20
20
38
60
A0
20
20
F8
ENDCHAR
STARTCHAR 0143
ENCODING 323
SWIDTH 525 0
DWIDTH 7 0
BBX 6 11 1 0
BITMAP
18
20
8C
CC
CC
EC
AC
BC
9C
9C
8C
ENDCHAR
STARTCHAR 0144
ENCODING 324
SWIDTH 525 0
DWIDTH 7 0
BBX 5 9 1 0
BITMAP
18
20
B0
C8
88
88
88
88
88
ENDCHAR
STARTCHAR 0145
ENCODING 325
SWIDTH 525 0
DWIDTH 7 0
BBX 6 12 1 -3
BITMAP
8C
CC
CC
EC
AC
BC
9C
9C
8C
00
20
20
ENDCHAR
STARTCHAR 0146
ENCODING 326
SWIDTH 525 0
DWIDTH 7 0
BBX 5 10 1 -3
BITMAP
B0
C8
88
88
88
88
88
00
20
20
ENDCHAR
STARTCHAR 0147
ENCODING 327
SWIDTH 525 0
DWIDTH 7 0
BBX 6 11 1 0
BITMAP
50
20
8C
CC
CC
EC
AC
BC
9C
9C
8C
ENDCHAR
STARTCHAR 0148
ENCODING 328
SWIDTH 525 0
DWIDTH 7 0
BBX 5 9 1 0
BITMAP
70
00
B0
C8
88
88
88
88
88
ENDCHAR
STARTCHAR 0149
ENCODING 329
SWIDTH 525 0
DWIDTH 7 0
BBX 6 10 0 0
BITMAP
C0
40
80
58
64
44
44
44
44
44
ENDCHAR
STARTCHAR 014A
ENCODING 330
SWIDTH 525 0
DWIDTH 7 0
BBX 6 12 1 -3
BITMAP
8C
CC
CC
AC
AC
9C
9C
8C
8C
0C
08
10
ENDCHAR
STARTCHAR 014B
ENCODING 331
SWIDTH 525 0
DWIDTH 7 0
BBX 5 10 1 -3
BITMAP
B0
C8
88
88
88
88
88
08
08
10
ENDCHAR
STARTCHAR 014C
ENCODING 332
SWIDTH 525 0
DWIDTH 7 0
BBX 7 11 0 0
BITMAP
3C
00
18
6C
46
C2
C2
C2
42
44
3C
ENDCHAR
STARTCHAR 014D
ENCODING 333
SWIDTH 525 0
DWIDTH 7 0
BBX 6 9 1 0
BITMAP
70
00
30
C8
8C
84
84
88
78
ENDCHAR
STARTCHAR 014E
ENCODING 334
SWIDTH 525 0
DWIDTH 7 0
BBX 7 11 0 0
BITMAP
28
18
18
6C
46
C2
C2
C2
42
44
3C
ENDCHAR
STARTCHAR 014F
ENCODING 335
SWIDTH 525 0
DWIDTH 7 0
BBX 6 9 1 0
BITMAP
50
20
30
C8
8C
84
84
88
78
ENDCHAR
STARTCHAR 0150
ENCODING 336
SWIDTH 525 0
DWIDTH 7 0
BBX 7 11 0 0
BITMAP
12
24
18
6C
46
C2
C2
C2
42
44
3C
ENDCHAR
STARTCHAR 0151
ENCODING 337
SWIDTH 525 0
DWIDTH 7 0
BBX 6 9 1 0
BITMAP
6C
00
30
C8
8C
84
84
88
78
ENDCHAR
STARTCHAR 0152
ENCODING 338
SWIDTH 525 0
DWIDTH 7 0
BBX 7 9 0 0
BITMAP
1E
68
48
88
8E
88
C8
48
7E
ENDCHAR
STARTCHAR 0153
ENCODING 339
SWIDTH 525 0
DWIDTH 7 0
BBX 7 7 0 0
BITMAP
24
5A
92
9E
90
D8
6E
ENDCHAR
STARTCHAR 0154
ENCODING 340
SWIDTH 525 0
DWIDTH 7 0
BBX 6 11 1 0
BITMAP
10
20
C0
B8
88
88
F0
90
98
88
8C
ENDCHAR
STARTCHAR 0155
ENCODING 341
SWIDTH 525 0
DWIDTH 7 0
BBX 6 9 1 0
BITMAP
18
20
98
A8
C4
80
80
80
80
ENDCHAR
STARTCHAR 0156
ENCODING 342
SWIDTH 525 0
DWIDTH 7 0
BBX 6 12 1 -3
BITMAP
C0
B8
88
88
F0
90
98
88
8C
00
20
20
ENDCHAR
STARTCHAR 0157
ENCODING 343
SWIDTH 525 0
DWIDTH 7 0
BBX 6 10 1 -3
BITMAP
98
A8
C4
80
80
80
80
00
20
20
ENDCHAR
STARTCHAR 0158
ENCODING 344
SWIDTH 525 0
DWIDTH 7 0
BBX 6 11 1 0
BITMAP
50
20
C0
B8
88
88
F0
90
98
88
8C
ENDCHAR
STARTCHAR 0159
ENCODING 345
SWIDTH 525 0
DWIDTH 7 0
BBX 6 9 1 0
BITMAP
70
00
98
A8
C4
80
80
80
80
ENDCHAR
STARTCHAR 015A
ENCODING 346
SWIDTH 525 0
DWIDTH 7 0
BBX 5 11 1 0
BITMAP
18
20
30
C8
80
C0
70
18
08
08
F8
ENDCHAR
STARTCHAR 015B
ENCODING 347
SWIDTH 525 0
DWIDTH 7 0
BBX 5 9 1 0
BITMAP
18
20
38
C0
C0
70
18
08
F8
ENDCHAR
STARTCHAR 015C
ENCODING 348
SWIDTH 525 0
DWIDTH 7 0
BBX 5 11 1 0
BITMAP
30
58
30
C8
80
C0
70
18
08
08
F8
ENDCHAR
STARTCHAR 015D
ENCODING 349
SWIDTH 525 0
DWIDTH 7 0
BBX 5 9 1 0
BITMAP
70
00
38
C0
C0
70
18
08
F8
ENDCHAR
STARTCHAR 015E
ENCODING 350
SWIDTH 525 0
DWIDTH 7 0
BBX 5 11 1 -2
BITMAP
30
C8
80
C0
70
18
08
08
F8
20
20
ENDCHAR
STARTCHAR 015F
ENCODING 351
SWIDTH 525 0
DWIDTH 7 0
BBX 5 9 1 -2
BITMAP
38
C0
C0
70
18
08
F8
20
20
ENDCHAR
STARTCHAR 0160
ENCODING 352
SWIDTH 525 0
DWIDTH 7 0
BBX 5 11 1 0
BITMAP
50
20
30
C8
80
C0
70
18
08
08
F8
ENDCHAR
STARTCHAR 0161
ENCODING 353
SWIDTH 525 0
DWIDTH 7 0
BBX 5 9 1 0
BITMAP
70
00
38
C0
C0
70
18
08
F8
ENDCHAR
STARTCHAR 0162
ENCODING 354
SWIDTH 525 0
DWIDTH 7 0
BBX 6 11 1 -2
BITMAP
FC
20
20
20
20
20
20
20
20
20
20
ENDCHAR
STARTCHAR 0163
ENCODING 355
SWIDTH 525 0
DWIDTH 7 0
BBX 6 10 0 -1
BITMAP
20
FC
20
20
20
20
30
1C
08
18
ENDCHAR
STARTCHAR 0164
ENCODING 356
SWIDTH 525 0
DWIDTH 7 0
BBX 6 11 1 0
BITMAP
50
20
FC
20
20
20
20
20
20
20
20
ENDCHAR
STARTCHAR 0165
ENCODING 357
SWIDTH 525 0
DWIDTH 7 0
BBX 7 10 0 0
BITMAP
02
04
20
FC
20
20
20
20
30
1C
ENDCHAR
STARTCHAR 0166
ENCODING 358
SWIDTH 525 0
DWIDTH 7 0
BBX 6 9 1 0
BITMAP
FC
20
20
20
F8
20
20
20
20
ENDCHAR
STARTCHAR 0167
ENCODING 359
SWIDTH 525 0
DWIDTH 7 0
BBX 6 8 0 1
BITMAP
20
FC
20
20
7C
20
30
1C
ENDCHAR
STARTCHAR 0168
ENCODING 360
SWIDTH 525 0
DWIDTH 7 0
BBX 6 11 1 0
BITMAP
68
10
8C
8C
8C
8C
8C
8C
8C
88
78
ENDCHAR
STARTCHAR 0169
ENCODING 361
SWIDTH 525 0
DWIDTH 7 0
BBX 5 9 1 0
BITMAP
F8
00
88
88
88
88
88
88
78
ENDCHAR
STARTCHAR 016A
ENCODING 362
SWIDTH 525 0
DWIDTH 7 0
BBX 6 11 1 0
BITMAP
78
00
8C
8C
8C
8C
8C
8C
8C
88
78
ENDCHAR
STARTCHAR 016B
ENCODING 363
SWIDTH 525 0
DWIDTH 7 0
BBX 5 9 1 0
BITMAP
70
00
88
88
88
88
88
88
78
ENDCHAR
STARTCHAR 016C
ENCODING 364
SWIDTH 525 0
DWIDTH 7 0
BBX 6 11 1 0
BITMAP
50
30
8C
8C
8C
8C
8C
8C
8C
88
78
ENDCHAR
STARTCHAR 016D
ENCODING 365
SWIDTH 525 0
DWIDTH 7 0
BBX 5 9 1 0
BITMAP
50
20
88
88
88
88
88
88
78
ENDCHAR
STARTCHAR 016E
ENCODING 366
SWIDTH 525 0
DWIDTH 7 0
BBX 6 11 1 0
BITMAP
70
30
8C
8C
8C
8C
8C
8C
8C
88
78
ENDCHAR
STARTCHAR 016F
ENCODING 367
SWIDTH 525 0
DWIDTH 7 0
BBX 5 10 1 0
BITMAP
30
50
30
88
88
88
88
88
88
78
ENDCHAR
STARTCHAR 0170
ENCODING 368
SWIDTH 525 0
DWIDTH 7 0
BBX 6 11 1 0
BITMAP
24
48
8C
8C
8C
8C
8C
8C
8C
88
78
ENDCHAR
STARTCHAR 0171
ENCODING 369
SWIDTH 525 0
DWIDTH 7 0
BBX 6 9 1 0
BITMAP
6C
00
88
88
88
88
88
88
78
ENDCHAR
STARTCHAR 0172
ENCODING 370
SWIDTH 525 0
DWIDTH 7 0
BBX 6 11 1 -3
BITMAP
8C
8C
8C
8C
8C
8C
8C
88
78
20
20
ENDCHAR
STARTCHAR 0173
ENCODING 371
SWIDTH 525 0
DWIDTH 7 0
BBX 5 9 1 -3
BITMAP
88
88
88
88
88
88
78
08
18
ENDCHAR
STARTCHAR 0174
ENCODING 372
SWIDTH 525 0
DWIDTH 7 0
BBX 7 11 0 0
BITMAP
18
2C
82
82
C2
52
52
6A
6A
6E
46
ENDCHAR
STARTCHAR 0175
ENCODING 373
SWIDTH 525 0
DWIDTH 7 0
BBX 7 9 0 0
BITMAP
38
00
82
82
52
5A
6A
6C
64
ENDCHAR
STARTCHAR 0176
ENCODING 374
SWIDTH 525 0
DWIDTH 7 0
BBX 7 11 0 0
BITMAP
18
2C
82
46
44
2C
38
18
10
10
10
ENDCHAR
STARTCHAR 0177
ENCODING 375
SWIDTH 525 0
DWIDTH 7 0
BBX 7 12 0 -3
BITMAP
38
00
C2
44
44
24
28
38
18
10
20
C0
ENDCHAR
STARTCHAR 0178
ENCODING 376
SWIDTH 525 0
DWIDTH 7 0
BBX 7 11 0 0
BITMAP
24
20
82
46
44
2C
38
18
10
10
10
ENDCHAR
STARTCHAR 0179
ENCODING 377
SWIDTH 525 0
DWIDTH 7 0
BBX 6 11 1 0
BITMAP
18
20
FC
F8
18
10
20
60
40
80
FC
ENDCHAR
STARTCHAR 017A
ENCODING 378
SWIDTH 525 0
DWIDTH 7 0
BBX 5 9 1 0
BITMAP
18
20
F8
08
10
20
60
40
F8
ENDCHAR
STARTCHAR 017B
ENCODING 379
SWIDTH 525 0
DWIDTH 7 0
BBX 6 11 1 0
BITMAP
20
20
FC
F8
18
10
20
60
40
80
FC
ENDCHAR
STARTCHAR 017C
ENCODING 380
SWIDTH 525 0
DWIDTH 7 0
BBX 5 9 1 0
BITMAP
30
00
F8
08
10
20
60
40
F8
ENDCHAR
STARTCHAR 017D
ENCODING 381
SWIDTH 525 0
DWIDTH 7 0
BBX 6 11 1 0
BITMAP
50
20
FC
F8
18
10
20
60
40
80
FC
ENDCHAR
STARTCHAR 017E
ENCODING 382
SWIDTH 525 0
DWIDTH 7 0
BBX 5 9 1 0
BITMAP
70
00
F8
08
10
20
60
40
F8
ENDCHAR
STARTCHAR 017F
ENCODING 383
SWIDTH 525 0
DWIDTH 7 0
BBX 5 9 2 0
BITMAP
78
80
80
80
80
80
80
80
80
ENDCHAR
STARTCHAR 0180
ENCODING 384
SWIDTH 525 0
DWIDTH 7 0
BBX 7 9 0 0
BITMAP
40
F0
58
64
46
46
46
44
78
ENDCHAR
STARTCHAR 0181
ENCODING 385
SWIDTH 525 0
DWIDTH 7 0
BBX 7 9 0 0
BITMAP
30
EC
A4
24
38
24
26
24
38
ENDCHAR
STARTCHAR 0182
ENCODING 386
SWIDTH 525 0
DWIDTH 7 0
BBX 6 9 1 0
BITMAP
F8
80
80
80
F8
8C
84
88
F8
ENDCHAR
STARTCHAR 0183
ENCODING 387
SWIDTH 525 0
DWIDTH 7 0
BBX 6 9 1 0
BITMAP
F8
80
B0
C8
8C
8C
8C
88
F0
ENDCHAR
STARTCHAR 0184
ENCODING 388
SWIDTH 525 0
DWIDTH 7 0
BBX 7 8 0 1
BITMAP
C0
40
40
7C
46
42
44
7C
ENDCHAR
STARTCHAR 0185
ENCODING 389
SWIDTH 525 0
DWIDTH 7 0
BBX 7 8 0 1
BITMAP
C0
58
64
46
46
46
44
78
ENDCHAR
STARTCHAR 0186
ENCODING 390
SWIDTH 525 0
DWIDTH 7 0
BBX 6 9 1 0
BITMAP
60
98
08
0C
0C
0C
0C
08
F0
ENDCHAR
STARTCHAR 0187
ENCODING 391
SWIDTH 525 0
DWIDTH 7 0
BBX 7 10 1 0
BITMAP
06
38
68
80
80
80
80
80
C0
78
ENDCHAR
STARTCHAR 0188
ENCODING 392
SWIDTH 525 0
DWIDTH 7 0
BBX 6 8 1 0
BITMAP
0C
38
68
80
80
80
C0
78
ENDCHAR
STARTCHAR 0189
ENCODING 393
SWIDTH 525 0
DWIDTH 7 0
BBX 7 9 0 0
BITMAP
60
5C
46
42
F2
42
46
44
78
ENDCHAR
STARTCHAR 018A
ENCODING 394
SWIDTH 525 0
DWIDTH 7 0
BBX 7 9 0 0
BITMAP
20
FC
A6
22
22
22
26
24
38
ENDCHAR
STARTCHAR 018B
ENCODING 395
SWIDTH 525 0
DWIDTH 7 0
BBX 5 9 1 0
BITMAP
F8
08
08
08
78
88
88
88
78
ENDCHAR
STARTCHAR 018C
ENCODING 396
SWIDTH 525 0
DWIDTH 7 0
BBX 5 9 1 0
BITMAP
F8
08
38
C8
88
88
88
98
F8
ENDCHAR
STARTCHAR 018D
ENCODING 397
SWIDTH 525 0
DWIDTH 7 0
BBX 6 9 1 0
BITMAP
78
88
8C
8C
88
78
30
10
F0
ENDCHAR
STARTCHAR 018E
ENCODING 398
SWIDTH 525 0
DWIDTH 7 0
BBX 5 9 1 0
BITMAP
F8
08
08
08
F8
08
08
08
F8
ENDCHAR
STARTCHAR 018F
ENCODING 399
SWIDTH 525 0
DWIDTH 7 0
BBX 7 9 0 0
BITMAP
30
4C
06
02
FE
C2
42
44
38
ENDCHAR
STARTCHAR 0190
ENCODING 400
SWIDTH 525 0
DWIDTH 7 0
BBX 5 9 1 0
BITMAP
30
C8
80
80
78
80
80
80
78
ENDCHAR
STARTCHAR 0191
ENCODING 401
SWIDTH 525 0
DWIDTH 7 0
BBX 6 11 0 -2
BITMAP
7C
60
60
60
7C
60
60
60
60
40
C0
ENDCHAR
STARTCHAR 0192
ENCODING 402
SWIDTH 525 0
DWIDTH 7 0
BBX 7 10 0 -2
BITMAP
0E
10
10
10
7C
10
10
30
20
A0
ENDCHAR
STARTCHAR 0193
ENCODING 403
SWIDTH 525 0
DWIDTH 7 0
BBX 8 10 0 0
BITMAP
03
1E
36
40
40
CE
C6
46
66
3E
ENDCHAR
STARTCHAR 0194
ENCODING 404
SWIDTH 525 0
DWIDTH 7 0
BBX 7 9 0 0
BITMAP
82
42
44
2C
28
10
18
28
7C
ENDCHAR
STARTCHAR 0195
ENCODING 405
SWIDTH 525 0
DWIDTH 7 0
BBX 6 9 1 0
BITMAP
80
80
E4
A4
A4
A4
A4
A4
98
ENDCHAR
STARTCHAR 0196
ENCODING 406
SWIDTH 525 0
DWIDTH 7 0
BBX 3 9 3 0
BITMAP
80
80
80
80
80
80
80
80
E0
ENDCHAR
STARTCHAR 0197
ENCODING 407
SWIDTH 525 0
DWIDTH 7 0
BBX 5 9 1 0
BITMAP
F8
20
20
20
78
20
20
20
F8
ENDCHAR
STARTCHAR 0198
ENCODING 408
SWIDTH 525 0
DWIDTH 7 0
BBX 5 9 1 0
BITMAP
80
98
90
A0
C0
A0
B0
98
88
ENDCHAR
STARTCHAR 0199
ENCODING 409
SWIDTH 525 0
DWIDTH 7 0
BBX 6 9 1 0
BITMAP
60
80
8C
98
B0
E0
B0
98
88
ENDCHAR
STARTCHAR 019A
ENCODING 410
SWIDTH 525 0
DWIDTH 7 0
BBX 5 9 1 0
BITMAP
E0
20
20
20
78
20
20
20
F8
ENDCHAR
STARTCHAR 019B
ENCODING 411
SWIDTH 525 0
DWIDTH 7 0
BBX 6 9 1 0
BITMAP
F0
60
20
30
50
50
C8
88
8C
ENDCHAR
STARTCHAR 019C
ENCODING 412
SWIDTH 525 0
DWIDTH 7 0
BBX 6 9 1 0
BITMAP
A4
A4
A4
A4
A4
A4
A4
AC
F4
ENDCHAR
STARTCHAR 019D
ENCODING 413
SWIDTH 525 0
DWIDTH 7 0
BBX 7 12 0 -3
BITMAP
46
66
66
76
56
5E
4E
4E
46
40
40
80
ENDCHAR
STARTCHAR 019E
ENCODING 414
SWIDTH 525 0
DWIDTH 7 0
BBX 5 10 1 -3
BITMAP
B0
C8
88
88
88
88
88
08
08
08
ENDCHAR
STARTCHAR 019F
ENCODING 415
SWIDTH 525 0
DWIDTH 7 0
BBX 7 9 0 0
BITMAP
18
6C
46
C2
FE
C2
42
44
3C
ENDCHAR
STARTCHAR 01A0
ENCODING 416
SWIDTH 525 0
DWIDTH 7 0
BBX 8 9 0 1
BITMAP
19
6E
46
C2
C2
C2
42
44
3C
ENDCHAR
STARTCHAR 01A1
ENCODING 417
SWIDTH 525 0
DWIDTH 7 0
BBX 8 7 0 1
BITMAP
1B
6E
44
C6
46
44
38
ENDCHAR
STARTCHAR 01A2
ENCODING 418
SWIDTH 525 0
DWIDTH 7 0
BBX 6 9 1 0
BITMAP
60
BC
A4
A4
A4
A4
A4
A4
E4
ENDCHAR
STARTCHAR 01A3
ENCODING 419
SWIDTH 525 0
DWIDTH 7 0
BBX 6 7 1 0
BITMAP
44
BC
A4
A4
A4
A4
E4
ENDCHAR
STARTCHAR 01A4
ENCODING 420
SWIDTH 525 0
DWIDTH 7 0
BBX 7 9 0 0
BITMAP
30
EC
A6
22
24
38
20
20
20
ENDCHAR
STARTCHAR 01A5
ENCODING 421
SWIDTH 525 0
DWIDTH 7 0
BBX 6 12 1 -3
BITMAP
E0
80
B0
C8
8C
8C
8C
88
F0
80
80
80
ENDCHAR
STARTCHAR 01A6
ENCODING 422
SWIDTH 525 0
DWIDTH 7 0
BBX 6 10 1 -1
BITMAP
80
80
F8
88
88
F0
90
98
88
0C
ENDCHAR
STARTCHAR 01A7
ENCODING 423
SWIDTH 525 0
DWIDTH 7 0
BBX 5 9 1 0
BITMAP
70
98
08
18
30
C0
80
80
78
ENDCHAR
STARTCHAR 01A8
ENCODING 424
SWIDTH 525 0
DWIDTH 7 0
BBX 5 7 1 0
BITMAP
70
08
08
30
40
C0
78
ENDCHAR
STARTCHAR 01A9
ENCODING 425
SWIDTH 525 0
DWIDTH 7 0
BBX 6 9 1 0
BITMAP
FC
FC
40
20
30
20
40
C0
FC
ENDCHAR
STARTCHAR 01AA
ENCODING 426
SWIDTH 525 0
DWIDTH 7 0
BBX 5 13 1 -3
BITMAP
E0
A0
A0
E0
20
20
20
20
20
20
20
30
18
ENDCHAR
STARTCHAR 01AB
ENCODING 427
SWIDTH 525 0
DWIDTH 7 0
BBX 6 11 0 -2
BITMAP
20
FC
20
20
20
20
30
1C
04
04
0C
ENDCHAR
STARTCHAR 01AC
ENCODING 428
SWIDTH 525 0
DWIDTH 7 0
BBX 7 9 0 0
BITMAP
3E
D0
90
10
10
10
10
10
10
ENDCHAR
STARTCHAR 01AD
ENCODING 429
SWIDTH 525 0
DWIDTH 7 0
BBX 6 9 0 0
BITMAP
18
20
FC
20
20
20
20
30
1C
ENDCHAR
STARTCHAR 01AE
ENCODING 430
SWIDTH 525 0
DWIDTH 7 0
BBX 6 12 1 -3
BITMAP
FC
20
20
20
20
20
20
20
20
20
20
18
ENDCHAR
STARTCHAR 01AF
ENCODING 431
SWIDTH 525 0
DWIDTH 7 0
BBX 7 9 1 1
BITMAP
8A
8C
88
88
88
88
88
98
F0
ENDCHAR
STARTCHAR 01B0
ENCODING 432
SWIDTH 525 0
DWIDTH 7 0
BBX 7 7 1 1
BITMAP
8E
8C
88
88
88
98
E8
ENDCHAR
STARTCHAR 01B1
ENCODING 433
SWIDTH 525 0
DWIDTH 7 0
BBX 7 9 0 0
BITMAP
EE
2C
44
42
C2
C2
42
44
3C
ENDCHAR
STARTCHAR 01B2
ENCODING 434
SWIDTH 525 0
DWIDTH 7 0
BBX 6 9 1 0
BITMAP
90
88
8C
8C
8C
8C
8C
88
78
ENDCHAR
STARTCHAR 01B3
ENCODING 435
SWIDTH 525 0
DWIDTH 7 0
BBX 7 9 0 0
BITMAP
C2
46
64
28
38
10
10
10
10
ENDCHAR
STARTCHAR 01B4
ENCODING 436
SWIDTH 525 0
DWIDTH 7 0
BBX 7 10 0 -3
BITMAP
C2
46
44
24
28
38
18
10
20
C0
ENDCHAR
STARTCHAR 01B5
ENCODING 437
SWIDTH 525 0
DWIDTH 7 0
BBX 6 9 1 0
BITMAP
FC
F8
18
10
F8
60
40
80
FC
ENDCHAR
STARTCHAR 01B6
ENCODING 438
SWIDTH 525 0
DWIDTH 7 0
BBX 5 7 1 0
BITMAP
F8
08
10
F8
60
40
F8
ENDCHAR
STARTCHAR 01B7
ENCODING 439
SWIDTH 525 0
DWIDTH 7 0
BBX 5 9 1 0
BITMAP
F8
08
10
20
70
08
08
08
F0
ENDCHAR
STARTCHAR 01B8
ENCODING 440
SWIDTH 525 0
DWIDTH 7 0
BBX 5 9 1 0
BITMAP
F8
C0
60
30
70
C0
80
C0
78
ENDCHAR
STARTCHAR 01B9
ENCODING 441
SWIDTH 525 0
DWIDTH 7 0
BBX 5 9 1 -2
BITMAP
F8
40
60
30
70
C0
80
C0
78
ENDCHAR
STARTCHAR 01BA
ENCODING 442
SWIDTH 525 0
DWIDTH 7 0
BBX 5 10 1 -3
BITMAP
F8
18
20
70
18
08
18
E0
80
60
ENDCHAR
STARTCHAR 01BB
ENCODING 443
SWIDTH 525 0
DWIDTH 7 0
BBX 6 9 1 0
BITMAP
20
D8
08
08
FC
30
60
C0
FC
ENDCHAR
STARTCHAR 01BC
ENCODING 444
SWIDTH 525 0
DWIDTH 7 0
BBX 6 9 0 0
BITMAP
FC
20
20
20
7C
04
04
04
78
ENDCHAR
STARTCHAR 01BD
ENCODING 445
SWIDTH 525 0
DWIDTH 7 0
BBX 5 7 1 0
BITMAP
F8
40
40
78
08
08
F0
ENDCHAR
STARTCHAR 01BE
ENCODING 446
SWIDTH 525 0
DWIDTH 7 0
BBX 4 8 1 0
BITMAP
40
F0
40
60
10
10
10
E0
ENDCHAR
STARTCHAR 01BF
ENCODING 447
SWIDTH 525 0
DWIDTH 7 0
BBX 6 10 1 -3
BITMAP
B0
C8
8C
8C
88
98
F0
80
80
80
ENDCHAR
STARTCHAR 01C0
ENCODING 448
SWIDTH 525 0
DWIDTH 7 0
BBX 1 14 3 -3
BITMAP
80
80
80
80
80
80
80
80
80
80
80
80
80
80
ENDCHAR
STARTCHAR 01C1
ENCODING 449
SWIDTH 525 0
DWIDTH 7 0
BBX 3 14 2 -3
BITMAP
A0
A0
A0
A0
A0
A0
A0
A0
A0
A0
A0
A0
A0
A0
ENDCHAR
STARTCHAR 01C2
ENCODING 450
SWIDTH 525 0
DWIDTH 7 0
BBX 5 14 1 -3
BITMAP
20
20
20
20
20
F8
20
20
F8
20
20
20
20
20
ENDCHAR
STARTCHAR 01C3
ENCODING 451
SWIDTH 525 0
DWIDTH 7 0
BBX 1 9 3 0
BITMAP
80
80
80
80
80
80
80
80
80
ENDCHAR
STARTCHAR 01C4
ENCODING 452
SWIDTH 525 0
DWIDTH 7 0
BBX 6 11 1 0
BITMAP
14
08
1C
C4
A4
A8
A8
A8
A8
F0
DC
ENDCHAR
STARTCHAR 01C5
ENCODING 453
SWIDTH 525 0
DWIDTH 7 0
BBX 6 9 1 0
BITMAP
1C
C0
BC
A4
A4
A8
A8
F0
DC
ENDCHAR
STARTCHAR 01C6
ENCODING 454
SWIDTH 525 0
DWIDTH 7 0
BBX 7 9 0 0
BITMAP
16
10
3E
52
92
94
94
D8
7E
ENDCHAR
STARTCHAR 01C7
ENCODING 455
SWIDTH 525 0
DWIDTH 7 0
BBX 6 9 1 0
BITMAP
9C
9C
8C
8C
8C
8C
8C
88
D8
ENDCHAR
STARTCHAR 01C8
ENCODING 456
SWIDTH 525 0
DWIDTH 7 0
BBX 6 12 1 -3
BITMAP
8C
80
9C
8C
8C
8C
8C
8C
CC
08
08
30
ENDCHAR
STARTCHAR 01C9
ENCODING 457
SWIDTH 525 0
DWIDTH 7 0
BBX 7 12 0 -3
BITMAP
E6
20
2E
26
26
26
26
26
F6
04
04
18
ENDCHAR
STARTCHAR 01CA
ENCODING 458
SWIDTH 525 0
DWIDTH 7 0
BBX 7 9 0 0
BITMAP
D6
D6
D2
D2
B2
B2
B2
B2
94
ENDCHAR
STARTCHAR 01CB
ENCODING 459
SWIDTH 525 0
DWIDTH 7 0
BBX 7 12 0 -3
BITMAP
D6
D0
D6
D2
B2
B2
B2
B2
92
02
02
0C
ENDCHAR
STARTCHAR 01CC
ENCODING 460
SWIDTH 525 0
DWIDTH 7 0
BBX 7 12 0 -3
BITMAP
06
00
B6
D2
D2
D2
D2
D2
D2
02
02
0C
ENDCHAR
STARTCHAR 01CD
ENCODING 461
SWIDTH 525 0
DWIDTH 7 0
BBX 7 11 0 0
BITMAP
28
10
10
18
28
28
24
44
7C
42
82
ENDCHAR
STARTCHAR 01CE
ENCODING 462
SWIDTH 525 0
DWIDTH 7 0
BBX 5 9 1 0
BITMAP
70
00
70
88
08
78
88
88
F8
ENDCHAR
STARTCHAR 01CF
ENCODING 463
SWIDTH 525 0
DWIDTH 7 0
BBX 5 11 1 0
BITMAP
50
20
F8
20
20
20
20
20
20
20
F8
ENDCHAR
STARTCHAR 01D0
ENCODING 464
SWIDTH 525 0
DWIDTH 7 0
BBX 5 9 1 0
BITMAP
70
00
E0
20
20
20
20
20
F8
ENDCHAR
STARTCHAR 01D1
ENCODING 465
SWIDTH 525 0
DWIDTH 7 0
BBX 7 11 0 0
BITMAP
28
10
18
6C
46
C2
C2
C2
42
44
3C
ENDCHAR
STARTCHAR 01D2
ENCODING 466
SWIDTH 525 0
DWIDTH 7 0
BBX 6 9 1 0
BITMAP
70
00
30
C8
8C
84
84
88
78
ENDCHAR
STARTCHAR 01D3
ENCODING 467
SWIDTH 525 0
DWIDTH 7 0
BBX 6 11 1 0
BITMAP
50
20
8C
8C
8C
8C
8C
8C
8C
88
78
ENDCHAR
STARTCHAR 01D4
ENCODING 468
SWIDTH 525 0
DWIDTH 7 0
BBX 5 9 1 0
BITMAP
70
00
88
88
88
88
88
88
78
ENDCHAR
STARTCHAR 01D5
ENCODING 469
SWIDTH 525 0
DWIDTH 7 0
BBX 6 12 1 0
BITMAP
70
48
40
8C
8C
8C
8C
8C
8C
8C
88
78
ENDCHAR
STARTCHAR 01D6
ENCODING 470
SWIDTH 525 0
DWIDTH 7 0
BBX 5 10 1 0
BITMAP
70
48
48
88
88
88
88
88
88
78
ENDCHAR
STARTCHAR 01D7
ENCODING 471
SWIDTH 525 0
DWIDTH 7 0
BBX 6 13 1 0
BITMAP
10
20
48
40
8C
8C
8C
8C
8C
8C
8C
88
78
ENDCHAR
STARTCHAR 01D8
ENCODING 472
SWIDTH 525 0
DWIDTH 7 0
BBX 5 11 1 0
BITMAP
10
20
48
48
88
88
88
88
88
88
78
ENDCHAR
STARTCHAR 01D9
ENCODING 473
SWIDTH 525 0
DWIDTH 7 0
BBX 6 13 1 0
BITMAP
50
20
48
40
8C
8C
8C
8C
8C
8C
8C
88
78
ENDCHAR
STARTCHAR 01DA
ENCODING 474
SWIDTH 525 0
DWIDTH 7 0
BBX 5 11 1 0
BITMAP
70
00
58
00
88
88
88
88
88
88
78
ENDCHAR
STARTCHAR 01DB
ENCODING 475
SWIDTH 525 0
DWIDTH 7 0
BBX 6 13 1 0
BITMAP
40
20
48
40
8C
8C
8C
8C
8C
8C
8C
88
78
ENDCHAR
STARTCHAR 01DC
ENCODING 476
SWIDTH 525 0
DWIDTH 7 0
BBX 5 11 1 0
BITMAP
40
20
48
48
88
88
88
88
88
88
78
ENDCHAR
STARTCHAR 01DD
ENCODING 477
SWIDTH 525 0
DWIDTH 7 0
BBX 6 7 1 0
BITMAP
70
98
08
FC
88
88
70
ENDCHAR
STARTCHAR 01DE
ENCODING 478
SWIDTH 525 0
DWIDTH 7 0
BBX 7 12 0 0
BITMAP
38
24
20
10
18
28
28
24
44
7C
42
82
ENDCHAR
STARTCHAR 01DF
ENCODING 479
SWIDTH 525 0
DWIDTH 7 0
BBX 5 10 1 0
BITMAP
70
48
48
70
88
08
78
88
88
F8
ENDCHAR
STARTCHAR 01E0
ENCODING 480
SWIDTH 525 0
DWIDTH 7 0
BBX 7 13 0 0
BITMAP
3C
00
10
10
10
18
28
28
24
44
7C
42
82
ENDCHAR
STARTCHAR 01E1
ENCODING 481
SWIDTH 525 0
DWIDTH 7 0
BBX 5 11 1 0
BITMAP
70
00
20
20
70
88
08
78
88
88
F8
ENDCHAR
STARTCHAR 01E2
ENCODING 482
SWIDTH 525 0
DWIDTH 7 0
BBX 7 11 0 0
BITMAP
1E
00
1E
18
28
28
2E
48
78
88
8E
ENDCHAR
STARTCHAR 01E3
ENCODING 483
SWIDTH 525 0
DWIDTH 7 0
BBX 7 9 0 0
BITMAP
38
00
6C
1A
12
7E
90
90
6E
ENDCHAR
STARTCHAR 01E4
ENCODING 484
SWIDTH 525 0
DWIDTH 7 0
BBX 7 9 0 0
BITMAP
1C
36
40
40
CE
C6
4E
66
3E
ENDCHAR
STARTCHAR 01E5
ENCODING 485
SWIDTH 525 0
DWIDTH 7 0
BBX 7 10 0 -3
BITMAP
1E
6C
44
44
78
40
7C
FE
46
38
ENDCHAR
STARTCHAR 01E6
ENCODING 486
SWIDTH 525 0
DWIDTH 7 0
BBX 7 11 0 0
BITMAP
2C
10
1C
36
40
40
CE
C6
46
66
3E
ENDCHAR
STARTCHAR 01E7
ENCODING 487
SWIDTH 525 0
DWIDTH 7 0
BBX 6 12 1 -3
BITMAP
70
00
3C
D8
88
88
F0
80
F8
84
8C
70
ENDCHAR
STARTCHAR 01E8
ENCODING 488
SWIDTH 525 0
DWIDTH 7 0
BBX 6 11 1 0
BITMAP
50
20
8C
88
90
A0
C0
A0
B0
98
88
ENDCHAR
STARTCHAR 01E9
ENCODING 489
SWIDTH 525 0
DWIDTH 7 0
BBX 6 11 1 0
BITMAP
78
00
80
80
8C
98
B0
E0
B0
98
88
ENDCHAR
STARTCHAR 01EA
ENCODING 490
SWIDTH 525 0
DWIDTH 7 0
BBX 7 11 0 -3
BITMAP
18
6C
46
C2
C2
C2
42
44
3C
10
10
ENDCHAR
STARTCHAR 01EB
ENCODING 491
SWIDTH 525 0
DWIDTH 7 0
BBX 6 9 1 -3
BITMAP
30
C8
8C
84
84
88
78
20
20
ENDCHAR
STARTCHAR 01EC
ENCODING 492
SWIDTH 525 0
DWIDTH 7 0
BBX 7 13 0 -3
BITMAP
3C
00
18
6C
46
C2
C2
C2
42
44
3C
10
10
ENDCHAR
STARTCHAR 01ED
ENCODING 493
SWIDTH 525 0
DWIDTH 7 0
BBX 6 11 1 -3
BITMAP
70
00
30
C8
8C
84
84
88
78
20
20
ENDCHAR
STARTCHAR 01EE
ENCODING 494
SWIDTH 525 0
DWIDTH 7 0
BBX 5 11 1 0
BITMAP
50
20
F8
08
10
20
70
08
08
08
F0
ENDCHAR
STARTCHAR 01EF
ENCODING 495
SWIDTH 525 0
DWIDTH 7 0
BBX 5 11 1 -2
BITMAP
70
00
F8
08
10
20
70
08
08
08
F0
ENDCHAR
STARTCHAR 01F0
ENCODING 496
SWIDTH 525 0
DWIDTH 7 0
BBX 4 12 1 -3
BITMAP
70
00
F0
10
10
10
10
10
10
10
10
E0
ENDCHAR
STARTCHAR 01F1
ENCODING 497
SWIDTH 525 0
DWIDTH 7 0
BBX 6 9 1 0
BITMAP
1C
C4
A4
A8
A8
A8
A8
F0
DC
ENDCHAR
STARTCHAR 01F2
ENCODING 498
SWIDTH 525 0
DWIDTH 7 0
BBX 6 8 1 1
BITMAP
C0
BC
A4
A4
A8
A8
F0
DC
ENDCHAR
STARTCHAR 01F3
ENCODING 499
SWIDTH 525 0
DWIDTH 7 0
BBX 7 9 0 0
BITMAP
10
10
3E
52
92
94
94
D8
7E
ENDCHAR
STARTCHAR 01F4
ENCODING 500
SWIDTH 525 0
DWIDTH 7 0
BBX 7 11 0 0
BITMAP
0C
10
1C
36
40
40
CE
C6
46
66
3E
ENDCHAR
STARTCHAR 01F5
ENCODING 501
SWIDTH 525 0
DWIDTH 7 0
BBX 6 12 1 -3
BITMAP
30
00
3C
D8
88
88
F0
80
F8
84
8C
70
ENDCHAR
STARTCHAR 01F6
ENCODING 502
SWIDTH 525 0
DWIDTH 7 0
BBX 6 9 1 0
BITMAP
A0
A0
A4
A4
E4
A4
A4
A4
98
ENDCHAR
STARTCHAR 01F7
ENCODING 503
SWIDTH 525 0
DWIDTH 7 0
BBX 6 12 1 -3
BITMAP
B0
C8
8C
8C
8C
88
98
B0
C0
80
80
80
ENDCHAR
STARTCHAR 01F8
ENCODING 504
SWIDTH 525 0
DWIDTH 7 0
BBX 6 11 1 0
BITMAP
60
30
8C
CC
CC
EC
AC
BC
9C
9C
8C
ENDCHAR
STARTCHAR 01F9
ENCODING 505
SWIDTH 525 0
DWIDTH 7 0
BBX 5 9 1 0
BITMAP
60
00
B0
C8
88
88
88
88
88
ENDCHAR
STARTCHAR 01FA
ENCODING 506
SWIDTH 525 0
DWIDTH 7 0
BBX 7 13 0 0
BITMAP
0C
18
38
28
10
18
28
28
24
44
7C
42
82
ENDCHAR
STARTCHAR 01FB
ENCODING 507
SWIDTH 525 0
DWIDTH 7 0
BBX 5 11 1 0
BITMAP
30
30
50
30
70
88
08
78
88
88
F8
ENDCHAR
STARTCHAR 01FC
ENCODING 508
SWIDTH 525 0
DWIDTH 7 0
BBX 7 11 0 0
BITMAP
0C
18
1E
18
28
28
2E
48
78
88
8E
ENDCHAR
STARTCHAR 01FD
ENCODING 509
SWIDTH 525 0
DWIDTH 7 0
BBX 7 9 0 0
BITMAP
0C
10
6C
1A
12
7E
90
90
6E
ENDCHAR
STARTCHAR 01FE
ENCODING 510
SWIDTH 525 0
DWIDTH 7 0
BBX 7 12 0 -1
BITMAP
18
34
18
6C
4E
CA
D2
D2
52
64
38
20
ENDCHAR
STARTCHAR 01FF
ENCODING 511
SWIDTH 525 0
DWIDTH 7 0
BBX 6 10 1 -1
BITMAP
30
08
30
D8
9C
A4
A4
A8
78
40
ENDCHAR
STARTCHAR 0200
ENCODING 512
SWIDTH 525 0
DWIDTH 7 0
BBX 7 11 0 0
BITMAP
58
24
10
18
28
28
24
44
7C
42
82
ENDCHAR
STARTCHAR 0201
ENCODING 513
SWIDTH 525 0
DWIDTH 7 0
BBX 5 9 1 0
BITMAP
90
40
70
88
08
78
88
88
F8
ENDCHAR
STARTCHAR 0202
ENCODING 514
SWIDTH 525 0
DWIDTH 7 0
BBX 7 11 0 0
BITMAP
38
28
10
18
28
28
24
44
7C
42
82
ENDCHAR
STARTCHAR 0203
ENCODING 515
SWIDTH 525 0
DWIDTH 7 0
BBX 5 9 1 0
BITMAP
70
00
70
88
08
78
88
88
F8
ENDCHAR
STARTCHAR 0204
ENCODING 516
SWIDTH 525 0
DWIDTH 7 0
BBX 5 11 1 0
BITMAP
B0
48
F8
80
80
80
F8
80
80
80
F8
ENDCHAR
STARTCHAR 0205
ENCODING 517
SWIDTH 525 0
DWIDTH 7 0
BBX 6 9 1 0
BITMAP
90
40
30
C8
88
FC
80
80
78
ENDCHAR
STARTCHAR 0206
ENCODING 518
SWIDTH 525 0
DWIDTH 7 0
BBX 5 11 1 0
BITMAP
70
50
F8
80
80
80
F8
80
80
80
F8
ENDCHAR
STARTCHAR 0207
ENCODING 519
SWIDTH 525 0
DWIDTH 7 0
BBX 6 9 1 0
BITMAP
70
00
30
C8
88
FC
80
80
78
ENDCHAR
STARTCHAR 0208
ENCODING 520
SWIDTH 525 0
DWIDTH 7 0
BBX 5 11 1 0
BITMAP
B0
48
F8
20
20
20
20
20
20
20
F8
ENDCHAR
STARTCHAR 0209
ENCODING 521
SWIDTH 525 0
DWIDTH 7 0
BBX 5 9 1 0
BITMAP
90
40
E0
20
20
20
20
20
F8
ENDCHAR
STARTCHAR 020A
ENCODING 522
SWIDTH 525 0
DWIDTH 7 0
BBX 5 11 1 0
BITMAP
70
50
F8
20
20
20
20
20
20
20
F8
ENDCHAR
STARTCHAR 020B
ENCODING 523
SWIDTH 525 0
DWIDTH 7 0
BBX 5 9 1 0
BITMAP
70
00
E0
20
20
20
20
20
F8
ENDCHAR
STARTCHAR 020C
ENCODING 524
SWIDTH 525 0
DWIDTH 7 0
BBX 7 11 0 0
BITMAP
58
24
18
6C
46
C2
C2
C2
42
44
3C
ENDCHAR
STARTCHAR 020D
ENCODING 525
SWIDTH 525 0
DWIDTH 7 0
BBX 6 9 1 0
BITMAP
90
40
30
C8
8C
84
84
88
78
ENDCHAR
STARTCHAR 020E
ENCODING 526
SWIDTH 525 0
DWIDTH 7 0
BBX 7 11 0 0
BITMAP
38
28
18
6C
46
C2
C2
C2
42
44
3C
ENDCHAR
STARTCHAR 020F
ENCODING 527
SWIDTH 525 0
DWIDTH 7 0
BBX 6 9 1 0
BITMAP
70
00
30
C8
8C
84
84
88
78
ENDCHAR
STARTCHAR 0210
ENCODING 528
SWIDTH 525 0
DWIDTH 7 0
BBX 6 11 1 0
BITMAP
B0
48
C0
B8
88
88
F0
90
98
88
8C
ENDCHAR
STARTCHAR 0211
ENCODING 529
SWIDTH 525 0
DWIDTH 7 0
BBX 6 9 1 0
BITMAP
90
40
98
A8
C4
80
80
80
80
ENDCHAR
STARTCHAR 0212
ENCODING 530
SWIDTH 525 0
DWIDTH 7 0
BBX 6 11 1 0
BITMAP
70
50
C0
B8
88
88
F0
90
98
88
8C
ENDCHAR
STARTCHAR 0213
ENCODING 531
SWIDTH 525 0
DWIDTH 7 0
BBX 6 9 1 0
BITMAP
70
00
98
A8
C4
80
80
80
80
ENDCHAR
STARTCHAR 0214
ENCODING 532
SWIDTH 525 0
DWIDTH 7 0
BBX 6 11 1 0
BITMAP
B0
48
8C
8C
8C
8C
8C
8C
8C
88
78
ENDCHAR
STARTCHAR 0215
ENCODING 533
SWIDTH 525 0
DWIDTH 7 0
BBX 5 9 1 0
BITMAP
90
40
88
88
88
88
88
88
78
ENDCHAR
STARTCHAR 0216
ENCODING 534
SWIDTH 525 0
DWIDTH 7 0
BBX 6 11 1 0
BITMAP
70
50
8C
8C
8C
8C
8C
8C
8C
88
78
ENDCHAR
STARTCHAR 0217
ENCODING 535
SWIDTH 525 0
DWIDTH 7 0
BBX 5 9 1 0
BITMAP
70
00
88
88
88
88
88
88
78
ENDCHAR
STARTCHAR 0218
ENCODING 536
SWIDTH 525 0
DWIDTH 7 0
BBX 5 12 1 -3
BITMAP
30
C8
80
C0
70
18
08
08
F8
00
20
20
ENDCHAR
STARTCHAR 0219
ENCODING 537
SWIDTH 525 0
DWIDTH 7 0
BBX 5 10 1 -3
BITMAP
38
C0
C0
70
18
08
F8
00
20
20
ENDCHAR
STARTCHAR 021A
ENCODING 538
SWIDTH 525 0
DWIDTH 7 0
BBX 6 12 1 -3
BITMAP
FC
20
20
20
20
20
20
20
20
00
20
20
ENDCHAR
STARTCHAR 021B
ENCODING 539
SWIDTH 525 0
DWIDTH 7 0
BBX 6 11 0 -2
BITMAP
20
FC
20
20
20
20
30
1C
00
10
10
ENDCHAR
STARTCHAR 021C
ENCODING 540
SWIDTH 525 0
DWIDTH 7 0
BBX 5 9 1 0
BITMAP
F8
08
10
20
70
08
08
08
F0
ENDCHAR
STARTCHAR 021D
ENCODING 541
SWIDTH 525 0
DWIDTH 7 0
BBX 5 9 1 -2
BITMAP
F8
08
10
20
70
08
08
08
F0
ENDCHAR
STARTCHAR 021E
ENCODING 542
SWIDTH 525 0
DWIDTH 7 0
BBX 6 11 1 0
BITMAP
50
20
8C
8C
8C
8C
FC
8C
8C
8C
8C
ENDCHAR
STARTCHAR 021F
ENCODING 543
SWIDTH 525 0
DWIDTH 7 0
BBX 5 11 1 0
BITMAP
50
20
80
80
B0
C8
88
88
88
88
88
ENDCHAR
STARTCHAR 0220
ENCODING 544
SWIDTH 525 0
DWIDTH 7 0
BBX 6 12 1 -3
BITMAP
B0
C8
8C
8C
8C
8C
8C
8C
8C
0C
0C
0C
ENDCHAR
STARTCHAR 0221
ENCODING 545
SWIDTH 525 0
DWIDTH 7 0
BBX 8 12 1 -3
BITMAP
08
08
38
C8
88
88
88
98
F8
0F
0D
0A
ENDCHAR
STARTCHAR 0222
ENCODING 546
SWIDTH 525 0
DWIDTH 7 0
BBX 6 9 1 0
BITMAP
88
88
88
70
70
88
8C
8C
F8
ENDCHAR
STARTCHAR 0223
ENCODING 547
SWIDTH 525 0
DWIDTH 7 0
BBX 6 9 1 0
BITMAP
88
88
58
70
D8
88
8C
88
F8
ENDCHAR
STARTCHAR 0224
ENCODING 548
SWIDTH 525 0
DWIDTH 7 0
BBX 6 11 1 -3
BITMAP
FC
F8
18
10
20
60
40
80
FC
04
0C
ENDCHAR
STARTCHAR 0225
ENCODING 549
SWIDTH 525 0
DWIDTH 7 0
BBX 5 10 1 -3
BITMAP
F8
08
10
20
60
40
F8
08
08
10
ENDCHAR
STARTCHAR 0226
ENCODING 550
SWIDTH 525 0
DWIDTH 7 0
BBX 7 11 0 0
BITMAP
10
10
10
18
28
28
24
44
7C
42
82
ENDCHAR
STARTCHAR 0227
ENCODING 551
SWIDTH 525 0
DWIDTH 7 0
BBX 5 9 1 0
BITMAP
30
00
70
88
08
78
88
88
F8
ENDCHAR
STARTCHAR 0228
ENCODING 552
SWIDTH 525 0
DWIDTH 7 0
BBX 5 11 1 -2
BITMAP
F8
80
80
80
F8
80
80
80
F8
20
20
ENDCHAR
STARTCHAR 0229
ENCODING 553
SWIDTH 525 0
DWIDTH 7 0
BBX 6 9 1 -2
BITMAP
30
C8
88
FC
80
80
78
20
20
ENDCHAR
STARTCHAR 022A
ENCODING 554
SWIDTH 525 0
DWIDTH 7 0
BBX 7 12 0 0
BITMAP
38
24
20
18
6C
46
C2
C2
C2
42
44
3C
ENDCHAR
STARTCHAR 022B
ENCODING 555
SWIDTH 525 0
DWIDTH 7 0
BBX 6 10 1 0
BITMAP
70
48
48
30
C8
8C
84
84
88
78
ENDCHAR
STARTCHAR 022C
ENCODING 556
SWIDTH 525 0
DWIDTH 7 0
BBX 7 12 0 0
BITMAP
38
34
08
18
6C
46
C2
C2
C2
42
44
3C
ENDCHAR
STARTCHAR 022D
ENCODING 557
SWIDTH 525 0
DWIDTH 7 0
BBX 6 11 1 0
BITMAP
70
00
F8
00
30
C8
8C
84
84
88
78
ENDCHAR
STARTCHAR 022E
ENCODING 558
SWIDTH 525 0
DWIDTH 7 0
BBX 7 11 0 0
BITMAP
10
10
18
6C
46
C2
C2
C2
42
44
3C
ENDCHAR
STARTCHAR 022F
ENCODING 559
SWIDTH 525 0
DWIDTH 7 0
BBX 6 9 1 0
BITMAP
30
00
30
C8
8C
84
84
88
78
ENDCHAR
STARTCHAR 0230
ENCODING 560
SWIDTH 525 0
DWIDTH 7 0
BBX 7 13 0 0
BITMAP
3C
00
10
10
18
6C
46
C2
C2
C2
42
44
3C
ENDCHAR
STARTCHAR 0231
ENCODING 561
SWIDTH 525 0
DWIDTH 7 0
BBX 6 11 1 0
BITMAP
70
00
20
20
30
C8
8C
84
84
88
78
ENDCHAR
STARTCHAR 0232
ENCODING 562
SWIDTH 525 0
DWIDTH 7 0
BBX 7 11 0 0
BITMAP
3C
00
82
46
44
2C
38
18
10
10
10
ENDCHAR
STARTCHAR 0233
ENCODING 563
SWIDTH 525 0
DWIDTH 7 0
BBX 7 12 0 -3
BITMAP
38
00
C2
44
44
24
28
38
18
10
20
C0
ENDCHAR
STARTCHAR 0234
ENCODING 564
SWIDTH 525 0
DWIDTH 7 0
BBX 6 12 1 -3
BITMAP
E0
20
20
20
20
20
20
20
20
3C
34
28
ENDCHAR
STARTCHAR 0235
ENCODING 565
SWIDTH 525 0
DWIDTH 7 0
BBX 8 10 1 -3
BITMAP
B0
C8
88
88
88
88
88
0F
0D
0A
ENDCHAR
STARTCHAR 0236
ENCODING 566
SWIDTH 525 0
DWIDTH 7 0
BBX 6 11 0 -2
BITMAP
20
FC
20
20
20
20
20
20
3C
34
28
ENDCHAR
STARTCHAR 0237
ENCODING 567
SWIDTH 525 0
DWIDTH 7 0
BBX 4 10 1 -3
BITMAP
F0
10
10
10
10
10
10
10
10
E0
ENDCHAR
STARTCHAR 0238
ENCODING 568
SWIDTH 525 0
DWIDTH 7 0
BBX 7 9 0 0
BITMAP
10
10
3C
56
D2
D2
D2
52
7C
ENDCHAR
STARTCHAR 0239
ENCODING 569
SWIDTH 525 0
DWIDTH 7 0
BBX 7 10 0 -3
BITMAP
34
5E
D2
D2
D2
52
7C
10
10
10
ENDCHAR
STARTCHAR 023A
ENCODING 570
SWIDTH 525 0
DWIDTH 7 0
BBX 7 10 0 -1
BITMAP
12
1E
2C
28
3C
54
7C
42
C2
80
ENDCHAR
STARTCHAR 023B
ENCODING 571
SWIDTH 525 0
DWIDTH 7 0
BBX 8 10 0 -1
BITMAP
1F
36
44
48
58
50
60
60
7C
80
ENDCHAR
STARTCHAR 023C
ENCODING 572
SWIDTH 525 0
DWIDTH 7 0
BBX 6 8 1 -1
BITMAP
3C
68
98
90
A0
E0
78
80
ENDCHAR
STARTCHAR 023D
ENCODING 573
SWIDTH 525 0
DWIDTH 7 0
BBX 6 9 0 0
BITMAP
20
20
20
20
F8
20
20
20
3C
ENDCHAR
STARTCHAR 023E
ENCODING 574
SWIDTH 525 0
DWIDTH 7 0
BBX 8 10 0 -1
BITMAP
7F
12
14
1C
18
10
30
30
50
80
ENDCHAR
STARTCHAR 023F
ENCODING 575
SWIDTH 525 0
DWIDTH 7 0
BBX 5 10 1 -3
BITMAP
38
C0
C0
70
18
08
F8
20
30
18
ENDCHAR
STARTCHAR 0240
ENCODING 576
SWIDTH 525 0
DWIDTH 7 0
BBX 6 10 1 -3
BITMAP
F8
08
10
20
60
40
E0
10
10
0C
ENDCHAR
STARTCHAR 0241
ENCODING 577
SWIDTH 525 0
DWIDTH 7 0
BBX 4 9 2 0
BITMAP
E0
30
10
10
30
60
C0
C0
C0
ENDCHAR
STARTCHAR 0242
ENCODING 578
SWIDTH 525 0
DWIDTH 7 0
BBX 4 7 2 0
BITMAP
80
60
10
10
30
E0
80
ENDCHAR
STARTCHAR 0243
ENCODING 579
SWIDTH 525 0
DWIDTH 7 0
BBX 7 9 0 0
BITMAP
70
4C
44
44
78
44
E6
44
78
ENDCHAR
STARTCHAR 0244
ENCODING 580
SWIDTH 525 0
DWIDTH 7 0
BBX 7 9 0 0
BITMAP
46
46
46
46
FE
46
46
44
3C
ENDCHAR
STARTCHAR 0245
ENCODING 581
SWIDTH 525 0
DWIDTH 7 0
BBX 7 9 0 0
BITMAP
10
18
28
28
24
44
44
42
82
ENDCHAR
STARTCHAR 0246
ENCODING 582
SWIDTH 525 0
DWIDTH 7 0
BBX 7 10 0 -1
BITMAP
7E
46
44
48
7C
50
60
40
7C
80
ENDCHAR
STARTCHAR 0247
ENCODING 583
SWIDTH 525 0
DWIDTH 7 0
BBX 6 8 1 -1
BITMAP
34
C8
98
FC
A0
C0
F8
80
ENDCHAR
STARTCHAR 0248
ENCODING 584
SWIDTH 525 0
DWIDTH 7 0
BBX 6 9 1 0
BITMAP
F8
F8
08
08
3C
08
08
18
F0
ENDCHAR
STARTCHAR 0249
ENCODING 585
SWIDTH 525 0
DWIDTH 7 0
BBX 6 12 1 -3
BITMAP
18
00
F0
10
10
3C
10
10
10
10
10
E0
ENDCHAR
STARTCHAR 024A
ENCODING 586
SWIDTH 525 0
DWIDTH 7 0
BBX 8 12 0 -3
BITMAP
18
64
44
C4
C4
C4
44
44
3C
04
06
03
ENDCHAR
STARTCHAR 024B
ENCODING 587
SWIDTH 525 0
DWIDTH 7 0
BBX 6 10 1 -3
BITMAP
30
C8
88
88
88
98
F8
08
08
04
ENDCHAR
STARTCHAR 024C
ENCODING 588
SWIDTH 525 0
DWIDTH 7 0
BBX 7 9 0 0
BITMAP
60
5C
44
44
F8
48
4C
44
46
ENDCHAR
STARTCHAR 024D
ENCODING 589
SWIDTH 525 0
DWIDTH 7 0
BBX 7 7 0 0
BITMAP
2C
36
22
F0
20
20
20
ENDCHAR
STARTCHAR 024E
ENCODING 590
SWIDTH 525 0
DWIDTH 7 0
BBX 7 9 0 0
BITMAP
82
46
FE
2C
38
18
10
10
10
ENDCHAR
STARTCHAR 024F
ENCODING 591
SWIDTH 525 0
DWIDTH 7 0
BBX 7 10 0 -3
BITMAP
C2
44
44
FE
28
38
18
10
20
C0
ENDCHAR
STARTCHAR 0250
ENCODING 592
SWIDTH 525 0
DWIDTH 7 0
BBX 5 7 1 0
BITMAP
B0
C8
88
F8
80
80
F8
ENDCHAR
STARTCHAR 0251
ENCODING 593
SWIDTH 525 0
DWIDTH 7 0
BBX 5 7 1 0
BITMAP
30
C8
88
88
88
98
F8
ENDCHAR
STARTCHAR 0252
ENCODING 594
SWIDTH 525 0
DWIDTH 7 0
BBX 6 7 1 0
BITMAP
B0
C8
8C
8C
8C
88
F0
ENDCHAR
STARTCHAR 0253
ENCODING 595
SWIDTH 525 0
DWIDTH 7 0
BBX 6 9 1 0
BITMAP
E0
80
B0
C8
8C
8C
8C
88
F0
ENDCHAR
STARTCHAR 0254
ENCODING 596
SWIDTH 525 0
DWIDTH 7 0
BBX 5 7 1 0
BITMAP
60
98
08
08
08
08
F0
ENDCHAR
STARTCHAR 0255
ENCODING 597
SWIDTH 525 0
DWIDTH 7 0
BBX 6 8 1 -1
BITMAP
38
68
80
80
88
D4
78
20
ENDCHAR
STARTCHAR 0256
ENCODING 598
SWIDTH 525 0
DWIDTH 7 0
BBX 7 12 1 -3
BITMAP
08
08
38
C8
88
88
88
98
F8
08
0C
06
ENDCHAR
STARTCHAR 0257
ENCODING 599
SWIDTH 525 0
DWIDTH 7 0
BBX 7 9 1 0
BITMAP
0E
08
38
C8
88
88
88
98
F8
ENDCHAR
STARTCHAR 0258
ENCODING 600
SWIDTH 525 0
DWIDTH 7 0
BBX 6 7 1 0
BITMAP
30
D8
88
FC
0C
08
F8
ENDCHAR
STARTCHAR 0259
ENCODING 601
SWIDTH 525 0
DWIDTH 7 0
BBX 6 7 1 0
BITMAP
70
98
08
FC
88
88
70
ENDCHAR
STARTCHAR 025A
ENCODING 602
SWIDTH 525 0
DWIDTH 7 0
BBX 7 7 0 0
BITMAP
60
18
08
3E
C8
48
70
ENDCHAR
STARTCHAR 025B
ENCODING 603
SWIDTH 525 0
DWIDTH 7 0
BBX 5 7 1 0
BITMAP
38
C0
80
70
80
80
F8
ENDCHAR
STARTCHAR 025C
ENCODING 604
SWIDTH 525 0
DWIDTH 7 0
BBX 5 7 1 0
BITMAP
70
98
08
70
08
08
F8
ENDCHAR
STARTCHAR 025D
ENCODING 605
SWIDTH 525 0
DWIDTH 7 0
BBX 6 7 1 0
BITMAP
60
98
18
74
08
08
F0
ENDCHAR
STARTCHAR 025E
ENCODING 606
SWIDTH 525 0
DWIDTH 7 0
BBX 6 7 1 0
BITMAP
30
C8
88
B0
8C
8C
78
ENDCHAR
STARTCHAR 025F
ENCODING 607
SWIDTH 525 0
DWIDTH 7 0
BBX 6 10 1 -3
BITMAP
F0
10
10
7C
10
10
10
10
10
E0
ENDCHAR
STARTCHAR 0260
ENCODING 608
SWIDTH 525 0
DWIDTH 7 0
BBX 7 12 1 -3
BITMAP
0E
08
38
C8
88
88
88
98
68
08
88
F0
ENDCHAR
STARTCHAR 0261
ENCODING 609
SWIDTH 525 0
DWIDTH 7 0
BBX 5 10 1 -3
BITMAP
30
C8
88
88
88
98
68
08
88
F0
ENDCHAR
STARTCHAR 0262
ENCODING 610
SWIDTH 525 0
DWIDTH 7 0
BBX 5 7 1 0
BITMAP
38
68
80
98
88
C8
78
ENDCHAR
STARTCHAR 0263
ENCODING 611
SWIDTH 525 0
DWIDTH 7 0
BBX 7 10 0 -3
BITMAP
C2
44
64
2C
28
18
10
38
28
18
ENDCHAR
STARTCHAR 0264
ENCODING 612
SWIDTH 525 0
DWIDTH 7 0
BBX 6 7 1 0
BITMAP
84
C8
50
30
30
50
70
ENDCHAR
STARTCHAR 0265
ENCODING 613
SWIDTH 525 0
DWIDTH 7 0
BBX 5 10 1 -3
BITMAP
88
88
88
88
88
88
78
08
08
08
ENDCHAR
STARTCHAR 0266
ENCODING 614
SWIDTH 525 0
DWIDTH 7 0
BBX 5 9 1 0
BITMAP
E0
80
B0
C8
88
88
88
88
88
ENDCHAR
STARTCHAR 0267
ENCODING 615
SWIDTH 525 0
DWIDTH 7 0
BBX 5 12 1 -3
BITMAP
E0
80
B0
C8
88
88
88
88
88
08
08
18
ENDCHAR
STARTCHAR 0268
ENCODING 616
SWIDTH 525 0
DWIDTH 7 0
BBX 5 9 1 0
BITMAP
30
20
E0
20
20
78
20
20
F8
ENDCHAR
STARTCHAR 0269
ENCODING 617
SWIDTH 525 0
DWIDTH 7 0
BBX 5 7 1 0
BITMAP
E0
20
20
20
20
20
18
ENDCHAR
STARTCHAR 026A
ENCODING 618
SWIDTH 525 0
DWIDTH 7 0
BBX 5 7 1 0
BITMAP
F8
20
20
20
20
20
F8
ENDCHAR
STARTCHAR 026B
ENCODING 619
SWIDTH 525 0
DWIDTH 7 0
BBX 5 9 1 0
BITMAP
E0
20
20
20
68
30
20
20
F8
ENDCHAR
STARTCHAR 026C
ENCODING 620
SWIDTH 525 0
DWIDTH 7 0
BBX 6 9 0 0
BITMAP
70
10
10
50
B0
5C
10
10
7C
ENDCHAR
STARTCHAR 026D
ENCODING 621
SWIDTH 525 0
DWIDTH 7 0
BBX 5 12 1 -3
BITMAP
E0
20
20
20
20
20
20
20
20
20
30
18
ENDCHAR
STARTCHAR 026E
ENCODING 622
SWIDTH 525 0
DWIDTH 7 0
BBX 7 11 0 -2
BITMAP
E0
20
3E
26
24
28
2C
22
22
02
3C
ENDCHAR
STARTCHAR 026F
ENCODING 623
SWIDTH 525 0
DWIDTH 7 0
BBX 6 7 1 0
BITMAP
A4
A4
A4
A4
A4
AC
F4
ENDCHAR
STARTCHAR 0270
ENCODING 624
SWIDTH 525 0
DWIDTH 7 0
BBX 6 10 1 -3
BITMAP
A4
A4
A4
A4
A4
AC
F4
04
04
04
ENDCHAR
STARTCHAR 0271
ENCODING 625
SWIDTH 525 0
DWIDTH 7 0
BBX 6 10 1 -3
BITMAP
68
B4
A4
A4
A4
A4
A4
04
0C
18
ENDCHAR
STARTCHAR 0272
ENCODING 626
SWIDTH 525 0
DWIDTH 7 0
BBX 6 10 0 -3
BITMAP
58
64
44
44
44
44
44
40
40
80
ENDCHAR
STARTCHAR 0273
ENCODING 627
SWIDTH 525 0
DWIDTH 7 0
BBX 7 10 1 -3
BITMAP
B0
C8
88
88
88
88
88
08
0C
06
ENDCHAR
STARTCHAR 0274
ENCODING 628
SWIDTH 525 0
DWIDTH 7 0
BBX 5 7 1 0
BITMAP
88
C8
C8
A8
98
98
88
ENDCHAR
STARTCHAR 0275
ENCODING 629
SWIDTH 525 0
DWIDTH 7 0
BBX 6 7 1 0
BITMAP
30
C8
8C
FC
8C
88
78
ENDCHAR
STARTCHAR 0276
ENCODING 630
SWIDTH 525 0
DWIDTH 7 0
BBX 6 7 1 0
BITMAP
3C
D0
90
9C
90
90
7C
ENDCHAR
STARTCHAR 0277
ENCODING 631
SWIDTH 525 0
DWIDTH 7 0
BBX 7 7 0 0
BITMAP
18
64
46
C2
D2
52
7C
ENDCHAR
STARTCHAR 0278
ENCODING 632
SWIDTH 525 0
DWIDTH 7 0
BBX 7 12 0 -3
BITMAP
10
10
38
54
D2
92
92
56
7C
10
10
10
ENDCHAR
STARTCHAR 0279
ENCODING 633
SWIDTH 525 0
DWIDTH 7 0
BBX 5 7 1 0
BITMAP
08
08
08
08
88
98
E8
ENDCHAR
STARTCHAR 027A
ENCODING 634
SWIDTH 525 0
DWIDTH 7 0
BBX 5 9 1 0
BITMAP
08
08
08
08
08
08
88
98
E8
ENDCHAR
STARTCHAR 027B
ENCODING 635
SWIDTH 525 0
DWIDTH 7 0
BBX 7 10 1 -3
BITMAP
08
08
08
08
88
98
E8
08
08
06
ENDCHAR
STARTCHAR 027C
ENCODING 636
SWIDTH 525 0
DWIDTH 7 0
BBX 6 10 1 -3
BITMAP
98
A8
C4
80
80
80
80
80
80
80
ENDCHAR
STARTCHAR 027D
ENCODING 637
SWIDTH 525 0
DWIDTH 7 0
BBX 6 10 1 -3
BITMAP
98
A8
C4
80
80
80
80
80
C0
60
ENDCHAR
STARTCHAR 027E
ENCODING 638
SWIDTH 525 0
DWIDTH 7 0
BBX 6 7 1 0
BITMAP
30
48
8C
80
80
80
80
ENDCHAR
STARTCHAR 027F
ENCODING 639
SWIDTH 525 0
DWIDTH 7 0
BBX 5 7 1 0
BITMAP
60
98
88
08
08
08
08
ENDCHAR
STARTCHAR 0280
ENCODING 640
SWIDTH 525 0
DWIDTH 7 0
BBX 5 7 1 0
BITMAP
E0
98
88
98
F0
98
88
ENDCHAR
STARTCHAR 0281
ENCODING 641
SWIDTH 525 0
DWIDTH 7 0
BBX 6 7 1 0
BITMAP
8C
88
90
F0
88
88
F8
ENDCHAR
STARTCHAR 0282
ENCODING 642
SWIDTH 525 0
DWIDTH 7 0
BBX 5 10 1 -3
BITMAP
38
C0
C0
70
18
08
F8
80
C0
60
ENDCHAR
STARTCHAR 0283
ENCODING 643
SWIDTH 525 0
DWIDTH 7 0
BBX 6 12 1 -3
BITMAP
1C
20
20
20
20
20
20
20
20
20
20
C0
ENDCHAR
STARTCHAR 0284
ENCODING 644
SWIDTH 525 0
DWIDTH 7 0
BBX 6 12 1 -3
BITMAP
1C
20
20
20
20
20
20
20
78
20
20
C0
ENDCHAR
STARTCHAR 0285
ENCODING 645
SWIDTH 525 0
DWIDTH 7 0
BBX 6 12 1 -3
BITMAP
E0
20
20
20
20
20
20
20
20
20
30
1C
ENDCHAR
STARTCHAR 0286
ENCODING 646
SWIDTH 525 0
DWIDTH 7 0
BBX 7 12 0 -3
BITMAP
0E
10
10
10
10
10
10
10
10
70
90
70
ENDCHAR
STARTCHAR 0287
ENCODING 647
SWIDTH 525 0
DWIDTH 7 0
BBX 6 9 1 0
BITMAP
E0
30
10
10
10
10
FC
10
10
ENDCHAR
STARTCHAR 0288
ENCODING 648
SWIDTH 525 0
DWIDTH 7 0
BBX 6 11 0 -2
BITMAP
20
FC
20
20
20
20
20
20
20
30
1C
ENDCHAR
STARTCHAR 0289
ENCODING 649
SWIDTH 525 0
DWIDTH 7 0
BBX 7 7 0 0
BITMAP
44
44
44
FE
44
44
3C
ENDCHAR
STARTCHAR 028A
ENCODING 650
SWIDTH 525 0
DWIDTH 7 0
BBX 7 7 0 0
BITMAP
EE
24
44
46
46
44
3C
ENDCHAR
STARTCHAR 028B
ENCODING 651
SWIDTH 525 0
DWIDTH 7 0
BBX 5 7 1 0
BITMAP
90
88
88
88
88
88
70
ENDCHAR
STARTCHAR 028C
ENCODING 652
SWIDTH 525 0
DWIDTH 7 0
BBX 6 7 1 0
BITMAP
20
30
50
50
C8
88
8C
ENDCHAR
STARTCHAR 028D
ENCODING 653
SWIDTH 525 0
DWIDTH 7 0
BBX 7 7 0 0
BITMAP
64
6C
6C
5A
52
C2
82
ENDCHAR
STARTCHAR 028E
ENCODING 654
SWIDTH 525 0
DWIDTH 7 0
BBX 6 9 1 0
BITMAP
1C
30
20
70
50
50
C8
88
8C
ENDCHAR
STARTCHAR 028F
ENCODING 655
SWIDTH 525 0
DWIDTH 7 0
BBX 7 7 0 0
BITMAP
C2
44
2C
38
10
10
10
ENDCHAR
STARTCHAR 0290
ENCODING 656
SWIDTH 525 0
DWIDTH 7 0
BBX 6 9 1 -3
BITMAP
F8
08
10
20
60
40
F8
08
0C
ENDCHAR
STARTCHAR 0291
ENCODING 657
SWIDTH 525 0
DWIDTH 7 0
BBX 6 8 1 -1
BITMAP
F8
08
10
20
60
5C
FC
20
ENDCHAR
STARTCHAR 0292
ENCODING 658
SWIDTH 525 0
DWIDTH 7 0
BBX 5 9 1 -2
BITMAP
F8
08
10
20
70
08
08
08
F0
ENDCHAR
STARTCHAR 0293
ENCODING 659
SWIDTH 525 0
DWIDTH 7 0
BBX 5 10 1 -3
BITMAP
F8
08
10
20
70
08
C8
A8
F0
10
ENDCHAR
STARTCHAR 0294
ENCODING 660
SWIDTH 525 0
DWIDTH 7 0
BBX 4 9 2 0
BITMAP
E0
30
10
10
30
60
C0
C0
C0
ENDCHAR
STARTCHAR 0295
ENCODING 661
SWIDTH 525 0
DWIDTH 7 0
BBX 4 9 2 0
BITMAP
70
C0
80
80
80
60
20
20
20
ENDCHAR
STARTCHAR 0296
ENCODING 662
SWIDTH 525 0
DWIDTH 7 0
BBX 4 9 2 0
BITMAP
C0
C0
C0
20
10
10
10
20
C0
ENDCHAR
STARTCHAR 0297
ENCODING 663
SWIDTH 525 0
DWIDTH 7 0
BBX 5 10 1 -3
BITMAP
38
68
C0
80
80
80
80
C0
40
38
ENDCHAR
STARTCHAR 0298
ENCODING 664
SWIDTH 525 0
DWIDTH 7 0
BBX 7 9 0 0
BITMAP
18
6C
46
C2
DA
D2
42
44
3C
ENDCHAR
STARTCHAR 0299
ENCODING 665
SWIDTH 525 0
DWIDTH 7 0
BBX 5 7 1 0
BITMAP
F0
98
88
F0
88
88
F8
ENDCHAR
STARTCHAR 029A
ENCODING 666
SWIDTH 525 0
DWIDTH 7 0
BBX 6 7 1 0
BITMAP
60
98
88
6C
8C
88
F8
ENDCHAR
STARTCHAR 029B
ENCODING 667
SWIDTH 525 0
DWIDTH 7 0
BBX 7 9 1 0
BITMAP
06
0C
38
68
80
98
88
C8
78
ENDCHAR
STARTCHAR 029C
ENCODING 668
SWIDTH 525 0
DWIDTH 7 0
BBX 5 7 1 0
BITMAP
88
88
88
F8
88
88
88
ENDCHAR
STARTCHAR 029D
ENCODING 669
SWIDTH 525 0
DWIDTH 7 0
BBX 6 12 0 -3
BITMAP
0C
00
78
08
08
08
08
08
48
B8
78
10
ENDCHAR
STARTCHAR 029E
ENCODING 670
SWIDTH 525 0
DWIDTH 7 0
BBX 6 10 0 -3
BITMAP
C4
64
34
1C
1C
34
64
04
04
04
ENDCHAR
STARTCHAR 029F
ENCODING 671
SWIDTH 525 0
DWIDTH 7 0
BBX 4 7 1 0
BITMAP
80
80
80
80
80
80
F0
ENDCHAR
STARTCHAR 02A0
ENCODING 672
SWIDTH 525 0
DWIDTH 7 0
BBX 7 12 1 -3
BITMAP
0E
08
38
C8
88
88
88
98
F8
08
08
08
ENDCHAR
STARTCHAR 02A1
ENCODING 673
SWIDTH 525 0
DWIDTH 7 0
BBX 5 9 1 0
BITMAP
70
18
08
08
18
30
60
F0
60
ENDCHAR
STARTCHAR 02A2
ENCODING 674
SWIDTH 525 0
DWIDTH 7 0
BBX 5 9 2 0
BITMAP
70
C0
80
80
80
60
20
78
20
ENDCHAR
STARTCHAR 02A3
ENCODING 675
SWIDTH 525 0
DWIDTH 7 0
BBX 7 9 0 0
BITMAP
10
10
3E
52
92
94
94
D8
7E
ENDCHAR
STARTCHAR 02A4
ENCODING 676
SWIDTH 525 0
DWIDTH 7 0
BBX 7 11 0 -2
BITMAP
10
10
3E
52
94
94
94
D2
72
02
0C
ENDCHAR
STARTCHAR 02A5
ENCODING 677
SWIDTH 525 0
DWIDTH 7 0
BBX 7 10 0 -1
BITMAP
10
10
3E
52
92
94
94
DA
7E
04
ENDCHAR
STARTCHAR 02A6
ENCODING 678
SWIDTH 525 0
DWIDTH 7 0
BBX 7 8 0 1
BITMAP
40
FC
5A
58
4C
46
62
3C
ENDCHAR
STARTCHAR 02A7
ENCODING 679
SWIDTH 525 0
DWIDTH 7 0
BBX 7 12 0 -3
BITMAP
06
4C
FC
4C
4C
4C
4C
6C
3C
0C
08
38
ENDCHAR
STARTCHAR 02A8
ENCODING 680
SWIDTH 525 0
DWIDTH 7 0
BBX 7 9 0 0
BITMAP
40
FE
48
58
50
50
5E
3E
04
ENDCHAR
STARTCHAR 02A9
ENCODING 681
SWIDTH 525 0
DWIDTH 7 0
BBX 7 9 0 0
BITMAP
70
40
54
FE
52
52
52
52
52
ENDCHAR
STARTCHAR 02AA
ENCODING 682
SWIDTH 525 0
DWIDTH 7 0
BBX 7 9 0 0
BITMAP
C0
40
4E
48
48
4C
46
42
3C
ENDCHAR
STARTCHAR 02AB
ENCODING 683
SWIDTH 525 0
DWIDTH 7 0
BBX 7 9 0 0
BITMAP
E0
20
3E
24
24
28
28
30
3E
ENDCHAR
STARTCHAR 02AC
ENCODING 684
SWIDTH 525 0
DWIDTH 7 0
BBX 5 9 1 0
BITMAP
88
A8
D8
D8
00
88
A8
D8
D8
ENDCHAR
STARTCHAR 02AD
ENCODING 685
SWIDTH 525 0
DWIDTH 7 0
BBX 5 8 1 0
BITMAP
F8
88
88
00
00
F8
88
88
ENDCHAR
STARTCHAR 02AE
ENCODING 686
SWIDTH 525 0
DWIDTH 7 0
BBX 6 12 0 -3
BITMAP
C0
40
44
44
44
44
44
44
3C
04
04
04
ENDCHAR
STARTCHAR 02AF
ENCODING 687
SWIDTH 525 0
DWIDTH 7 0
BBX 8 12 0 -3
BITMAP
C0
40
44
44
44
44
44
44
3C
04
06
03
ENDCHAR
STARTCHAR 02B0
ENCODING 688
SWIDTH 525 0
DWIDTH 7 0
BBX 4 5 2 5
BITMAP
80
A0
E0
90
90
ENDCHAR
STARTCHAR 02B1
ENCODING 689
SWIDTH 525 0
DWIDTH 7 0
BBX 4 5 2 5
BITMAP
C0
A0
E0
90
90
ENDCHAR
STARTCHAR 02B2
ENCODING 690
SWIDTH 525 0
DWIDTH 7 0
BBX 3 7 2 3
BITMAP
20
E0
20
20
20
20
E0
ENDCHAR
STARTCHAR 02B3
ENCODING 691
SWIDTH 525 0
DWIDTH 7 0
BBX 4 4 2 5
BITMAP
A0
D0
80
80
ENDCHAR
STARTCHAR 02B4
ENCODING 692
SWIDTH 525 0
DWIDTH 7 0
BBX 4 4 2 5
BITMAP
10
10
10
F0
ENDCHAR
STARTCHAR 02B5
ENCODING 693
SWIDTH 525 0
DWIDTH 7 0
BBX 5 6 1 3
BITMAP
10
10
10
B0
50
18
ENDCHAR
STARTCHAR 02B6
ENCODING 694
SWIDTH 525 0
DWIDTH 7 0
BBX 4 4 2 5
BITMAP
90
A0
E0
E0
ENDCHAR
STARTCHAR 02B7
ENCODING 695
SWIDTH 525 0
DWIDTH 7 0
BBX 5 4 1 5
BITMAP
88
A8
D8
D8
ENDCHAR
STARTCHAR 02B8
ENCODING 696
SWIDTH 525 0
DWIDTH 7 0
BBX 5 6 1 3
BITMAP
88
50
50
30
20
C0
ENDCHAR
STARTCHAR 02B9
ENCODING 697
SWIDTH 525 0
DWIDTH 7 0
BBX 3 4 2 5
BITMAP
60
40
40
80
ENDCHAR
STARTCHAR 02BA
ENCODING 698
SWIDTH 525 0
DWIDTH 7 0
BBX 6 4 1 5
BITMAP
4C
C8
98
90
ENDCHAR
STARTCHAR 02BB
ENCODING 699
SWIDTH 525 0
DWIDTH 7 0
BBX 3 4 3 5
BITMAP
E0
80
80
C0
ENDCHAR
STARTCHAR 02BC
ENCODING 700
SWIDTH 525 0
DWIDTH 7 0
BBX 3 4 2 5
BITMAP
60
60
40
C0
ENDCHAR
STARTCHAR 02BD
ENCODING 701
SWIDTH 525 0
DWIDTH 7 0
BBX 4 4 2 5
BITMAP
40
C0
40
30
ENDCHAR
STARTCHAR 02BE
ENCODING 702
SWIDTH 525 0
DWIDTH 7 0
BBX 1 2 3 7
BITMAP
80
80
ENDCHAR
STARTCHAR 02BF
ENCODING 703
SWIDTH 525 0
DWIDTH 7 0
BBX 1 2 3 7
BITMAP
80
80
ENDCHAR
STARTCHAR 02C0
ENCODING 704
SWIDTH 525 0
DWIDTH 7 0
BBX 3 5 2 4
BITMAP
E0
20
20
C0
80
ENDCHAR
STARTCHAR 02C1
ENCODING 705
SWIDTH 525 0
DWIDTH 7 0
BBX 3 5 2 4
BITMAP
60
80
80
60
20
ENDCHAR
STARTCHAR 02C2
ENCODING 706
SWIDTH 525 0
DWIDTH 7 0
BBX 5 7 1 0
BITMAP
18
30
60
80
60
30
08
ENDCHAR
STARTCHAR 02C3
ENCODING 707
SWIDTH 525 0
DWIDTH 7 0
BBX 5 7 1 0
BITMAP
C0
20
10
08
10
60
C0
ENDCHAR
STARTCHAR 02C4
ENCODING 708
SWIDTH 525 0
DWIDTH 7 0
BBX 7 5 0 5
BITMAP
10
38
64
46
82
ENDCHAR
STARTCHAR 02C5
ENCODING 709
SWIDTH 525 0
DWIDTH 7 0
BBX 7 5 0 5
BITMAP
82
44
2C
18
10
ENDCHAR
STARTCHAR 02C6
ENCODING 710
SWIDTH 525 0
DWIDTH 7 0
BBX 3 1 2 7
BITMAP
E0
ENDCHAR
STARTCHAR 02C7
ENCODING 711
SWIDTH 525 0
DWIDTH 7 0
BBX 3 1 2 7
BITMAP
E0
ENDCHAR
STARTCHAR 02C8
ENCODING 712
SWIDTH 525 0
DWIDTH 7 0
BBX 1 3 3 7
BITMAP
80
80
80
ENDCHAR
STARTCHAR 02C9
ENCODING 713
SWIDTH 525 0
DWIDTH 7 0
BBX 3 1 2 7
BITMAP
E0
ENDCHAR
STARTCHAR 02CA
ENCODING 714
SWIDTH 525 0
DWIDTH 7 0
BBX 3 2 3 7
BITMAP
60
80
ENDCHAR
STARTCHAR 02CB
ENCODING 715
SWIDTH 525 0
DWIDTH 7 0
BBX 2 2 2 7
BITMAP
80
40
ENDCHAR
STARTCHAR 02CC
ENCODING 716
SWIDTH 525 0
DWIDTH 7 0
BBX 1 3 3 -3
BITMAP
80
80
80
ENDCHAR
STARTCHAR 02CD
ENCODING 717
SWIDTH 525 0
DWIDTH 7 0
BBX 3 1 2 -3
BITMAP
E0
ENDCHAR
STARTCHAR 02CE
ENCODING 718
SWIDTH 525 0
DWIDTH 7 0
BBX 2 2 2 -3
BITMAP
80
40
ENDCHAR
STARTCHAR 02CF
ENCODING 719
SWIDTH 525 0
DWIDTH 7 0
BBX 3 2 3 -3
BITMAP
60
80
ENDCHAR
STARTCHAR 02D0
ENCODING 720
SWIDTH 525 0
DWIDTH 7 0
BBX 1 6 3 0
BITMAP
80
00
00
00
00
80
ENDCHAR
STARTCHAR 02D1
ENCODING 721
SWIDTH 525 0
DWIDTH 7 0
BBX 1 1 3 2
BITMAP
80
ENDCHAR
STARTCHAR 02D2
ENCODING 722
SWIDTH 525 0
DWIDTH 7 0
BBX 1 2 3 2
BITMAP
80
80
ENDCHAR
STARTCHAR 02D3
ENCODING 723
SWIDTH 525 0
DWIDTH 7 0
BBX 1 2 3 2
BITMAP
80
80
ENDCHAR
STARTCHAR 02D4
ENCODING 724
SWIDTH 525 0
DWIDTH 7 0
BBX 3 2 2 2
BITMAP
40
E0
ENDCHAR
STARTCHAR 02D5
ENCODING 725
SWIDTH 525 0
DWIDTH 7 0
BBX 2 2 3 2
BITMAP
C0
80
ENDCHAR
STARTCHAR 02D6
ENCODING 726
SWIDTH 525 0
DWIDTH 7 0
BBX 2 2 3 2
BITMAP
80
C0
ENDCHAR
STARTCHAR 02D7
ENCODING 727
SWIDTH 525 0
DWIDTH 7 0
BBX 2 1 3 3
BITMAP
C0
ENDCHAR
STARTCHAR 02D8
ENCODING 728
SWIDTH 525 0
DWIDTH 7 0
BBX 3 2 2 7
BITMAP
A0
40
ENDCHAR
STARTCHAR 02D9
ENCODING 729
SWIDTH 525 0
DWIDTH 7 0
BBX 2 1 3 7
BITMAP
C0
ENDCHAR
STARTCHAR 02DA
ENCODING 730
SWIDTH 525 0
DWIDTH 7 0
BBX 3 3 2 7
BITMAP
60
A0
60
ENDCHAR
STARTCHAR 02DB
ENCODING 731
SWIDTH 525 0
DWIDTH 7 0
BBX 2 2 4 -3
BITMAP
40
C0
ENDCHAR
STARTCHAR 02DC
ENCODING 732
SWIDTH 525 0
DWIDTH 7 0
BBX 5 1 1 7
BITMAP
F8
ENDCHAR
STARTCHAR 02DD
ENCODING 733
SWIDTH 525 0
DWIDTH 7 0
BBX 5 1 2 7
BITMAP
D8
ENDCHAR
STARTCHAR 02DE
ENCODING 734
SWIDTH 525 0
DWIDTH 7 0
BBX 3 2 2 3
BITMAP
40
E0
ENDCHAR
STARTCHAR 02DF
ENCODING 735
SWIDTH 525 0
DWIDTH 7 0
BBX 3 3 2 7
BITMAP
20
40
A0
ENDCHAR
STARTCHAR 02E0
ENCODING 736
SWIDTH 525 0
DWIDTH 7 0
BBX 5 6 1 3
BITMAP
88
50
30
20
50
30
ENDCHAR
STARTCHAR 02E1
ENCODING 737
SWIDTH 525 0
DWIDTH 7 0
BBX 3 5 2 5
BITMAP
C0
40
40
40
60
ENDCHAR
STARTCHAR 02E2
ENCODING 738
SWIDTH 525 0
DWIDTH 7 0
BBX 3 4 2 5
BITMAP
60
80
60
E0
ENDCHAR
STARTCHAR 02E3
ENCODING 739
SWIDTH 525 0
DWIDTH 7 0
BBX 4 4 2 5
BITMAP
90
A0
40
A0
ENDCHAR
STARTCHAR 02E4
ENCODING 740
SWIDTH 525 0
DWIDTH 7 0
BBX 3 4 2 5
BITMAP
60
80
C0
20
ENDCHAR
STARTCHAR 02E5
ENCODING 741
SWIDTH 525 0
DWIDTH 7 0
BBX 3 9 2 0
BITMAP
E0
20
20
20
20
20
20
20
20
ENDCHAR
STARTCHAR 02E6
ENCODING 742
SWIDTH 525 0
DWIDTH 7 0
BBX 3 9 2 0
BITMAP
20
20
E0
20
20
20
20
20
20
ENDCHAR
STARTCHAR 02E7
ENCODING 743
SWIDTH 525 0
DWIDTH 7 0
BBX 3 9 2 0
BITMAP
20
20
20
20
E0
20
20
20
20
ENDCHAR
STARTCHAR 02E8
ENCODING 744
SWIDTH 525 0
DWIDTH 7 0
BBX 3 9 2 0
BITMAP
20
20
20
20
20
20
E0
20
20
ENDCHAR
STARTCHAR 02E9
ENCODING 745
SWIDTH 525 0
DWIDTH 7 0
BBX 3 9 2 0
BITMAP
20
20
20
20
20
20
20
20
E0
ENDCHAR
STARTCHAR 02EA
ENCODING 746
SWIDTH 525 0
DWIDTH 7 0
BBX 3 6 2 0
BITMAP
80
80
80
80
80
E0
ENDCHAR
STARTCHAR 02EB
ENCODING 747
SWIDTH 525 0
DWIDTH 7 0
BBX 3 6 2 0
BITMAP
80
80
80
E0
80
80
ENDCHAR
STARTCHAR 02EC
ENCODING 748
SWIDTH 525 0
DWIDTH 7 0
BBX 3 1 2 -3
BITMAP
E0
ENDCHAR
STARTCHAR 02ED
ENCODING 749
SWIDTH 525 0
DWIDTH 7 0
BBX 7 2 0 8
BITMAP
FE
FE
ENDCHAR
STARTCHAR 02EE
ENCODING 750
SWIDTH 525 0
DWIDTH 7 0
BBX 7 4 0 5
BITMAP
66
26
24
C8
ENDCHAR
STARTCHAR 02EF
ENCODING 751
SWIDTH 525 0
DWIDTH 7 0
BBX 2 1 3 -2
BITMAP
C0
ENDCHAR
STARTCHAR 02F0
ENCODING 752
SWIDTH 525 0
DWIDTH 7 0
BBX 2 1 3 -2
BITMAP
C0
ENDCHAR
STARTCHAR 02F1
ENCODING 753
SWIDTH 525 0
DWIDTH 7 0
BBX 2 3 3 -3
BITMAP
40
80
40
ENDCHAR
STARTCHAR 02F2
ENCODING 754
SWIDTH 525 0
DWIDTH 7 0
BBX 2 2 3 -2
BITMAP
C0
80
ENDCHAR
STARTCHAR 02F3
ENCODING 755
SWIDTH 525 0
DWIDTH 7 0
BBX 3 2 2 -3
BITMAP
E0
60
ENDCHAR
STARTCHAR 02F4
ENCODING 756
SWIDTH 525 0
DWIDTH 7 0
BBX 2 1 2 2
BITMAP
C0
ENDCHAR
STARTCHAR 02F5
ENCODING 757
SWIDTH 525 0
DWIDTH 7 0
BBX 4 1 1 3
BITMAP
D0
ENDCHAR
STARTCHAR 02F6
ENCODING 758
SWIDTH 525 0
DWIDTH 7 0
BBX 5 1 2 2
BITMAP
D8
ENDCHAR
STARTCHAR 02F7
ENCODING 759
SWIDTH 525 0
DWIDTH 7 0
BBX 5 1 1 -3
BITMAP
F8
ENDCHAR
STARTCHAR 02F8
ENCODING 760
SWIDTH 525 0
DWIDTH 7 0
BBX 2 7 3 2
BITMAP
80
C0
00
00
00
80
C0
ENDCHAR
STARTCHAR 02F9
ENCODING 761
SWIDTH 525 0
DWIDTH 7 0
BBX 3 2 2 7
BITMAP
E0
80
ENDCHAR
STARTCHAR 02FA
ENCODING 762
SWIDTH 525 0
DWIDTH 7 0
BBX 3 2 2 7
BITMAP
E0
20
ENDCHAR
STARTCHAR 02FB
ENCODING 763
SWIDTH 525 0
DWIDTH 7 0
BBX 3 2 2 0
BITMAP
80
E0
ENDCHAR
STARTCHAR 02FC
ENCODING 764
SWIDTH 525 0
DWIDTH 7 0
BBX 3 2 2 0
BITMAP
20
E0
ENDCHAR
STARTCHAR 02FD
ENCODING 765
SWIDTH 525 0
DWIDTH 7 0
BBX 7 3 0 -3
BITMAP
82
82
FE
ENDCHAR
STARTCHAR 02FE
ENCODING 766
SWIDTH 525 0
DWIDTH 7 0
BBX 7 3 0 -3
BITMAP
80
80
FE
ENDCHAR
STARTCHAR 02FF
ENCODING 767
SWIDTH 525 0
DWIDTH 7 0
BBX 3 1 2 -2
BITMAP
E0
ENDCHAR
STARTCHAR 0300
ENCODING 768
SWIDTH 525 0
DWIDTH 7 0
BBX 2 2 3 7
BITMAP
80
40
ENDCHAR
STARTCHAR 0301
ENCODING 769
SWIDTH 525 0
DWIDTH 7 0
BBX 2 1 3 7
BITMAP
C0
ENDCHAR
STARTCHAR 0302
ENCODING 770
SWIDTH 525 0
DWIDTH 7 0
BBX 3 1 2 7
BITMAP
E0
ENDCHAR
STARTCHAR 0303
ENCODING 771
SWIDTH 525 0
DWIDTH 7 0
BBX 5 1 1 7
BITMAP
F8
ENDCHAR
STARTCHAR 0304
ENCODING 772
SWIDTH 525 0
DWIDTH 7 0
BBX 3 1 2 7
BITMAP
E0
ENDCHAR
STARTCHAR 0305
ENCODING 773
SWIDTH 525 0
DWIDTH 7 0
BBX 7 1 0 10
BITMAP
FE
ENDCHAR
STARTCHAR 0306
ENCODING 774
SWIDTH 525 0
DWIDTH 7 0
BBX 3 2 2 7
BITMAP
A0
40
ENDCHAR
STARTCHAR 0307
ENCODING 775
SWIDTH 525 0
DWIDTH 7 0
BBX 2 1 3 7
BITMAP
C0
ENDCHAR
STARTCHAR 0308
ENCODING 776
SWIDTH 525 0
DWIDTH 7 0
BBX 4 1 2 7
BITMAP
B0
ENDCHAR
STARTCHAR 0309
ENCODING 777
SWIDTH 525 0
DWIDTH 7 0
BBX 2 3 3 7
BITMAP
C0
C0
80
ENDCHAR
STARTCHAR 030A
ENCODING 778
SWIDTH 525 0
DWIDTH 7 0
BBX 3 3 2 7
BITMAP
60
A0
60
ENDCHAR
STARTCHAR 030B
ENCODING 779
SWIDTH 525 0
DWIDTH 7 0
BBX 5 2 1 7
BITMAP
58
80
ENDCHAR
STARTCHAR 030C
ENCODING 780
SWIDTH 525 0
DWIDTH 7 0
BBX 3 1 2 7
BITMAP
E0
ENDCHAR
STARTCHAR 030D
ENCODING 781
SWIDTH 525 0
DWIDTH 7 0
BBX 1 3 3 7
BITMAP
80
80
80
ENDCHAR
STARTCHAR 030E
ENCODING 782
SWIDTH 525 0
DWIDTH 7 0
BBX 3 3 2 7
BITMAP
A0
A0
A0
ENDCHAR
STARTCHAR 030F
ENCODING 783
SWIDTH 525 0
DWIDTH 7 0
BBX 4 2 1 7
BITMAP
90
40
ENDCHAR
STARTCHAR 0310
ENCODING 784
SWIDTH 525 0
DWIDTH 7 0
BBX 5 3 1 8
BITMAP
20
A8
78
ENDCHAR
STARTCHAR 0311
ENCODING 785
SWIDTH 525 0
DWIDTH 7 0
BBX 3 1 2 7
BITMAP
E0
ENDCHAR
STARTCHAR 0312
ENCODING 786
SWIDTH 525 0
DWIDTH 7 0
BBX 2 2 3 7
BITMAP
40
80
ENDCHAR
STARTCHAR 0313
ENCODING 787
SWIDTH 525 0
DWIDTH 7 0
BBX 1 2 3 7
BITMAP
80
80
ENDCHAR
STARTCHAR 0314
ENCODING 788
SWIDTH 525 0
DWIDTH 7 0
BBX 1 2 3 7
BITMAP
80
80
ENDCHAR
STARTCHAR 0315
ENCODING 789
SWIDTH 525 0
DWIDTH 7 0
BBX 1 2 7 7
BITMAP
80
80
ENDCHAR
STARTCHAR 0316
ENCODING 790
SWIDTH 525 0
DWIDTH 7 0
BBX 3 2 2 -3
BITMAP
C0
60
ENDCHAR
STARTCHAR 0317
ENCODING 791
SWIDTH 525 0
DWIDTH 7 0
BBX 2 2 3 -3
BITMAP
40
80
ENDCHAR
STARTCHAR 0318
ENCODING 792
SWIDTH 525 0
DWIDTH 7 0
BBX 3 2 2 -3
BITMAP
E0
20
ENDCHAR
STARTCHAR 0319
ENCODING 793
SWIDTH 525 0
DWIDTH 7 0
BBX 3 2 2 -3
BITMAP
E0
80
ENDCHAR
STARTCHAR 031A
ENCODING 794
SWIDTH 525 0
DWIDTH 7 0
BBX 3 3 2 7
BITMAP
E0
20
20
ENDCHAR
STARTCHAR 031B
ENCODING 795
SWIDTH 525 0
DWIDTH 7 0
BBX 2 3 3 4
BITMAP
40
40
80
ENDCHAR
STARTCHAR 031C
ENCODING 796
SWIDTH 525 0
DWIDTH 7 0
BBX 1 2 3 -3
BITMAP
80
80
ENDCHAR
STARTCHAR 031D
ENCODING 797
SWIDTH 525 0
DWIDTH 7 0
BBX 3 2 2 -3
BITMAP
40
E0
ENDCHAR
STARTCHAR 031E
ENCODING 798
SWIDTH 525 0
DWIDTH 7 0
BBX 2 2 3 -3
BITMAP
C0
80
ENDCHAR
STARTCHAR 031F
ENCODING 799
SWIDTH 525 0
DWIDTH 7 0
BBX 3 2 2 -3
BITMAP
E0
40
ENDCHAR
STARTCHAR 0320
ENCODING 800
SWIDTH 525 0
DWIDTH 7 0
BBX 3 1 2 -2
BITMAP
E0
ENDCHAR
STARTCHAR 0321
ENCODING 801
SWIDTH 525 0
DWIDTH 7 0
BBX 2 3 3 -3
BITMAP
40
40
80
ENDCHAR
STARTCHAR 0322
ENCODING 802
SWIDTH 525 0
DWIDTH 7 0
BBX 3 3 2 -3
BITMAP
80
A0
40
ENDCHAR
STARTCHAR 0323
ENCODING 803
SWIDTH 525 0
DWIDTH 7 0
BBX 2 2 3 -3
BITMAP
C0
80
ENDCHAR
STARTCHAR 0324
ENCODING 804
SWIDTH 525 0
DWIDTH 7 0
BBX 4 1 2 -2
BITMAP
B0
ENDCHAR
STARTCHAR 0325
ENCODING 805
SWIDTH 525 0
DWIDTH 7 0
BBX 3 2 2 -3
BITMAP
E0
60
ENDCHAR
STARTCHAR 0326
ENCODING 806
SWIDTH 525 0
DWIDTH 7 0
BBX 1 2 3 -3
BITMAP
80
80
ENDCHAR
STARTCHAR 0327
ENCODING 807
SWIDTH 525 0
DWIDTH 7 0
BBX 1 2 3 -2
BITMAP
80
80
ENDCHAR
STARTCHAR 0328
ENCODING 808
SWIDTH 525 0
DWIDTH 7 0
BBX 1 2 3 -3
BITMAP
80
80
ENDCHAR
STARTCHAR 0329
ENCODING 809
SWIDTH 525 0
DWIDTH 7 0
BBX 1 2 3 -3
BITMAP
80
80
ENDCHAR
STARTCHAR 032A
ENCODING 810
SWIDTH 525 0
DWIDTH 7 0
BBX 4 1 2 -2
BITMAP
F0
ENDCHAR
STARTCHAR 032B
ENCODING 811
SWIDTH 525 0
DWIDTH 7 0
BBX 4 1 2 -2
BITMAP
F0
ENDCHAR
STARTCHAR 032C
ENCODING 812
SWIDTH 525 0
DWIDTH 7 0
BBX 4 2 2 -3
BITMAP
90
60
ENDCHAR
STARTCHAR 032D
ENCODING 813
SWIDTH 525 0
DWIDTH 7 0
BBX 3 2 2 -3
BITMAP
40
A0
ENDCHAR
STARTCHAR 032E
ENCODING 814
SWIDTH 525 0
DWIDTH 7 0
BBX 3 2 2 -3
BITMAP
A0
E0
ENDCHAR
STARTCHAR 032F
ENCODING 815
SWIDTH 525 0
DWIDTH 7 0
BBX 3 2 2 -3
BITMAP
40
A0
ENDCHAR
STARTCHAR 0330
ENCODING 816
SWIDTH 525 0
DWIDTH 7 0
BBX 5 1 1 -2
BITMAP
F8
ENDCHAR
STARTCHAR 0331
ENCODING 817
SWIDTH 525 0
DWIDTH 7 0
BBX 3 1 2 -1
BITMAP
E0
ENDCHAR
STARTCHAR 0332
ENCODING 818
SWIDTH 525 0
DWIDTH 7 0
BBX 7 1 0 -3
BITMAP
FE
ENDCHAR
STARTCHAR 0333
ENCODING 819
SWIDTH 525 0
DWIDTH 7 0
BBX 7 2 0 -3
BITMAP
FE
FE
ENDCHAR
STARTCHAR 0334
ENCODING 820
SWIDTH 525 0
DWIDTH 7 0
BBX 5 1 1 2
BITMAP
F8
ENDCHAR
STARTCHAR 0335
ENCODING 821
SWIDTH 525 0
DWIDTH 7 0
BBX 4 1 2 3
BITMAP
F0
ENDCHAR
STARTCHAR 0336
ENCODING 822
SWIDTH 525 0
DWIDTH 7 0
BBX 5 1 1 3
BITMAP
F8
ENDCHAR
STARTCHAR 0337
ENCODING 823
SWIDTH 525 0
DWIDTH 7 0
BBX 6 8 1 -1
BITMAP
04
08
10
30
20
40
C0
80
ENDCHAR
STARTCHAR 0338
ENCODING 824
SWIDTH 525 0
DWIDTH 7 0
BBX 7 10 0 -1
BITMAP
02
06
04
08
18
10
20
40
40
80
ENDCHAR
STARTCHAR 0339
ENCODING 825
SWIDTH 525 0
DWIDTH 7 0
BBX 1 2 3 -3
BITMAP
80
80
ENDCHAR
STARTCHAR 033A
ENCODING 826
SWIDTH 525 0
DWIDTH 7 0
BBX 4 1 2 -2
BITMAP
F0
ENDCHAR
STARTCHAR 033B
ENCODING 827
SWIDTH 525 0
DWIDTH 7 0
BBX 3 2 2 -3
BITMAP
E0
E0
ENDCHAR
STARTCHAR 033C
ENCODING 828
SWIDTH 525 0
DWIDTH 7 0
BBX 4 1 2 -2
BITMAP
F0
ENDCHAR
STARTCHAR 033D
ENCODING 829
SWIDTH 525 0
DWIDTH 7 0
BBX 3 3 2 7
BITMAP
20
40
A0
ENDCHAR
STARTCHAR 033E
ENCODING 830
SWIDTH 525 0
DWIDTH 7 0
BBX 1 4 3 7
BITMAP
80
80
80
80
ENDCHAR
STARTCHAR 033F
ENCODING 831
SWIDTH 525 0
DWIDTH 7 0
BBX 7 2 0 9
BITMAP
FE
FE
ENDCHAR
STARTCHAR 0340
ENCODING 832
SWIDTH 525 0
DWIDTH 7 0
BBX 2 2 3 7
BITMAP
80
40
ENDCHAR
STARTCHAR 0341
ENCODING 833
SWIDTH 525 0
DWIDTH 7 0
BBX 2 1 3 7
BITMAP
C0
ENDCHAR
STARTCHAR 0342
ENCODING 834
SWIDTH 525 0
DWIDTH 7 0
BBX 5 1 1 7
BITMAP
F8
ENDCHAR
STARTCHAR 0343
ENCODING 835
SWIDTH 525 0
DWIDTH 7 0
BBX 1 2 3 7
BITMAP
80
80
ENDCHAR
STARTCHAR 0344
ENCODING 836
SWIDTH 525 0
DWIDTH 7 0
BBX 5 1 1 7
BITMAP
A8
ENDCHAR
STARTCHAR 0345
ENCODING 837
SWIDTH 525 0
DWIDTH 7 0
BBX 3 3 2 -3
BITMAP
80
A0
40
ENDCHAR
STARTCHAR 0346
ENCODING 838
SWIDTH 525 0
DWIDTH 7 0
BBX 4 2 2 7
BITMAP
F0
10
ENDCHAR
STARTCHAR 0347
ENCODING 839
SWIDTH 525 0
DWIDTH 7 0
BBX 7 2 0 -3
BITMAP
FE
FE
ENDCHAR
STARTCHAR 0348
ENCODING 840
SWIDTH 525 0
DWIDTH 7 0
BBX 3 3 2 -4
BITMAP
A0
A0
A0
ENDCHAR
STARTCHAR 0349
ENCODING 841
SWIDTH 525 0
DWIDTH 7 0
BBX 3 3 2 -3
BITMAP
E0
20
20
ENDCHAR
STARTCHAR 034A
ENCODING 842
SWIDTH 525 0
DWIDTH 7 0
BBX 4 2 2 8
BITMAP
D0
60
ENDCHAR
STARTCHAR 034B
ENCODING 843
SWIDTH 525 0
DWIDTH 7 0
BBX 5 4 1 8
BITMAP
20
20
F8
20
ENDCHAR
STARTCHAR 034C
ENCODING 844
SWIDTH 525 0
DWIDTH 7 0
BBX 5 3 1 7
BITMAP
68
10
F8
ENDCHAR
STARTCHAR 034D
ENCODING 845
SWIDTH 525 0
DWIDTH 7 0
BBX 6 2 1 -3
BITMAP
FC
88
ENDCHAR
STARTCHAR 034E
ENCODING 846
SWIDTH 525 0
DWIDTH 7 0
BBX 2 2 3 -3
BITMAP
C0
80
ENDCHAR
STARTCHAR 034F
ENCODING 847
SWIDTH 525 0
DWIDTH 7 0
BBX 0 0 0 0
BITMAP
ENDCHAR
STARTCHAR 0350
ENCODING 848
SWIDTH 525 0
DWIDTH 7 0
BBX 2 2 3 8
BITMAP
C0
80
ENDCHAR
STARTCHAR 0351
ENCODING 849
SWIDTH 525 0
DWIDTH 7 0
BBX 1 2 3 7
BITMAP
80
80
ENDCHAR
STARTCHAR 0352
ENCODING 850
SWIDTH 525 0
DWIDTH 7 0
BBX 5 3 1 7
BITMAP
70
88
20
ENDCHAR
STARTCHAR 0353
ENCODING 851
SWIDTH 525 0
DWIDTH 7 0
BBX 3 2 2 -3
BITMAP
40
A0
ENDCHAR
STARTCHAR 0354
ENCODING 852
SWIDTH 525 0
DWIDTH 7 0
BBX 2 3 3 -3
BITMAP
40
80
40
ENDCHAR
STARTCHAR 0355
ENCODING 853
SWIDTH 525 0
DWIDTH 7 0
BBX 2 2 3 -2
BITMAP
C0
80
ENDCHAR
STARTCHAR 0356
ENCODING 854
SWIDTH 525 0
DWIDTH 7 0
BBX 4 3 1 -3
BITMAP
80
70
80
ENDCHAR
STARTCHAR 0357
ENCODING 855
SWIDTH 525 0
DWIDTH 7 0
BBX 1 3 3 7
BITMAP
80
80
80
ENDCHAR
STARTCHAR 0358
ENCODING 856
SWIDTH 525 0
DWIDTH 7 0
BBX 2 1 3 7
BITMAP
C0
ENDCHAR
STARTCHAR 0359
ENCODING 857
SWIDTH 525 0
DWIDTH 7 0
BBX 3 3 2 -3
BITMAP
40
A0
E0
ENDCHAR
STARTCHAR 035A
ENCODING 858
SWIDTH 525 0
DWIDTH 7 0
BBX 5 2 1 -3
BITMAP
F8
78
ENDCHAR
STARTCHAR 035B
ENCODING 859
SWIDTH 525 0
DWIDTH 7 0
BBX 3 2 2 7
BITMAP
40
E0
ENDCHAR
STARTCHAR 035C
ENCODING 860
SWIDTH 525 0
DWIDTH 7 0
BBX 7 2 0 -3
BITMAP
C6
3C
ENDCHAR
STARTCHAR 035D
ENCODING 861
SWIDTH 525 0
DWIDTH 7 0
BBX 7 2 0 7
BITMAP
82
7C
ENDCHAR
STARTCHAR 035E
ENCODING 862
SWIDTH 525 0
DWIDTH 7 0
BBX 7 1 0 7
BITMAP
FE
ENDCHAR
STARTCHAR 035F
ENCODING 863
SWIDTH 525 0
DWIDTH 7 0
BBX 7 1 0 -4
BITMAP
FE
ENDCHAR
STARTCHAR 0360
ENCODING 864
SWIDTH 525 0
DWIDTH 7 0
BBX 6 2 1 7
BITMAP
E4
BC
ENDCHAR
STARTCHAR 0361
ENCODING 865
SWIDTH 525 0
DWIDTH 7 0
BBX 7 2 0 7
BITMAP
3C
C2
ENDCHAR
STARTCHAR 0362
ENCODING 866
SWIDTH 525 0
DWIDTH 7 0
BBX 7 1 0 -3
BITMAP
FE
ENDCHAR
STARTCHAR 0363
ENCODING 867
SWIDTH 525 0
DWIDTH 7 0
BBX 3 3 2 7
BITMAP
60
60
E0
ENDCHAR
STARTCHAR 0364
ENCODING 868
SWIDTH 525 0
DWIDTH 7 0
BBX 3 3 2 7
BITMAP
E0
E0
E0
ENDCHAR
STARTCHAR 0365
ENCODING 869
SWIDTH 525 0
DWIDTH 7 0
BBX 2 5 3 7
BITMAP
80
00
80
80
C0
ENDCHAR
STARTCHAR 0366
ENCODING 870
SWIDTH 525 0
DWIDTH 7 0
BBX 3 3 2 7
BITMAP
E0
A0
E0
ENDCHAR
STARTCHAR 0367
ENCODING 871
SWIDTH 525 0
DWIDTH 7 0
BBX 3 3 2 7
BITMAP
A0
A0
E0
ENDCHAR
STARTCHAR 0368
ENCODING 872
SWIDTH 525 0
DWIDTH 7 0
BBX 3 3 2 7
BITMAP
E0
80
E0
ENDCHAR
STARTCHAR 0369
ENCODING 873
SWIDTH 525 0
DWIDTH 7 0
BBX 3 4 2 7
BITMAP
20
E0
A0
E0
ENDCHAR
STARTCHAR 036A
ENCODING 874
SWIDTH 525 0
DWIDTH 7 0
BBX 3 4 2 7
BITMAP
80
E0
A0
A0
ENDCHAR
STARTCHAR 036B
ENCODING 875
SWIDTH 525 0
DWIDTH 7 0
BBX 3 3 2 7
BITMAP
E0
E0
E0
ENDCHAR
STARTCHAR 036C
ENCODING 876
SWIDTH 525 0
DWIDTH 7 0
BBX 3 3 2 7
BITMAP
E0
80
80
ENDCHAR
STARTCHAR 036D
ENCODING 877
SWIDTH 525 0
DWIDTH 7 0
BBX 2 4 3 7
BITMAP
80
C0
80
C0
ENDCHAR
STARTCHAR 036E
ENCODING 878
SWIDTH 525 0
DWIDTH 7 0
BBX 3 3 2 7
BITMAP
A0
A0
40
ENDCHAR
STARTCHAR 036F
ENCODING 879
SWIDTH 525 0
DWIDTH 7 0
BBX 3 3 2 7
BITMAP
A0
40
A0
ENDCHAR
STARTCHAR 0374
ENCODING 884
SWIDTH 525 0
DWIDTH 7 0
BBX 3 4 2 5
BITMAP
60
60
40
80
ENDCHAR
STARTCHAR 0375
ENCODING 885
SWIDTH 525 0
DWIDTH 7 0
BBX 4 4 1 -2
BITMAP
10
10
20
E0
ENDCHAR
STARTCHAR 037A
ENCODING 890
SWIDTH 525 0
DWIDTH 7 0
BBX 1 1 3 -3
BITMAP
80
ENDCHAR
STARTCHAR 037B
ENCODING 891
SWIDTH 525 0
DWIDTH 7 0
BBX 5 7 1 0
BITMAP
60
98
08
08
08
08
F0
ENDCHAR
STARTCHAR 037C
ENCODING 892
SWIDTH 525 0
DWIDTH 7 0
BBX 5 7 1 0
BITMAP
38
68
80
90
90
C0
78
ENDCHAR
STARTCHAR 037D
ENCODING 893
SWIDTH 525 0
DWIDTH 7 0
BBX 5 7 1 0
BITMAP
60
98
08
68
08
08
F0
ENDCHAR
STARTCHAR 037E
ENCODING 894
SWIDTH 525 0
DWIDTH 7 0
BBX 3 9 2 -2
BITMAP
40
60
00
00
00
60
60
60
C0
ENDCHAR
STARTCHAR 0384
ENCODING 900
SWIDTH 525 0
DWIDTH 7 0
BBX 2 1 3 7
BITMAP
C0
ENDCHAR
STARTCHAR 0385
ENCODING 901
SWIDTH 525 0
DWIDTH 7 0
BBX 5 1 1 7
BITMAP
A8
ENDCHAR
STARTCHAR 0386
ENCODING 902
SWIDTH 525 0
DWIDTH 7 0
BBX 7 9 0 0
BITMAP
D0
18
28
28
24
44
7C
42
82
ENDCHAR
STARTCHAR 0387
ENCODING 903
SWIDTH 525 0
DWIDTH 7 0
BBX 2 2 3 6
BITMAP
80
C0
ENDCHAR
STARTCHAR 0388
ENCODING 904
SWIDTH 525 0
DWIDTH 7 0
BBX 7 9 -1 0
BITMAP
FE
20
20
20
3E
20
20
20
3E
ENDCHAR
STARTCHAR 0389
ENCODING 905
SWIDTH 525 0
DWIDTH 7 0
BBX 8 9 -1 0
BITMAP
A3
23
23
23
3F
23
23
23
23
ENDCHAR
STARTCHAR 038A
ENCODING 906
SWIDTH 525 0
DWIDTH 7 0
BBX 7 9 -1 0
BITMAP
BE
08
08
08
08
08
08
08
3E
ENDCHAR
STARTCHAR 038C
ENCODING 908
SWIDTH 525 0
DWIDTH 7 0
BBX 7 9 0 0
BITMAP
98
6C
46
C2
C2
C2
42
44
3C
ENDCHAR
STARTCHAR 038E
ENCODING 910
SWIDTH 525 0
DWIDTH 7 0
BBX 8 9 -1 0
BITMAP
C1
23
22
16
1C
0C
08
08
08
ENDCHAR
STARTCHAR 038F
ENCODING 911
SWIDTH 525 0
DWIDTH 7 0
BBX 7 9 0 0
BITMAP
98
6C
46
C2
C2
C2
42
44
EE
ENDCHAR
STARTCHAR 0390
ENCODING 912
SWIDTH 525 0
DWIDTH 7 0
BBX 5 9 1 0
BITMAP
A8
00
E0
20
20
20
20
20
18
ENDCHAR
STARTCHAR 0391
ENCODING 913
SWIDTH 525 0
DWIDTH 7 0
BBX 7 9 0 0
BITMAP
10
18
28
28
24
44
7C
42
82
ENDCHAR
STARTCHAR 0392
ENCODING 914
SWIDTH 525 0
DWIDTH 7 0
BBX 6 9 1 0
BITMAP
E0
98
88
88
F0
88
8C
88
F0
ENDCHAR
STARTCHAR 0393
ENCODING 915
SWIDTH 525 0
DWIDTH 7 0
BBX 4 9 2 0
BITMAP
F0
80
80
80
80
80
80
80
80
ENDCHAR
STARTCHAR 0394
ENCODING 916
SWIDTH 525 0
DWIDTH 7 0
BBX 7 9 0 0
BITMAP
10
18
28
28
24
44
44
42
FE
ENDCHAR
STARTCHAR 0395
ENCODING 917
SWIDTH 525 0
DWIDTH 7 0
BBX 5 9 1 0
BITMAP
F8
80
80
80
F8
80
80
80
F8
ENDCHAR
STARTCHAR 0396
ENCODING 918
SWIDTH 525 0
DWIDTH 7 0
BBX 6 9 1 0
BITMAP
FC
F8
18
10
20
60
40
80
FC
ENDCHAR
STARTCHAR 0397
ENCODING 919
SWIDTH 525 0
DWIDTH 7 0
BBX 6 9 1 0
BITMAP
8C
8C
8C
8C
FC
8C
8C
8C
8C
ENDCHAR
STARTCHAR 0398
ENCODING 920
SWIDTH 525 0
DWIDTH 7 0
BBX 7 9 0 0
BITMAP
18
6C
46
C2
FA
C2
42
44
3C
ENDCHAR
STARTCHAR 0399
ENCODING 921
SWIDTH 525 0
DWIDTH 7 0
BBX 5 9 1 0
BITMAP
F8
20
20
20
20
20
20
20
F8
ENDCHAR
STARTCHAR 039A
ENCODING 922
SWIDTH 525 0
DWIDTH 7 0
BBX 6 9 1 0
BITMAP
8C
88
90
A0
C0
A0
B0
98
88
ENDCHAR
STARTCHAR 039B
ENCODING 923
SWIDTH 525 0
DWIDTH 7 0
BBX 7 9 0 0
BITMAP
10
18
28
28
24
44
44
42
82
ENDCHAR
STARTCHAR 039C
ENCODING 924
SWIDTH 525 0
DWIDTH 7 0
BBX 7 9 0 0
BITMAP
46
46
6A
6A
5A
D2
82
82
82
ENDCHAR
STARTCHAR 039D
ENCODING 925
SWIDTH 525 0
DWIDTH 7 0
BBX 6 9 1 0
BITMAP
8C
CC
CC
EC
AC
BC
9C
9C
8C
ENDCHAR
STARTCHAR 039E
ENCODING 926
SWIDTH 525 0
DWIDTH 7 0
BBX 5 9 1 0
BITMAP
F8
F8
00
00
78
00
00
00
F8
ENDCHAR
STARTCHAR 039F
ENCODING 927
SWIDTH 525 0
DWIDTH 7 0
BBX 7 9 0 0
BITMAP
18
6C
46
C2
C2
C2
42
44
3C
ENDCHAR
STARTCHAR 03A0
ENCODING 928
SWIDTH 525 0
DWIDTH 7 0
BBX 6 9 1 0
BITMAP
FC
FC
8C
8C
8C
8C
8C
8C
8C
ENDCHAR
STARTCHAR 03A1
ENCODING 929
SWIDTH 525 0
DWIDTH 7 0
BBX 6 9 1 0
BITMAP
C0
B8
8C
8C
88
F0
80
80
80
ENDCHAR
STARTCHAR 03A3
ENCODING 931
SWIDTH 525 0
DWIDTH 7 0
BBX 6 9 1 0
BITMAP
FC
FC
40
20
30
20
40
C0
FC
ENDCHAR
STARTCHAR 03A4
ENCODING 932
SWIDTH 525 0
DWIDTH 7 0
BBX 6 9 1 0
BITMAP
FC
20
20
20
20
20
20
20
20
ENDCHAR
STARTCHAR 03A5
ENCODING 933
SWIDTH 525 0
DWIDTH 7 0
BBX 7 9 0 0
BITMAP
82
46
44
2C
38
18
10
10
10
ENDCHAR
STARTCHAR 03A6
ENCODING 934
SWIDTH 525 0
DWIDTH 7 0
BBX 7 10 0 -1
BITMAP
10
7C
56
D2
92
92
D2
54
38
10
ENDCHAR
STARTCHAR 03A7
ENCODING 935
SWIDTH 525 0
DWIDTH 7 0
BBX 7 9 0 0
BITMAP
C2
44
2C
38
10
38
2C
44
C6
ENDCHAR
STARTCHAR 03A8
ENCODING 936
SWIDTH 525 0
DWIDTH 7 0
BBX 7 9 0 0
BITMAP
D2
D2
D2
D2
D2
7C
10
10
10
ENDCHAR
STARTCHAR 03A9
ENCODING 937
SWIDTH 525 0
DWIDTH 7 0
BBX 7 9 0 0
BITMAP
18
6C
46
C2
C2
C2
42
44
EE
ENDCHAR
STARTCHAR 03AA
ENCODING 938
SWIDTH 525 0
DWIDTH 7 0
BBX 5 11 1 0
BITMAP
48
40
F8
20
20
20
20
20
20
20
F8
ENDCHAR
STARTCHAR 03AB
ENCODING 939
SWIDTH 525 0
DWIDTH 7 0
BBX 7 11 0 0
BITMAP
24
20
82
46
44
2C
38
18
10
10
10
ENDCHAR
STARTCHAR 03AC
ENCODING 940
SWIDTH 525 0
DWIDTH 7 0
BBX 6 9 1 0
BITMAP
30
00
64
D8
88
88
88
98
F4
ENDCHAR
STARTCHAR 03AD
ENCODING 941
SWIDTH 525 0
DWIDTH 7 0
BBX 5 9 1 0
BITMAP
10
00
38
C0
80
70
80
80
F8
ENDCHAR
STARTCHAR 03AE
ENCODING 942
SWIDTH 525 0
DWIDTH 7 0
BBX 5 12 1 -3
BITMAP
10
00
B0
C8
88
88
88
88
88
08
08
08
ENDCHAR
STARTCHAR 03AF
ENCODING 943
SWIDTH 525 0
DWIDTH 7 0
BBX 5 9 1 0
BITMAP
30
00
E0
20
20
20
20
20
18
ENDCHAR
STARTCHAR 03B0
ENCODING 944
SWIDTH 525 0
DWIDTH 7 0
BBX 5 9 1 0
BITMAP
A8
00
88
88
88
88
88
88
70
ENDCHAR
STARTCHAR 03B1
ENCODING 945
SWIDTH 525 0
DWIDTH 7 0
BBX 6 7 1 0
BITMAP
64
D8
88
88
88
98
F4
ENDCHAR
STARTCHAR 03B2
ENCODING 946
SWIDTH 525 0
DWIDTH 7 0
BBX 6 12 1 -3
BITMAP
78
88
88
98
B8
8C
84
88
F8
80
80
80
ENDCHAR
STARTCHAR 03B3
ENCODING 947
SWIDTH 525 0
DWIDTH 7 0
BBX 7 10 0 -3
BITMAP
86
44
24
24
24
38
18
10
10
10
ENDCHAR
STARTCHAR 03B4
ENCODING 948
SWIDTH 525 0
DWIDTH 7 0
BBX 6 9 1 0
BITMAP
78
40
30
58
88
8C
8C
88
78
ENDCHAR
STARTCHAR 03B5
ENCODING 949
SWIDTH 525 0
DWIDTH 7 0
BBX 5 7 1 0
BITMAP
38
C0
80
70
80
80
F8
ENDCHAR
STARTCHAR 03B6
ENCODING 950
SWIDTH 525 0
DWIDTH 7 0
BBX 5 12 1 -3
BITMAP
F8
10
20
40
C0
80
80
C0
78
08
08
08
ENDCHAR
STARTCHAR 03B7
ENCODING 951
SWIDTH 525 0
DWIDTH 7 0
BBX 5 10 1 -3
BITMAP
B0
C8
88
88
88
88
88
08
08
08
ENDCHAR
STARTCHAR 03B8
ENCODING 952
SWIDTH 525 0
DWIDTH 7 0
BBX 6 9 1 0
BITMAP
78
88
8C
84
FC
8C
88
88
70
ENDCHAR
STARTCHAR 03B9
ENCODING 953
SWIDTH 525 0
DWIDTH 7 0
BBX 5 7 1 0
BITMAP
E0
20
20
20
20
20
18
ENDCHAR
STARTCHAR 03BA
ENCODING 954
SWIDTH 525 0
DWIDTH 7 0
BBX 6 7 1 0
BITMAP
8C
98
B0
E0
B0
98
88
ENDCHAR
STARTCHAR 03BB
ENCODING 955
SWIDTH 525 0
DWIDTH 7 0
BBX 6 9 1 0
BITMAP
E0
20
20
30
50
50
C8
88
8C
ENDCHAR
STARTCHAR 03BC
ENCODING 956
SWIDTH 525 0
DWIDTH 7 0
BBX 6 10 1 -3
BITMAP
88
88
88
88
88
88
FC
80
80
80
ENDCHAR
STARTCHAR 03BD
ENCODING 957
SWIDTH 525 0
DWIDTH 7 0
BBX 7 7 0 0
BITMAP
C6
44
44
24
28
38
10
ENDCHAR
STARTCHAR 03BE
ENCODING 958
SWIDTH 525 0
DWIDTH 7 0
BBX 5 12 1 -3
BITMAP
F8
40
C0
40
78
80
80
C0
78
08
08
08
ENDCHAR
STARTCHAR 03BF
ENCODING 959
SWIDTH 525 0
DWIDTH 7 0
BBX 6 7 1 0
BITMAP
30
C8
8C
84
84
88
78
ENDCHAR
STARTCHAR 03C0
ENCODING 960
SWIDTH 525 0
DWIDTH 7 0
BBX 7 7 0 0
BITMAP
FE
24
24
64
44
44
46
ENDCHAR
STARTCHAR 03C1
ENCODING 961
SWIDTH 525 0
DWIDTH 7 0
BBX 6 10 1 -3
BITMAP
30
48
8C
8C
8C
88
F0
80
80
80
ENDCHAR
STARTCHAR 03C2
ENCODING 962
SWIDTH 525 0
DWIDTH 7 0
BBX 5 10 1 -3
BITMAP
38
48
80
80
80
C0
78
08
08
08
ENDCHAR
STARTCHAR 03C3
ENCODING 963
SWIDTH 525 0
DWIDTH 7 0
BBX 6 7 1 0
BITMAP
3C
C8
88
88
88
88
70
ENDCHAR
STARTCHAR 03C4
ENCODING 964
SWIDTH 525 0
DWIDTH 7 0
BBX 6 7 0 0
BITMAP
FC
20
20
20
20
30
1C
ENDCHAR
STARTCHAR 03C5
ENCODING 965
SWIDTH 525 0
DWIDTH 7 0
BBX 5 7 1 0
BITMAP
88
88
88
88
88
88
70
ENDCHAR
STARTCHAR 03C6
ENCODING 966
SWIDTH 525 0
DWIDTH 7 0
BBX 7 12 0 -3
BITMAP
10
10
38
54
D2
92
92
56
7C
10
10
10
ENDCHAR
STARTCHAR 03C7
ENCODING 967
SWIDTH 525 0
DWIDTH 7 0
BBX 7 10 0 -3
BITMAP
46
24
2C
38
18
18
28
28
44
C6
ENDCHAR
STARTCHAR 03C8
ENCODING 968
SWIDTH 525 0
DWIDTH 7 0
BBX 6 12 1 -3
BITMAP
20
20
A4
A4
A4
A4
A4
A8
F8
20
20
20
ENDCHAR
STARTCHAR 03C9
ENCODING 969
SWIDTH 525 0
DWIDTH 7 0
BBX 7 7 0 0
BITMAP
44
42
92
92
92
D2
6C
ENDCHAR
STARTCHAR 03CA
ENCODING 970
SWIDTH 525 0
DWIDTH 7 0
BBX 5 9 1 0
BITMAP
58
00
E0
20
20
20
20
20
18
ENDCHAR
STARTCHAR 03CB
ENCODING 971
SWIDTH 525 0
DWIDTH 7 0
BBX 5 9 1 0
BITMAP
58
00
88
88
88
88
88
88
70
ENDCHAR
STARTCHAR 03CC
ENCODING 972
SWIDTH 525 0
DWIDTH 7 0
BBX 6 9 1 0
BITMAP
30
00
30
C8
8C
84
84
88
78
ENDCHAR
STARTCHAR 03CD
ENCODING 973
SWIDTH 525 0
DWIDTH 7 0
BBX 5 9 1 0
BITMAP
30
00
88
88
88
88
88
88
70
ENDCHAR
STARTCHAR 03CE
ENCODING 974
SWIDTH 525 0
DWIDTH 7 0
BBX 7 9 0 0
BITMAP
18
00
44
42
92
92
92
D2
6C
ENDCHAR
STARTCHAR 03D0
ENCODING 976
SWIDTH 525 0
DWIDTH 7 0
BBX 6 9 1 0
BITMAP
78
C8
88
B0
C8
8C
8C
88
78
ENDCHAR
STARTCHAR 03D1
ENCODING 977
SWIDTH 525 0
DWIDTH 7 0
BBX 7 9 0 0
BITMAP
3C
24
3E
C6
46
44
44
44
38
ENDCHAR
STARTCHAR 03D2
ENCODING 978
SWIDTH 525 0
DWIDTH 7 0
BBX 6 9 1 0
BITMAP
04
CC
50
30
20
20
20
20
20
ENDCHAR
STARTCHAR 03D3
ENCODING 979
SWIDTH 525 0
DWIDTH 7 0
BBX 8 9 -1 0
BITMAP
81
33
14
0C
08
08
08
08
08
ENDCHAR
STARTCHAR 03D4
ENCODING 980
SWIDTH 525 0
DWIDTH 7 0
BBX 6 11 1 0
BITMAP
48
40
04
CC
50
30
20
20
20
20
20
ENDCHAR
STARTCHAR 03D5
ENCODING 981
SWIDTH 525 0
DWIDTH 7 0
BBX 7 9 0 -2
BITMAP
0C
56
52
D2
52
54
7C
10
10
ENDCHAR
STARTCHAR 03D6
ENCODING 982
SWIDTH 525 0
DWIDTH 7 0
BBX 7 7 0 0
BITMAP
FE
44
42
52
52
52
6C
ENDCHAR
STARTCHAR 03D7
ENCODING 983
SWIDTH 525 0
DWIDTH 7 0
BBX 7 10 0 -3
BITMAP
C0
24
2C
3C
74
64
46
02
02
0C
ENDCHAR
STARTCHAR 03D8
ENCODING 984
SWIDTH 525 0
DWIDTH 7 0
BBX 7 9 0 0
BITMAP
18
64
42
C2
C2
46
7C
10
10
ENDCHAR
STARTCHAR 03D9
ENCODING 985
SWIDTH 525 0
DWIDTH 7 0
BBX 6 10 1 -3
BITMAP
30
C8
8C
84
84
88
78
20
20
20
ENDCHAR
STARTCHAR 03DA
ENCODING 986
SWIDTH 525 0
DWIDTH 7 0
BBX 6 11 1 -2
BITMAP
38
C0
80
80
80
80
C0
78
0C
04
08
ENDCHAR
STARTCHAR 03DB
ENCODING 987
SWIDTH 525 0
DWIDTH 7 0
BBX 5 10 1 -3
BITMAP
08
70
C0
80
80
C0
78
08
08
08
ENDCHAR
STARTCHAR 03DC
ENCODING 988
SWIDTH 525 0
DWIDTH 7 0
BBX 5 9 1 0
BITMAP
F8
C0
C0
C0
F8
C8
C0
C0
C0
ENDCHAR
STARTCHAR 03DD
ENCODING 989
SWIDTH 525 0
DWIDTH 7 0
BBX 5 10 1 -3
BITMAP
38
48
C0
C0
F8
C8
C0
C0
C0
C0
ENDCHAR
STARTCHAR 03DE
ENCODING 990
SWIDTH 525 0
DWIDTH 7 0
BBX 6 9 1 0
BITMAP
20
40
40
80
FC
08
08
10
10
ENDCHAR
STARTCHAR 03DF
ENCODING 991
SWIDTH 525 0
DWIDTH 7 0
BBX 5 10 1 -3
BITMAP
20
40
40
C0
F8
08
18
10
10
20
ENDCHAR
STARTCHAR 03E0
ENCODING 992
SWIDTH 525 0
DWIDTH 7 0
BBX 7 9 0 0
BITMAP
20
F8
0C
32
0E
12
02
04
04
ENDCHAR
STARTCHAR 03E1
ENCODING 993
SWIDTH 525 0
DWIDTH 7 0
BBX 7 12 0 -3
BITMAP
20
D8
0C
1C
36
0E
1A
02
06
04
04
08
ENDCHAR
STARTCHAR 03E2
ENCODING 994
SWIDTH 525 0
DWIDTH 7 0
BBX 6 11 1 -2
BITMAP
A4
A4
A4
A4
A4
A4
A4
A4
DC
04
78
ENDCHAR
STARTCHAR 03E3
ENCODING 995
SWIDTH 525 0
DWIDTH 7 0
BBX 6 9 1 -2
BITMAP
A4
A4
A4
A4
A4
AC
F4
04
78
ENDCHAR
STARTCHAR 03E4
ENCODING 996
SWIDTH 525 0
DWIDTH 7 0
BBX 5 9 1 0
BITMAP
08
C8
88
88
88
78
08
08
08
ENDCHAR
STARTCHAR 03E5
ENCODING 997
SWIDTH 525 0
DWIDTH 7 0
BBX 5 10 1 -3
BITMAP
08
C8
88
88
88
F8
08
08
08
08
ENDCHAR
STARTCHAR 03E6
ENCODING 998
SWIDTH 525 0
DWIDTH 7 0
BBX 5 11 1 -2
BITMAP
80
80
80
80
F8
88
88
88
88
08
78
ENDCHAR
STARTCHAR 03E7
ENCODING 999
SWIDTH 525 0
DWIDTH 7 0
BBX 6 7 1 0
BITMAP
6C
D8
78
0C
0C
C8
B8
ENDCHAR
STARTCHAR 03E8
ENCODING 1000
SWIDTH 525 0
DWIDTH 7 0
BBX 5 9 1 0
BITMAP
30
58
C8
18
60
C0
80
80
78
ENDCHAR
STARTCHAR 03E9
ENCODING 1001
SWIDTH 525 0
DWIDTH 7 0
BBX 5 7 1 0
BITMAP
60
50
10
70
C0
80
78
ENDCHAR
STARTCHAR 03EA
ENCODING 1002
SWIDTH 525 0
DWIDTH 7 0
BBX 7 9 0 0
BITMAP
44
28
18
10
38
28
64
44
FE
ENDCHAR
STARTCHAR 03EB
ENCODING 1003
SWIDTH 525 0
DWIDTH 7 0
BBX 6 7 0 0
BITMAP
44
28
10
38
28
44
FC
ENDCHAR
STARTCHAR 03EC
ENCODING 1004
SWIDTH 525 0
DWIDTH 7 0
BBX 7 9 0 0
BITMAP
3E
40
58
64
C2
C2
42
44
38
ENDCHAR
STARTCHAR 03ED
ENCODING 1005
SWIDTH 525 0
DWIDTH 7 0
BBX 6 9 1 0
BITMAP
7C
80
80
F8
8C
84
84
88
78
ENDCHAR
STARTCHAR 03EE
ENCODING 1006
SWIDTH 525 0
DWIDTH 7 0
BBX 6 9 1 0
BITMAP
20
7C
A0
20
20
20
20
20
20
ENDCHAR
STARTCHAR 03EF
ENCODING 1007
SWIDTH 525 0
DWIDTH 7 0
BBX 6 11 1 -3
BITMAP
20
FC
20
20
20
20
20
20
20
20
60
ENDCHAR
STARTCHAR 03F0
ENCODING 1008
SWIDTH 525 0
DWIDTH 7 0
BBX 7 7 0 0
BITMAP
C0
24
2C
3C
74
64
46
ENDCHAR
STARTCHAR 03F1
ENCODING 1009
SWIDTH 525 0
DWIDTH 7 0
BBX 6 9 1 -2
BITMAP
30
48
8C
8C
8C
88
F0
80
F8
ENDCHAR
STARTCHAR 03F2
ENCODING 1010
SWIDTH 525 0
DWIDTH 7 0
BBX 5 7 1 0
BITMAP
38
68
80
80
80
C0
78
ENDCHAR
STARTCHAR 03F3
ENCODING 1011
SWIDTH 525 0
DWIDTH 7 0
BBX 5 12 1 -3
BITMAP
18
00
F0
10
10
10
10
10
10
10
10
E0
ENDCHAR
STARTCHAR 03F4
ENCODING 1012
SWIDTH 525 0
DWIDTH 7 0
BBX 7 9 0 0
BITMAP
18
6C
46
C2
FE
C2
42
44
3C
ENDCHAR
STARTCHAR 03F5
ENCODING 1013
SWIDTH 525 0
DWIDTH 7 0
BBX 5 7 1 0
BITMAP
18
60
80
F8
80
C0
78
ENDCHAR
STARTCHAR 03F6
ENCODING 1014
SWIDTH 525 0
DWIDTH 7 0
BBX 5 7 1 0
BITMAP
E0
18
08
78
08
08
F0
ENDCHAR
STARTCHAR 03F7
ENCODING 1015
SWIDTH 525 0
DWIDTH 7 0
BBX 6 9 1 0
BITMAP
80
80
F8
88
8C
88
F8
80
80
ENDCHAR
STARTCHAR 03F8
ENCODING 1016
SWIDTH 525 0
DWIDTH 7 0
BBX 7 12 0 -3
BITMAP
70
40
58
64
46
46
46
44
78
40
40
80
ENDCHAR
STARTCHAR 03F9
ENCODING 1017
SWIDTH 525 0
DWIDTH 7 0
BBX 5 9 1 0
BITMAP
38
68
80
80
80
80
80
C0
78
ENDCHAR
STARTCHAR 03FA
ENCODING 1018
SWIDTH 525 0
DWIDTH 7 0
BBX 6 9 1 0
BITMAP
8C
CC
D4
B4
84
84
84
84
84
ENDCHAR
STARTCHAR 03FB
ENCODING 1019
SWIDTH 525 0
DWIDTH 7 0
BBX 5 10 1 -3
BITMAP
88
D8
D8
A8
88
88
88
80
80
80
ENDCHAR
STARTCHAR 03FC
ENCODING 1020
SWIDTH 525 0
DWIDTH 7 0
BBX 7 10 0 -3
BITMAP
18
24
46
46
46
44
78
40
F0
40
ENDCHAR
STARTCHAR 03FD
ENCODING 1021
SWIDTH 525 0
DWIDTH 7 0
BBX 6 9 1 0
BITMAP
60
98
08
0C
0C
0C
0C
08
F0
ENDCHAR
STARTCHAR 03FE
ENCODING 1022
SWIDTH 525 0
DWIDTH 7 0
BBX 5 9 1 0
BITMAP
38
68
80
80
B8
90
80
C0
78
ENDCHAR
STARTCHAR 03FF
ENCODING 1023
SWIDTH 525 0
DWIDTH 7 0
BBX 6 9 1 0
BITMAP
60
98
08
0C
6C
4C
0C
08
F0
ENDCHAR
STARTCHAR 0400
ENCODING 1024
SWIDTH 525 0
DWIDTH 7 0
BBX 5 11 1 0
BITMAP
40
20
F8
80
80
80
F8
80
80
80
F8
ENDCHAR
STARTCHAR 0401
ENCODING 1025
SWIDTH 525 0
DWIDTH 7 0
BBX 5 11 1 0
BITMAP
48
40
F8
80
80
80
F8
80
80
80
F8
ENDCHAR
STARTCHAR 0402
ENCODING 1026
SWIDTH 525 0
DWIDTH 7 0
BBX 7 9 0 0
BITMAP
F8
20
20
30
2E
22
22
26
2C
ENDCHAR
STARTCHAR 0403
ENCODING 1027
SWIDTH 525 0
DWIDTH 7 0
BBX 4 11 2 0
BITMAP
30
40
F0
F0
80
80
80
80
80
80
80
ENDCHAR
STARTCHAR 0404
ENCODING 1028
SWIDTH 525 0
DWIDTH 7 0
BBX 5 9 1 0
BITMAP
38
40
80
80
F8
80
80
C0
78
ENDCHAR
STARTCHAR 0405
ENCODING 1029
SWIDTH 525 0
DWIDTH 7 0
BBX 5 9 1 0
BITMAP
30
C8
80
C0
70
18
08
08
F8
ENDCHAR
STARTCHAR 0406
ENCODING 1030
SWIDTH 525 0
DWIDTH 7 0
BBX 5 9 1 0
BITMAP
F8
20
20
20
20
20
20
20
F8
ENDCHAR
STARTCHAR 0407
ENCODING 1031
SWIDTH 525 0
DWIDTH 7 0
BBX 5 11 1 0
BITMAP
48
40
F8
20
20
20
20
20
20
20
F8
ENDCHAR
STARTCHAR 0408
ENCODING 1032
SWIDTH 525 0
DWIDTH 7 0
BBX 5 9 1 0
BITMAP
F8
F8
08
08
08
08
08
18
F0
ENDCHAR
STARTCHAR 0409
ENCODING 1033
SWIDTH 525 0
DWIDTH 7 0
BBX 7 9 0 0
BITMAP
70
50
50
50
5E
52
52
52
9E
ENDCHAR
STARTCHAR 040A
ENCODING 1034
SWIDTH 525 0
DWIDTH 7 0
BBX 6 9 1 0
BITMAP
A0
A0
A0
A0
FC
A4
A4
A4
BC
ENDCHAR
STARTCHAR 040B
ENCODING 1035
SWIDTH 525 0
DWIDTH 7 0
BBX 7 9 0 0
BITMAP
F8
20
20
30
2E
22
22
22
22
ENDCHAR
STARTCHAR 040C
ENCODING 1036
SWIDTH 525 0
DWIDTH 7 0
BBX 6 11 1 0
BITMAP
18
20
8C
88
90
A0
C0
A0
B0
98
88
ENDCHAR
STARTCHAR 040D
ENCODING 1037
SWIDTH 525 0
DWIDTH 7 0
BBX 6 11 1 0
BITMAP
40
20
8C
8C
9C
9C
AC
AC
CC
CC
8C
ENDCHAR
STARTCHAR 040E
ENCODING 1038
SWIDTH 525 0
DWIDTH 7 0
BBX 7 11 0 0
BITMAP
24
38
C2
46
64
24
38
18
18
10
60
ENDCHAR
STARTCHAR 040F
ENCODING 1039
SWIDTH 525 0
DWIDTH 7 0
BBX 6 11 1 -2
BITMAP
8C
8C
8C
8C
8C
8C
8C
8C
FC
20
20
ENDCHAR
STARTCHAR 0410
ENCODING 1040
SWIDTH 525 0
DWIDTH 7 0
BBX 7 9 0 0
BITMAP
10
18
28
28
24
44
7C
42
82
ENDCHAR
STARTCHAR 0411
ENCODING 1041
SWIDTH 525 0
DWIDTH 7 0
BBX 6 9 1 0
BITMAP
F8
80
80
80
F8
8C
84
88
F8
ENDCHAR
STARTCHAR 0412
ENCODING 1042
SWIDTH 525 0
DWIDTH 7 0
BBX 6 9 1 0
BITMAP
E0
98
88
88
F0
88
8C
88
F0
ENDCHAR
STARTCHAR 0413
ENCODING 1043
SWIDTH 525 0
DWIDTH 7 0
BBX 4 9 2 0
BITMAP
F0
F0
80
80
80
80
80
80
80
ENDCHAR
STARTCHAR 0414
ENCODING 1044
SWIDTH 525 0
DWIDTH 7 0
BBX 7 11 0 -2
BITMAP
3C
3C
24
24
24
24
64
44
FE
82
82
ENDCHAR
STARTCHAR 0415
ENCODING 1045
SWIDTH 525 0
DWIDTH 7 0
BBX 5 9 1 0
BITMAP
F8
80
80
80
F8
80
80
80
F8
ENDCHAR
STARTCHAR 0416
ENCODING 1046
SWIDTH 525 0
DWIDTH 7 0
BBX 7 9 0 0
BITMAP
92
52
54
74
38
34
54
52
92
ENDCHAR
STARTCHAR 0417
ENCODING 1047
SWIDTH 525 0
DWIDTH 7 0
BBX 5 9 1 0
BITMAP
60
98
08
08
F0
08
08
08
F0
ENDCHAR
STARTCHAR 0418
ENCODING 1048
SWIDTH 525 0
DWIDTH 7 0
BBX 6 9 1 0
BITMAP
8C
8C
9C
9C
AC
AC
CC
CC
8C
ENDCHAR
STARTCHAR 0419
ENCODING 1049
SWIDTH 525 0
DWIDTH 7 0
BBX 6 11 1 0
BITMAP
48
70
8C
8C
9C
9C
AC
AC
CC
CC
8C
ENDCHAR
STARTCHAR 041A
ENCODING 1050
SWIDTH 525 0
DWIDTH 7 0
BBX 6 9 1 0
BITMAP
8C
88
90
A0
C0
A0
B0
98
88
ENDCHAR
STARTCHAR 041B
ENCODING 1051
SWIDTH 525 0
DWIDTH 7 0
BBX 6 9 0 0
BITMAP
3C
3C
24
24
24
24
24
44
C4
ENDCHAR
STARTCHAR 041C
ENCODING 1052
SWIDTH 525 0
DWIDTH 7 0
BBX 7 9 0 0
BITMAP
46
46
6A
6A
5A
D2
82
82
82
ENDCHAR
STARTCHAR 041D
ENCODING 1053
SWIDTH 525 0
DWIDTH 7 0
BBX 6 9 1 0
BITMAP
8C
8C
8C
8C
FC
8C
8C
8C
8C
ENDCHAR
STARTCHAR 041E
ENCODING 1054
SWIDTH 525 0
DWIDTH 7 0
BBX 7 9 0 0
BITMAP
18
6C
46
C2
C2
C2
42
44
3C
ENDCHAR
STARTCHAR 041F
ENCODING 1055
SWIDTH 525 0
DWIDTH 7 0
BBX 6 9 1 0
BITMAP
FC
FC
8C
8C
8C
8C
8C
8C
8C
ENDCHAR
STARTCHAR 0420
ENCODING 1056
SWIDTH 525 0
DWIDTH 7 0
BBX 6 9 1 0
BITMAP
C0
B8
8C
8C
88
F0
80
80
80
ENDCHAR
STARTCHAR 0421
ENCODING 1057
SWIDTH 525 0
DWIDTH 7 0
BBX 5 9 1 0
BITMAP
38
68
80
80
80
80
80
C0
78
ENDCHAR
STARTCHAR 0422
ENCODING 1058
SWIDTH 525 0
DWIDTH 7 0
BBX 6 9 1 0
BITMAP
FC
20
20
20
20
20
20
20
20
ENDCHAR
STARTCHAR 0423
ENCODING 1059
SWIDTH 525 0
DWIDTH 7 0
BBX 7 9 0 0
BITMAP
C2
46
64
24
38
18
18
10
60
ENDCHAR
STARTCHAR 0424
ENCODING 1060
SWIDTH 525 0
DWIDTH 7 0
BBX 7 9 0 0
BITMAP
10
38
56
D2
92
92
52
7C
10
ENDCHAR
STARTCHAR 0425
ENCODING 1061
SWIDTH 525 0
DWIDTH 7 0
BBX 7 9 0 0
BITMAP
C2
44
2C
38
10
38
2C
44
C6
ENDCHAR
STARTCHAR 0426
ENCODING 1062
SWIDTH 525 0
DWIDTH 7 0
BBX 6 11 1 -2
BITMAP
88
88
88
88
88
88
88
88
FC
04
04
ENDCHAR
STARTCHAR 0427
ENCODING 1063
SWIDTH 525 0
DWIDTH 7 0
BBX 6 9 1 0
BITMAP
8C
8C
8C
8C
CC
3C
0C
0C
0C
ENDCHAR
STARTCHAR 0428
ENCODING 1064
SWIDTH 525 0
DWIDTH 7 0
BBX 6 9 1 0
BITMAP
A4
A4
A4
A4
A4
A4
A4
A4
FC
ENDCHAR
STARTCHAR 0429
ENCODING 1065
SWIDTH 525 0
DWIDTH 7 0
BBX 7 11 0 -2
BITMAP
D2
D2
D2
D2
D2
D2
D2
D2
FE
02
02
ENDCHAR
STARTCHAR 042A
ENCODING 1066
SWIDTH 525 0
DWIDTH 7 0
BBX 7 9 0 0
BITMAP
E0
20
20
20
3C
26
22
26
3C
ENDCHAR
STARTCHAR 042B
ENCODING 1067
SWIDTH 525 0
DWIDTH 7 0
BBX 6 9 1 0
BITMAP
84
84
84
84
E4
94
94
94
E4
ENDCHAR
STARTCHAR 042C
ENCODING 1068
SWIDTH 525 0
DWIDTH 7 0
BBX 6 9 1 0
BITMAP
80
80
80
80
F8
8C
8C
88
F8
ENDCHAR
STARTCHAR 042D
ENCODING 1069
SWIDTH 525 0
DWIDTH 7 0
BBX 6 9 1 0
BITMAP
60
98
08
0C
FC
04
0C
08
F0
ENDCHAR
STARTCHAR 042E
ENCODING 1070
SWIDTH 525 0
DWIDTH 7 0
BBX 6 9 1 0
BITMAP
98
AC
A4
A4
E4
A4
A4
A4
B8
ENDCHAR
STARTCHAR 042F
ENCODING 1071
SWIDTH 525 0
DWIDTH 7 0
BBX 5 9 1 0
BITMAP
18
68
88
88
68
78
48
88
88
ENDCHAR
STARTCHAR 0430
ENCODING 1072
SWIDTH 525 0
DWIDTH 7 0
BBX 5 7 1 0
BITMAP
70
88
08
78
88
88
F8
ENDCHAR
STARTCHAR 0431
ENCODING 1073
SWIDTH 525 0
DWIDTH 7 0
BBX 6 9 1 0
BITMAP
78
40
80
F8
8C
84
84
88
78
ENDCHAR
STARTCHAR 0432
ENCODING 1074
SWIDTH 525 0
DWIDTH 7 0
BBX 6 7 1 0
BITMAP
F0
88
88
F0
8C
8C
F8
ENDCHAR
STARTCHAR 0433
ENCODING 1075
SWIDTH 525 0
DWIDTH 7 0
BBX 4 7 2 0
BITMAP
F0
80
80
80
80
80
80
ENDCHAR
STARTCHAR 0434
ENCODING 1076
SWIDTH 525 0
DWIDTH 7 0
BBX 7 9 0 -2
BITMAP
3C
24
24
24
24
44
FE
82
82
ENDCHAR
STARTCHAR 0435
ENCODING 1077
SWIDTH 525 0
DWIDTH 7 0
BBX 6 7 1 0
BITMAP
30
C8
88
FC
80
80
78
ENDCHAR
STARTCHAR 0436
ENCODING 1078
SWIDTH 525 0
DWIDTH 7 0
BBX 7 7 0 0
BITMAP
92
52
54
38
34
54
D2
ENDCHAR
STARTCHAR 0437
ENCODING 1079
SWIDTH 525 0
DWIDTH 7 0
BBX 5 7 1 0
BITMAP
70
98
08
70
08
08
F8
ENDCHAR
STARTCHAR 0438
ENCODING 1080
SWIDTH 525 0
DWIDTH 7 0
BBX 5 7 1 0
BITMAP
88
98
98
A8
A8
C8
C8
ENDCHAR
STARTCHAR 0439
ENCODING 1081
SWIDTH 525 0
DWIDTH 7 0
BBX 5 9 1 0
BITMAP
58
20
88
98
98
A8
A8
C8
C8
ENDCHAR
STARTCHAR 043A
ENCODING 1082
SWIDTH 525 0
DWIDTH 7 0
BBX 6 7 1 0
BITMAP
8C
98
B0
E0
B0
98
88
ENDCHAR
STARTCHAR 043B
ENCODING 1083
SWIDTH 525 0
DWIDTH 7 0
BBX 6 7 0 0
BITMAP
3C
24
24
24
24
64
C4
ENDCHAR
STARTCHAR 043C
ENCODING 1084
SWIDTH 525 0
DWIDTH 7 0
BBX 7 7 0 0
BITMAP
46
66
6A
6A
D2
82
82
ENDCHAR
STARTCHAR 043D
ENCODING 1085
SWIDTH 525 0
DWIDTH 7 0
BBX 5 7 1 0
BITMAP
88
88
88
F8
88
88
88
ENDCHAR
STARTCHAR 043E
ENCODING 1086
SWIDTH 525 0
DWIDTH 7 0
BBX 6 7 1 0
BITMAP
30
C8
8C
84
84
88
78
ENDCHAR
STARTCHAR 043F
ENCODING 1087
SWIDTH 525 0
DWIDTH 7 0
BBX 5 7 1 0
BITMAP
F8
88
88
88
88
88
88
ENDCHAR
STARTCHAR 0440
ENCODING 1088
SWIDTH 525 0
DWIDTH 7 0
BBX 6 10 1 -3
BITMAP
B0
C8
8C
8C
8C
88
F0
80
80
80
ENDCHAR
STARTCHAR 0441
ENCODING 1089
SWIDTH 525 0
DWIDTH 7 0
BBX 5 7 1 0
BITMAP
38
68
80
80
80
C0
78
ENDCHAR
STARTCHAR 0442
ENCODING 1090
SWIDTH 525 0
DWIDTH 7 0
BBX 6 7 1 0
BITMAP
FC
20
20
20
20
20
20
ENDCHAR
STARTCHAR 0443
ENCODING 1091
SWIDTH 525 0
DWIDTH 7 0
BBX 7 10 0 -3
BITMAP
C2
44
44
24
28
38
18
10
20
C0
ENDCHAR
STARTCHAR 0444
ENCODING 1092
SWIDTH 525 0
DWIDTH 7 0
BBX 7 12 0 -3
BITMAP
10
10
38
56
D2
92
92
56
7C
10
10
10
ENDCHAR
STARTCHAR 0445
ENCODING 1093
SWIDTH 525 0
DWIDTH 7 0
BBX 6 7 1 0
BITMAP
8C
C8
50
30
70
58
8C
ENDCHAR
STARTCHAR 0446
ENCODING 1094
SWIDTH 525 0
DWIDTH 7 0
BBX 6 9 1 -2
BITMAP
88
88
88
88
88
88
FC
04
04
ENDCHAR
STARTCHAR 0447
ENCODING 1095
SWIDTH 525 0
DWIDTH 7 0
BBX 5 7 1 0
BITMAP
88
88
88
F8
08
08
08
ENDCHAR
STARTCHAR 0448
ENCODING 1096
SWIDTH 525 0
DWIDTH 7 0
BBX 6 7 1 0
BITMAP
A4
A4
A4
A4
A4
A4
FC
ENDCHAR
STARTCHAR 0449
ENCODING 1097
SWIDTH 525 0
DWIDTH 7 0
BBX 7 9 0 -2
BITMAP
D2
D2
D2
D2
D2
D2
FE
02
02
ENDCHAR
STARTCHAR 044A
ENCODING 1098
SWIDTH 525 0
DWIDTH 7 0
BBX 7 7 0 0
BITMAP
E0
20
20
3C
22
26
3C
ENDCHAR
STARTCHAR 044B
ENCODING 1099
SWIDTH 525 0
DWIDTH 7 0
BBX 6 7 1 0
BITMAP
84
84
84
E4
94
94
E4
ENDCHAR
STARTCHAR 044C
ENCODING 1100
SWIDTH 525 0
DWIDTH 7 0
BBX 6 7 1 0
BITMAP
80
80
80
F8
8C
8C
F8
ENDCHAR
STARTCHAR 044D
ENCODING 1101
SWIDTH 525 0
DWIDTH 7 0
BBX 5 7 1 0
BITMAP
60
98
08
F8
08
08
F0
ENDCHAR
STARTCHAR 044E
ENCODING 1102
SWIDTH 525 0
DWIDTH 7 0
BBX 6 7 1 0
BITMAP
98
A4
A4
E4
A4
A4
B8
ENDCHAR
STARTCHAR 044F
ENCODING 1103
SWIDTH 525 0
DWIDTH 7 0
BBX 5 7 1 0
BITMAP
38
C8
88
48
78
C8
88
ENDCHAR
STARTCHAR 0450
ENCODING 1104
SWIDTH 525 0
DWIDTH 7 0
BBX 6 9 1 0
BITMAP
40
20
30
C8
88
FC
80
80
78
ENDCHAR
STARTCHAR 0451
ENCODING 1105
SWIDTH 525 0
DWIDTH 7 0
BBX 6 9 1 0
BITMAP
58
00
30
C8
88
FC
80
80
78
ENDCHAR
STARTCHAR 0452
ENCODING 1106
SWIDTH 525 0
DWIDTH 7 0
BBX 6 12 0 -3
BITMAP
40
F0
40
7C
64
44
44
44
44
04
04
08
ENDCHAR
STARTCHAR 0453
ENCODING 1107
SWIDTH 525 0
DWIDTH 7 0
BBX 4 9 2 0
BITMAP
30
40
F0
80
80
80
80
80
80
ENDCHAR
STARTCHAR 0454
ENCODING 1108
SWIDTH 525 0
DWIDTH 7 0
BBX 6 7 1 0
BITMAP
38
44
80
F8
80
C0
7C
ENDCHAR
STARTCHAR 0455
ENCODING 1109
SWIDTH 525 0
DWIDTH 7 0
BBX 5 7 1 0
BITMAP
38
C0
C0
70
18
08
F8
ENDCHAR
STARTCHAR 0456
ENCODING 1110
SWIDTH 525 0
DWIDTH 7 0
BBX 5 9 1 0
BITMAP
30
20
E0
20
20
20
20
20
F8
ENDCHAR
STARTCHAR 0457
ENCODING 1111
SWIDTH 525 0
DWIDTH 7 0
BBX 5 9 1 0
BITMAP
58
00
E0
20
20
20
20
20
F8
ENDCHAR
STARTCHAR 0458
ENCODING 1112
SWIDTH 525 0
DWIDTH 7 0
BBX 5 12 1 -3
BITMAP
18
00
F0
10
10
10
10
10
10
10
10
E0
ENDCHAR
STARTCHAR 0459
ENCODING 1113
SWIDTH 525 0
DWIDTH 7 0
BBX 7 7 0 0
BITMAP
70
50
50
5E
52
52
DE
ENDCHAR
STARTCHAR 045A
ENCODING 1114
SWIDTH 525 0
DWIDTH 7 0
BBX 6 7 1 0
BITMAP
A0
A0
A0
FC
A4
A4
BC
ENDCHAR
STARTCHAR 045B
ENCODING 1115
SWIDTH 525 0
DWIDTH 7 0
BBX 6 9 0 0
BITMAP
40
F0
40
7C
64
44
44
44
44
ENDCHAR
STARTCHAR 045C
ENCODING 1116
SWIDTH 525 0
DWIDTH 7 0
BBX 6 9 1 0
BITMAP
18
20
8C
98
B0
E0
B0
98
88
ENDCHAR
STARTCHAR 045D
ENCODING 1117
SWIDTH 525 0
DWIDTH 7 0
BBX 5 9 1 0
BITMAP
40
20
88
98
98
A8
A8
C8
C8
ENDCHAR
STARTCHAR 045E
ENCODING 1118
SWIDTH 525 0
DWIDTH 7 0
BBX 7 12 0 -3
BITMAP
2C
10
C2
44
44
24
28
38
18
10
20
C0
ENDCHAR
STARTCHAR 045F
ENCODING 1119
SWIDTH 525 0
DWIDTH 7 0
BBX 5 9 1 -2
BITMAP
88
88
88
88
88
88
F8
20
20
ENDCHAR
STARTCHAR 0460
ENCODING 1120
SWIDTH 525 0
DWIDTH 7 0
BBX 7 9 0 0
BITMAP
28
44
42
42
C2
D2
52
56
7C
ENDCHAR
STARTCHAR 0461
ENCODING 1121
SWIDTH 525 0
DWIDTH 7 0
BBX 6 7 1 0
BITMAP
A4
A4
A4
B4
B8
D8
58
ENDCHAR
STARTCHAR 0462
ENCODING 1122
SWIDTH 525 0
DWIDTH 7 0
BBX 7 9 0 0
BITMAP
F8
20
20
20
3C
22
22
26
3C
ENDCHAR
STARTCHAR 0463
ENCODING 1123
SWIDTH 525 0
DWIDTH 7 0
BBX 7 9 0 0
BITMAP
20
60
FC
60
60
7C
66
66
7C
ENDCHAR
STARTCHAR 0464
ENCODING 1124
SWIDTH 525 0
DWIDTH 7 0
BBX 6 9 1 0
BITMAP
8C
B4
A0
A0
F8
A0
A0
A0
9C
ENDCHAR
STARTCHAR 0465
ENCODING 1125
SWIDTH 525 0
DWIDTH 7 0
BBX 6 7 1 0
BITMAP
8C
B0
A0
F8
A0
A0
9C
ENDCHAR
STARTCHAR 0466
ENCODING 1126
SWIDTH 525 0
DWIDTH 7 0
BBX 7 9 0 0
BITMAP
10
18
28
28
3C
54
54
52
92
ENDCHAR
STARTCHAR 0467
ENCODING 1127
SWIDTH 525 0
DWIDTH 7 0
BBX 7 7 0 0
BITMAP
10
18
28
3C
54
54
D2
ENDCHAR
STARTCHAR 0468
ENCODING 1128
SWIDTH 525 0
DWIDTH 7 0
BBX 6 9 1 0
BITMAP
90
98
A8
A8
F8
B8
B4
D4
D4
ENDCHAR
STARTCHAR 0469
ENCODING 1129
SWIDTH 525 0
DWIDTH 7 0
BBX 7 7 0 0
BITMAP
88
98
94
FC
9C
AA
AA
ENDCHAR
STARTCHAR 046A
ENCODING 1130
SWIDTH 525 0
DWIDTH 7 0
BBX 7 9 0 0
BITMAP
FE
44
24
28
38
3C
54
56
92
ENDCHAR
STARTCHAR 046B
ENCODING 1131
SWIDTH 525 0
DWIDTH 7 0
BBX 7 7 0 0
BITMAP
7E
44
28
38
34
54
D2
ENDCHAR
STARTCHAR 046C
ENCODING 1132
SWIDTH 525 0
DWIDTH 7 0
BBX 7 9 0 0
BITMAP
FE
D2
D4
D4
F8
DC
DC
DA
EA
ENDCHAR
STARTCHAR 046D
ENCODING 1133
SWIDTH 525 0
DWIDTH 7 0
BBX 7 7 0 0
BITMAP
BE
94
94
F4
9C
9C
AA
ENDCHAR
STARTCHAR 046E
ENCODING 1134
SWIDTH 525 0
DWIDTH 7 0
BBX 7 12 0 -2
BITMAP
28
38
4C
04
04
78
04
06
04
78
C0
7C
ENDCHAR
STARTCHAR 046F
ENCODING 1135
SWIDTH 525 0
DWIDTH 7 0
BBX 5 10 1 -2
BITMAP
50
70
98
08
70
08
08
78
80
F8
ENDCHAR
STARTCHAR 0470
ENCODING 1136
SWIDTH 525 0
DWIDTH 7 0
BBX 7 9 0 0
BITMAP
D2
D2
D2
D2
D2
7C
10
10
10
ENDCHAR
STARTCHAR 0471
ENCODING 1137
SWIDTH 525 0
DWIDTH 7 0
BBX 6 12 1 -3
BITMAP
20
20
A4
A4
A4
A4
A4
A8
F8
20
20
20
ENDCHAR
STARTCHAR 0472
ENCODING 1138
SWIDTH 525 0
DWIDTH 7 0
BBX 7 9 0 0
BITMAP
18
6C
46
C2
FE
C2
42
44
3C
ENDCHAR
STARTCHAR 0473
ENCODING 1139
SWIDTH 525 0
DWIDTH 7 0
BBX 6 7 1 0
BITMAP
30
C8
8C
FC
8C
88
78
ENDCHAR
STARTCHAR 0474
ENCODING 1140
SWIDTH 525 0
DWIDTH 7 0
BBX 7 9 0 0
BITMAP
82
C6
44
44
6C
28
28
28
18
ENDCHAR
STARTCHAR 0475
ENCODING 1141
SWIDTH 525 0
DWIDTH 7 0
BBX 7 7 0 0
BITMAP
C2
46
44
2C
28
38
18
ENDCHAR
STARTCHAR 0476
ENCODING 1142
SWIDTH 525 0
DWIDTH 7 0
BBX 7 11 0 0
BITMAP
58
24
82
C6
44
44
6C
28
28
28
18
ENDCHAR
STARTCHAR 0477
ENCODING 1143
SWIDTH 525 0
DWIDTH 7 0
BBX 7 9 0 0
BITMAP
48
20
C2
46
44
2C
28
38
18
ENDCHAR
STARTCHAR 0478
ENCODING 1144
SWIDTH 525 0
DWIDTH 7 0
BBX 7 12 0 -3
BITMAP
60
60
9A
9A
9A
9A
94
54
64
04
04
08
ENDCHAR
STARTCHAR 0479
ENCODING 1145
SWIDTH 525 0
DWIDTH 7 0
BBX 6 10 1 -3
BITMAP
54
B4
B4
B4
A8
A8
C8
08
08
10
ENDCHAR
STARTCHAR 047A
ENCODING 1146
SWIDTH 525 0
DWIDTH 7 0
BBX 7 10 0 -1
BITMAP
18
7C
46
C2
C2
C2
42
54
3C
10
ENDCHAR
STARTCHAR 047B
ENCODING 1147
SWIDTH 525 0
DWIDTH 7 0
BBX 6 8 1 -1
BITMAP
30
F8
8C
84
84
88
78
20
ENDCHAR
STARTCHAR 047C
ENCODING 1148
SWIDTH 525 0
DWIDTH 7 0
BBX 7 12 0 0
BITMAP
3C
10
10
28
44
42
42
C2
C2
42
56
7C
ENDCHAR
STARTCHAR 047D
ENCODING 1149
SWIDTH 525 0
DWIDTH 7 0
BBX 6 10 1 0
BITMAP
78
20
20
10
D8
84
84
84
AC
D8
ENDCHAR
STARTCHAR 047E
ENCODING 1150
SWIDTH 525 0
DWIDTH 7 0
BBX 7 10 0 0
BITMAP
7C
28
44
42
42
C2
D2
52
56
7C
ENDCHAR
STARTCHAR 047F
ENCODING 1151
SWIDTH 525 0
DWIDTH 7 0
BBX 6 8 1 0
BITMAP
F8
A4
A4
A4
B4
B8
D8
58
ENDCHAR
STARTCHAR 0480
ENCODING 1152
SWIDTH 525 0
DWIDTH 7 0
BBX 5 12 1 -3
BITMAP
38
68
80
80
80
80
80
C0
70
10
10
10
ENDCHAR
STARTCHAR 0481
ENCODING 1153
SWIDTH 525 0
DWIDTH 7 0
BBX 5 10 1 -3
BITMAP
38
68
80
80
80
C0
70
10
10
10
ENDCHAR
STARTCHAR 0482
ENCODING 1154
SWIDTH 525 0
DWIDTH 7 0
BBX 7 8 0 1
BITMAP
24
38
0E
12
D0
30
28
40
ENDCHAR
STARTCHAR 0483
ENCODING 1155
SWIDTH 525 0
DWIDTH 7 0
BBX 5 2 1 7
BITMAP
78
C0
ENDCHAR
STARTCHAR 0484
ENCODING 1156
SWIDTH 525 0
DWIDTH 7 0
BBX 5 2 1 7
BITMAP
38
C8
ENDCHAR
STARTCHAR 0485
ENCODING 1157
SWIDTH 525 0
DWIDTH 7 0
BBX 1 2 3 6
BITMAP
80
80
ENDCHAR
STARTCHAR 0486
ENCODING 1158
SWIDTH 525 0
DWIDTH 7 0
BBX 1 2 3 6
BITMAP
80
80
ENDCHAR
STARTCHAR 0488
ENCODING 1160
SWIDTH 525 0
DWIDTH 7 0
BBX 7 7 0 -1
BITMAP
18
44
00
C6
00
EE
10
ENDCHAR
STARTCHAR 0489
ENCODING 1161
SWIDTH 525 0
DWIDTH 7 0
BBX 7 8 0 -1
BITMAP
10
54
20
C6
00
64
14
10
ENDCHAR
STARTCHAR 048A
ENCODING 1162
SWIDTH 525 0
DWIDTH 7 0
BBX 6 13 1 -2
BITMAP
48
70
88
88
98
98
A8
A8
C8
C8
8C
04
08
ENDCHAR
STARTCHAR 048B
ENCODING 1163
SWIDTH 525 0
DWIDTH 7 0
BBX 6 11 1 -2
BITMAP
58
20
88
98
98
A8
A8
C8
CC
04
08
ENDCHAR
STARTCHAR 048C
ENCODING 1164
SWIDTH 525 0
DWIDTH 7 0
BBX 7 9 0 0
BITMAP
40
F0
40
40
7C
46
46
44
7C
ENDCHAR
STARTCHAR 048D
ENCODING 1165
SWIDTH 525 0
DWIDTH 7 0
BBX 7 9 0 0
BITMAP
60
F8
60
60
60
7C
66
66
7C
ENDCHAR
STARTCHAR 048E
ENCODING 1166
SWIDTH 525 0
DWIDTH 7 0
BBX 6 9 1 0
BITMAP
C0
B8
8C
8C
98
F0
80
80
80
ENDCHAR
STARTCHAR 048F
ENCODING 1167
SWIDTH 525 0
DWIDTH 7 0
BBX 6 10 1 -3
BITMAP
B0
C8
8C
8C
8C
98
F8
88
80
80
ENDCHAR
STARTCHAR 0490
ENCODING 1168
SWIDTH 525 0
DWIDTH 7 0
BBX 4 10 2 0
BITMAP
10
F0
F0
80
80
80
80
80
80
80
ENDCHAR
STARTCHAR 0491
ENCODING 1169
SWIDTH 525 0
DWIDTH 7 0
BBX 4 8 2 0
BITMAP
10
F0
80
80
80
80
80
80
ENDCHAR
STARTCHAR 0492
ENCODING 1170
SWIDTH 525 0
DWIDTH 7 0
BBX 6 9 0 0
BITMAP
3C
3C
20
20
F8
20
20
20
20
ENDCHAR
STARTCHAR 0493
ENCODING 1171
SWIDTH 525 0
DWIDTH 7 0
BBX 6 7 0 0
BITMAP
3C
20
20
F8
20
20
20
ENDCHAR
STARTCHAR 0494
ENCODING 1172
SWIDTH 525 0
DWIDTH 7 0
BBX 6 12 1 -3
BITMAP
F8
80
80
80
F8
88
8C
84
8C
08
18
30
ENDCHAR
STARTCHAR 0495
ENCODING 1173
SWIDTH 525 0
DWIDTH 7 0
BBX 5 10 1 -3
BITMAP
F0
80
80
F0
88
88
88
08
18
30
ENDCHAR
STARTCHAR 0496
ENCODING 1174
SWIDTH 525 0
DWIDTH 7 0
BBX 7 11 0 -2
BITMAP
92
D4
54
58
38
78
54
54
92
02
02
ENDCHAR
STARTCHAR 0497
ENCODING 1175
SWIDTH 525 0
DWIDTH 7 0
BBX 7 9 0 -2
BITMAP
92
54
54
38
3C
54
92
02
02
ENDCHAR
STARTCHAR 0498
ENCODING 1176
SWIDTH 525 0
DWIDTH 7 0
BBX 5 12 1 -3
BITMAP
60
98
08
08
F0
08
08
08
F0
10
10
20
ENDCHAR
STARTCHAR 0499
ENCODING 1177
SWIDTH 525 0
DWIDTH 7 0
BBX 5 10 1 -3
BITMAP
70
98
08
70
08
08
F8
10
10
20
ENDCHAR
STARTCHAR 049A
ENCODING 1178
SWIDTH 525 0
DWIDTH 7 0
BBX 6 11 1 -2
BITMAP
8C
88
90
A0
C0
A0
B0
98
8C
04
04
ENDCHAR
STARTCHAR 049B
ENCODING 1179
SWIDTH 525 0
DWIDTH 7 0
BBX 6 9 1 -2
BITMAP
8C
98
B0
E0
B0
98
8C
04
04
ENDCHAR
STARTCHAR 049C
ENCODING 1180
SWIDTH 525 0
DWIDTH 7 0
BBX 6 9 1 0
BITMAP
8C
88
98
D0
F0
D0
98
88
8C
ENDCHAR
STARTCHAR 049D
ENCODING 1181
SWIDTH 525 0
DWIDTH 7 0
BBX 6 7 1 0
BITMAP
8C
88
D0
F0
D0
88
8C
ENDCHAR
STARTCHAR 049E
ENCODING 1182
SWIDTH 525 0
DWIDTH 7 0
BBX 7 9 0 0
BITMAP
46
44
E8
50
60
50
58
4C
44
ENDCHAR
STARTCHAR 049F
ENCODING 1183
SWIDTH 525 0
DWIDTH 7 0
BBX 7 9 0 0
BITMAP
40
F0
46
4C
58
70
58
4C
44
ENDCHAR
STARTCHAR 04A0
ENCODING 1184
SWIDTH 525 0
DWIDTH 7 0
BBX 7 9 0 0
BITMAP
E6
24
28
38
30
38
28
24
26
ENDCHAR
STARTCHAR 04A1
ENCODING 1185
SWIDTH 525 0
DWIDTH 7 0
BBX 7 7 0 0
BITMAP
E6
2C
28
30
38
2C
26
ENDCHAR
STARTCHAR 04A2
ENCODING 1186
SWIDTH 525 0
DWIDTH 7 0
BBX 6 11 1 -2
BITMAP
8C
8C
8C
8C
FC
8C
8C
8C
8C
04
04
ENDCHAR
STARTCHAR 04A3
ENCODING 1187
SWIDTH 525 0
DWIDTH 7 0
BBX 6 9 1 -2
BITMAP
88
88
88
F8
88
88
8C
04
04
ENDCHAR
STARTCHAR 04A4
ENCODING 1188
SWIDTH 525 0
DWIDTH 7 0
BBX 6 9 1 0
BITMAP
8C
88
88
88
F8
88
88
88
88
ENDCHAR
STARTCHAR 04A5
ENCODING 1189
SWIDTH 525 0
DWIDTH 7 0
BBX 6 7 1 0
BITMAP
8C
88
88
F8
88
88
88
ENDCHAR
STARTCHAR 04A6
ENCODING 1190
SWIDTH 525 0
DWIDTH 7 0
BBX 6 12 1 -3
BITMAP
E0
E0
A0
A0
B8
A4
A4
A4
A4
04
0C
08
ENDCHAR
STARTCHAR 04A7
ENCODING 1191
SWIDTH 525 0
DWIDTH 7 0
BBX 6 10 1 -3
BITMAP
E0
A0
A0
B8
A4
A4
A4
04
04
08
ENDCHAR
STARTCHAR 04A8
ENCODING 1192
SWIDTH 525 0
DWIDTH 7 0
BBX 7 10 0 -1
BITMAP
18
60
4C
DE
D2
D2
52
4C
3C
02
ENDCHAR
STARTCHAR 04A9
ENCODING 1193
SWIDTH 525 0
DWIDTH 7 0
BBX 6 8 1 -1
BITMAP
20
C0
98
AC
A4
B8
78
04
ENDCHAR
STARTCHAR 04AA
ENCODING 1194
SWIDTH 525 0
DWIDTH 7 0
BBX 5 12 1 -3
BITMAP
38
68
80
80
80
80
80
C0
78
10
10
20
ENDCHAR
STARTCHAR 04AB
ENCODING 1195
SWIDTH 525 0
DWIDTH 7 0
BBX 5 10 1 -3
BITMAP
38
68
80
80
80
C0
78
10
10
20
ENDCHAR
STARTCHAR 04AC
ENCODING 1196
SWIDTH 525 0
DWIDTH 7 0
BBX 6 11 1 -2
BITMAP
FC
20
20
20
20
20
20
20
30
10
10
ENDCHAR
STARTCHAR 04AD
ENCODING 1197
SWIDTH 525 0
DWIDTH 7 0
BBX 6 9 1 -2
BITMAP
FC
20
20
20
20
20
30
10
10
ENDCHAR
STARTCHAR 04AE
ENCODING 1198
SWIDTH 525 0
DWIDTH 7 0
BBX 7 9 0 0
BITMAP
82
46
44
2C
38
18
10
10
10
ENDCHAR
STARTCHAR 04AF
ENCODING 1199
SWIDTH 525 0
DWIDTH 7 0
BBX 7 10 0 -3
BITMAP
C2
44
44
2C
28
38
10
10
10
10
ENDCHAR
STARTCHAR 04B0
ENCODING 1200
SWIDTH 525 0
DWIDTH 7 0
BBX 7 9 0 0
BITMAP
82
46
44
2C
38
18
7C
10
10
ENDCHAR
STARTCHAR 04B1
ENCODING 1201
SWIDTH 525 0
DWIDTH 7 0
BBX 7 10 0 -3
BITMAP
C2
44
44
2C
28
38
10
7C
10
10
ENDCHAR
STARTCHAR 04B2
ENCODING 1202
SWIDTH 525 0
DWIDTH 7 0
BBX 7 11 0 -2
BITMAP
C2
44
2C
38
10
38
2C
44
C6
02
02
ENDCHAR
STARTCHAR 04B3
ENCODING 1203
SWIDTH 525 0
DWIDTH 7 0
BBX 6 9 1 -2
BITMAP
8C
C8
50
30
70
58
8C
04
04
ENDCHAR
STARTCHAR 04B4
ENCODING 1204
SWIDTH 525 0
DWIDTH 7 0
BBX 7 11 0 -2
BITMAP
F4
44
44
44
44
44
44
44
7E
02
02
ENDCHAR
STARTCHAR 04B5
ENCODING 1205
SWIDTH 525 0
DWIDTH 7 0
BBX 7 9 0 -2
BITMAP
E4
44
44
44
44
44
7E
02
02
ENDCHAR
STARTCHAR 04B6
ENCODING 1206
SWIDTH 525 0
DWIDTH 7 0
BBX 6 11 1 -2
BITMAP
8C
8C
8C
8C
CC
3C
0C
0C
0C
04
04
ENDCHAR
STARTCHAR 04B7
ENCODING 1207
SWIDTH 525 0
DWIDTH 7 0
BBX 6 9 1 -2
BITMAP
88
88
88
F8
08
08
0C
04
04
ENDCHAR
STARTCHAR 04B8
ENCODING 1208
SWIDTH 525 0
DWIDTH 7 0
BBX 6 9 1 0
BITMAP
8C
8C
8C
AC
EC
3C
2C
0C
0C
ENDCHAR
STARTCHAR 04B9
ENCODING 1209
SWIDTH 525 0
DWIDTH 7 0
BBX 5 7 1 0
BITMAP
88
88
A8
F8
28
28
08
ENDCHAR
STARTCHAR 04BA
ENCODING 1210
SWIDTH 525 0
DWIDTH 7 0
BBX 6 9 1 0
BITMAP
80
80
80
80
F8
88
8C
8C
8C
ENDCHAR
STARTCHAR 04BB
ENCODING 1211
SWIDTH 525 0
DWIDTH 7 0
BBX 5 7 1 0
BITMAP
80
80
80
F8
88
88
88
ENDCHAR
STARTCHAR 04BC
ENCODING 1212
SWIDTH 525 0
DWIDTH 7 0
BBX 7 9 0 0
BITMAP
18
34
22
A2
FE
60
20
20
1E
ENDCHAR
STARTCHAR 04BD
ENCODING 1213
SWIDTH 525 0
DWIDTH 7 0
BBX 7 7 0 0
BITMAP
18
24
A2
FE
20
20
3C
ENDCHAR
STARTCHAR 04BE
ENCODING 1214
SWIDTH 525 0
DWIDTH 7 0
BBX 7 11 0 -2
BITMAP
18
34
22
A2
FE
60
20
20
1E
08
08
ENDCHAR
STARTCHAR 04BF
ENCODING 1215
SWIDTH 525 0
DWIDTH 7 0
BBX 7 9 0 -2
BITMAP
18
24
A2
FE
20
20
3C
08
08
ENDCHAR
STARTCHAR 04C0
ENCODING 1216
SWIDTH 525 0
DWIDTH 7 0
BBX 5 9 1 0
BITMAP
F8
20
20
20
20
20
20
20
F8
ENDCHAR
STARTCHAR 04C1
ENCODING 1217
SWIDTH 525 0
DWIDTH 7 0
BBX 7 11 0 0
BITMAP
24
38
92
52
54
74
38
34
54
52
92
ENDCHAR
STARTCHAR 04C2
ENCODING 1218
SWIDTH 525 0
DWIDTH 7 0
BBX 7 9 0 0
BITMAP
2C
10
92
52
54
38
34
54
D2
ENDCHAR
STARTCHAR 04C3
ENCODING 1219
SWIDTH 525 0
DWIDTH 7 0
BBX 6 12 1 -3
BITMAP
8C
88
90
A0
C0
B8
8C
84
84
0C
08
30
ENDCHAR
STARTCHAR 04C4
ENCODING 1220
SWIDTH 525 0
DWIDTH 7 0
BBX 6 10 1 -3
BITMAP
8C
98
B0
E0
98
8C
84
0C
08
30
ENDCHAR
STARTCHAR 04C5
ENCODING 1221
SWIDTH 525 0
DWIDTH 7 0
BBX 7 11 0 -2
BITMAP
3C
3C
24
24
24
24
24
44
C6
02
04
ENDCHAR
STARTCHAR 04C6
ENCODING 1222
SWIDTH 525 0
DWIDTH 7 0
BBX 7 9 0 -2
BITMAP
3C
24
24
24
24
64
C6
02
04
ENDCHAR
STARTCHAR 04C7
ENCODING 1223
SWIDTH 525 0
DWIDTH 7 0
BBX 6 12 1 -3
BITMAP
8C
8C
8C
8C
FC
8C
8C
8C
8C
08
18
70
ENDCHAR
STARTCHAR 04C8
ENCODING 1224
SWIDTH 525 0
DWIDTH 7 0
BBX 5 10 1 -3
BITMAP
88
88
88
F8
88
88
88
08
18
30
ENDCHAR
STARTCHAR 04C9
ENCODING 1225
SWIDTH 525 0
DWIDTH 7 0
BBX 6 11 1 -2
BITMAP
8C
8C
8C
8C
FC
8C
8C
8C
8C
04
04
ENDCHAR
STARTCHAR 04CA
ENCODING 1226
SWIDTH 525 0
DWIDTH 7 0
BBX 6 9 1 -2
BITMAP
88
88
88
F8
88
88
8C
04
08
ENDCHAR
STARTCHAR 04CB
ENCODING 1227
SWIDTH 525 0
DWIDTH 7 0
BBX 6 11 1 -2
BITMAP
8C
8C
8C
8C
CC
3C
0C
0C
1C
10
10
ENDCHAR
STARTCHAR 04CC
ENCODING 1228
SWIDTH 525 0
DWIDTH 7 0
BBX 5 9 1 -2
BITMAP
88
88
88
F8
08
08
18
10
10
ENDCHAR
STARTCHAR 04CD
ENCODING 1229
SWIDTH 525 0
DWIDTH 7 0
BBX 8 11 0 -2
BITMAP
44
44
6E
6A
72
52
42
C2
83
02
02
ENDCHAR
STARTCHAR 04CE
ENCODING 1230
SWIDTH 525 0
DWIDTH 7 0
BBX 8 9 0 -2
BITMAP
44
66
6A
6A
D2
82
83
02
02
ENDCHAR
STARTCHAR 04CF
ENCODING 1231
SWIDTH 525 0
DWIDTH 7 0
BBX 5 9 1 0
BITMAP
F8
20
20
20
20
20
20
20
F8
ENDCHAR
STARTCHAR 04D0
ENCODING 1232
SWIDTH 525 0
DWIDTH 7 0
BBX 7 11 0 0
BITMAP
28
18
10
18
28
28
24
44
7C
42
82
ENDCHAR
STARTCHAR 04D1
ENCODING 1233
SWIDTH 525 0
DWIDTH 7 0
BBX 5 9 1 0
BITMAP
50
20
70
88
08
78
88
88
F8
ENDCHAR
STARTCHAR 04D2
ENCODING 1234
SWIDTH 525 0
DWIDTH 7 0
BBX 7 11 0 0
BITMAP
24
20
10
18
28
28
24
44
7C
42
82
ENDCHAR
STARTCHAR 04D3
ENCODING 1235
SWIDTH 525 0
DWIDTH 7 0
BBX 5 9 1 0
BITMAP
68
00
70
88
08
78
88
88
F8
ENDCHAR
STARTCHAR 04D4
ENCODING 1236
SWIDTH 525 0
DWIDTH 7 0
BBX 7 9 0 0
BITMAP
1E
18
28
28
2E
48
78
88
8E
ENDCHAR
STARTCHAR 04D5
ENCODING 1237
SWIDTH 525 0
DWIDTH 7 0
BBX 7 7 0 0
BITMAP
6C
1A
12
7E
90
90
6E
ENDCHAR
STARTCHAR 04D6
ENCODING 1238
SWIDTH 525 0
DWIDTH 7 0
BBX 5 11 1 0
BITMAP
50
30
F8
80
80
80
F8
80
80
80
F8
ENDCHAR
STARTCHAR 04D7
ENCODING 1239
SWIDTH 525 0
DWIDTH 7 0
BBX 6 9 1 0
BITMAP
50
20
30
C8
88
FC
80
80
78
ENDCHAR
STARTCHAR 04D8
ENCODING 1240
SWIDTH 525 0
DWIDTH 7 0
BBX 7 9 0 0
BITMAP
30
4C
06
02
FE
C2
42
44
38
ENDCHAR
STARTCHAR 04D9
ENCODING 1241
SWIDTH 525 0
DWIDTH 7 0
BBX 6 7 1 0
BITMAP
70
98
08
FC
88
88
70
ENDCHAR
STARTCHAR 04DA
ENCODING 1242
SWIDTH 525 0
DWIDTH 7 0
BBX 7 11 0 0
BITMAP
24
20
30
4C
06
02
FE
C2
42
44
38
ENDCHAR
STARTCHAR 04DB
ENCODING 1243
SWIDTH 525 0
DWIDTH 7 0
BBX 6 9 1 0
BITMAP
58
00
70
98
08
FC
88
88
70
ENDCHAR
STARTCHAR 04DC
ENCODING 1244
SWIDTH 525 0
DWIDTH 7 0
BBX 7 11 0 0
BITMAP
24
20
92
52
54
74
38
34
54
52
92
ENDCHAR
STARTCHAR 04DD
ENCODING 1245
SWIDTH 525 0
DWIDTH 7 0
BBX 7 9 0 0
BITMAP
2C
00
92
52
54
38
34
54
D2
ENDCHAR
STARTCHAR 04DE
ENCODING 1246
SWIDTH 525 0
DWIDTH 7 0
BBX 5 11 1 0
BITMAP
48
40
60
98
08
08
F0
08
08
08
F0
ENDCHAR
STARTCHAR 04DF
ENCODING 1247
SWIDTH 525 0
DWIDTH 7 0
BBX 5 9 1 0
BITMAP
58
00
70
98
08
70
08
08
F8
ENDCHAR
STARTCHAR 04E0
ENCODING 1248
SWIDTH 525 0
DWIDTH 7 0
BBX 5 9 1 0
BITMAP
F8
08
10
20
70
08
08
08
F0
ENDCHAR
STARTCHAR 04E1
ENCODING 1249
SWIDTH 525 0
DWIDTH 7 0
BBX 5 9 1 -2
BITMAP
F8
18
10
20
70
08
08
08
F0
ENDCHAR
STARTCHAR 04E2
ENCODING 1250
SWIDTH 525 0
DWIDTH 7 0
BBX 6 11 1 0
BITMAP
78
00
8C
8C
9C
9C
AC
AC
CC
CC
8C
ENDCHAR
STARTCHAR 04E3
ENCODING 1251
SWIDTH 525 0
DWIDTH 7 0
BBX 5 9 1 0
BITMAP
70
00
88
98
98
A8
A8
C8
C8
ENDCHAR
STARTCHAR 04E4
ENCODING 1252
SWIDTH 525 0
DWIDTH 7 0
BBX 6 11 1 0
BITMAP
48
40
8C
8C
9C
9C
AC
AC
CC
CC
8C
ENDCHAR
STARTCHAR 04E5
ENCODING 1253
SWIDTH 525 0
DWIDTH 7 0
BBX 5 9 1 0
BITMAP
58
00
88
98
98
A8
A8
C8
C8
ENDCHAR
STARTCHAR 04E6
ENCODING 1254
SWIDTH 525 0
DWIDTH 7 0
BBX 7 11 0 0
BITMAP
24
20
18
6C
46
C2
C2
C2
42
44
3C
ENDCHAR
STARTCHAR 04E7
ENCODING 1255
SWIDTH 525 0
DWIDTH 7 0
BBX 6 9 1 0
BITMAP
58
00
30
C8
8C
84
84
88
78
ENDCHAR
STARTCHAR 04E8
ENCODING 1256
SWIDTH 525 0
DWIDTH 7 0
BBX 7 9 0 0
BITMAP
18
6C
46
C2
FE
C2
42
44
3C
ENDCHAR
STARTCHAR 04E9
ENCODING 1257
SWIDTH 525 0
DWIDTH 7 0
BBX 6 7 1 0
BITMAP
30
C8
8C
FC
8C
88
78
ENDCHAR
STARTCHAR 04EA
ENCODING 1258
SWIDTH 525 0
DWIDTH 7 0
BBX 7 11 0 0
BITMAP
24
20
18
6C
46
C2
FE
C2
42
44
3C
ENDCHAR
STARTCHAR 04EB
ENCODING 1259
SWIDTH 525 0
DWIDTH 7 0
BBX 6 9 1 0
BITMAP
58
00
30
C8
8C
FC
8C
88
78
ENDCHAR
STARTCHAR 04EC
ENCODING 1260
SWIDTH 525 0
DWIDTH 7 0
BBX 6 11 1 0
BITMAP
48
40
60
98
08
0C
FC
04
0C
08
F0
ENDCHAR
STARTCHAR 04ED
ENCODING 1261
SWIDTH 525 0
DWIDTH 7 0
BBX 5 9 1 0
BITMAP
58
00
60
98
08
F8
08
08
F0
ENDCHAR
STARTCHAR 04EE
ENCODING 1262
SWIDTH 525 0
DWIDTH 7 0
BBX 7 11 0 0
BITMAP
3C
00
C2
46
64
24
38
18
18
10
60
ENDCHAR
STARTCHAR 04EF
ENCODING 1263
SWIDTH 525 0
DWIDTH 7 0
BBX 7 12 0 -3
BITMAP
38
00
C2
44
44
24
28
38
18
10
20
C0
ENDCHAR
STARTCHAR 04F0
ENCODING 1264
SWIDTH 525 0
DWIDTH 7 0
BBX 7 11 0 0
BITMAP
24
20
C2
46
64
24
38
18
18
10
60
ENDCHAR
STARTCHAR 04F1
ENCODING 1265
SWIDTH 525 0
DWIDTH 7 0
BBX 7 12 0 -3
BITMAP
2C
00
C2
44
44
24
28
38
18
10
20
C0
ENDCHAR
STARTCHAR 04F2
ENCODING 1266
SWIDTH 525 0
DWIDTH 7 0
BBX 7 11 0 0
BITMAP
12
24
C2
46
64
24
38
18
18
10
60
ENDCHAR
STARTCHAR 04F3
ENCODING 1267
SWIDTH 525 0
DWIDTH 7 0
BBX 7 12 0 -3
BITMAP
16
20
C2
44
44
24
28
38
18
10
20
C0
ENDCHAR
STARTCHAR 04F4
ENCODING 1268
SWIDTH 525 0
DWIDTH 7 0
BBX 6 11 1 0
BITMAP
48
40
8C
8C
8C
8C
CC
3C
0C
0C
0C
ENDCHAR
STARTCHAR 04F5
ENCODING 1269
SWIDTH 525 0
DWIDTH 7 0
BBX 5 9 1 0
BITMAP
48
00
88
88
88
F8
08
08
08
ENDCHAR
STARTCHAR 04F6
ENCODING 1270
SWIDTH 525 0
DWIDTH 7 0
BBX 4 11 2 -2
BITMAP
F0
F0
80
80
80
80
80
80
C0
40
40
ENDCHAR
STARTCHAR 04F7
ENCODING 1271
SWIDTH 525 0
DWIDTH 7 0
BBX 4 9 2 -2
BITMAP
F0
80
80
80
80
80
C0
40
40
ENDCHAR
STARTCHAR 04F8
ENCODING 1272
SWIDTH 525 0
DWIDTH 7 0
BBX 6 11 1 0
BITMAP
48
40
84
84
84
84
E4
94
94
94
E4
ENDCHAR
STARTCHAR 04F9
ENCODING 1273
SWIDTH 525 0
DWIDTH 7 0
BBX 6 9 1 0
BITMAP
58
00
84
84
84
E4
94
94
E4
ENDCHAR
STARTCHAR 04FA
ENCODING 1274
SWIDTH 525 0
DWIDTH 7 0
BBX 6 12 0 -3
BITMAP
3C
3C
20
20
F8
20
20
20
30
10
10
20
ENDCHAR
STARTCHAR 04FB
ENCODING 1275
SWIDTH 525 0
DWIDTH 7 0
BBX 6 10 0 -3
BITMAP
3C
20
20
F8
20
20
30
10
10
20
ENDCHAR
STARTCHAR 04FC
ENCODING 1276
SWIDTH 525 0
DWIDTH 7 0
BBX 7 12 0 -3
BITMAP
C2
44
2C
38
10
38
2C
44
C6
02
02
04
ENDCHAR
STARTCHAR 04FD
ENCODING 1277
SWIDTH 525 0
DWIDTH 7 0
BBX 6 10 1 -3
BITMAP
8C
C8
50
30
70
58
8C
04
04
08
ENDCHAR
STARTCHAR 04FE
ENCODING 1278
SWIDTH 525 0
DWIDTH 7 0
BBX 7 9 0 0
BITMAP
C2
44
2C
38
FE
38
2C
44
C6
ENDCHAR
STARTCHAR 04FF
ENCODING 1279
SWIDTH 525 0
DWIDTH 7 0
BBX 6 7 1 0
BITMAP
8C
C8
50
FC
70
58
8C
ENDCHAR
STARTCHAR 0500
ENCODING 1280
SWIDTH 525 0
DWIDTH 7 0
BBX 5 9 1 0
BITMAP
08
08
08
08
F8
88
88
88
78
ENDCHAR
STARTCHAR 0501
ENCODING 1281
SWIDTH 525 0
DWIDTH 7 0
BBX 5 9 1 0
BITMAP
08
08
38
C8
88
88
88
98
F8
ENDCHAR
STARTCHAR 0502
ENCODING 1282
SWIDTH 525 0
DWIDTH 7 0
BBX 6 9 1 0
BITMAP
20
20
20
20
E4
A4
A4
A4
F8
ENDCHAR
STARTCHAR 0503
ENCODING 1283
SWIDTH 525 0
DWIDTH 7 0
BBX 6 9 1 0
BITMAP
20
20
60
A0
A0
A4
A4
A4
F8
ENDCHAR
STARTCHAR 0504
ENCODING 1284
SWIDTH 525 0
DWIDTH 7 0
BBX 7 9 0 0
BITMAP
60
B0
10
10
62
12
12
12
0C
ENDCHAR
STARTCHAR 0505
ENCODING 1285
SWIDTH 525 0
DWIDTH 7 0
BBX 6 7 1 0
BITMAP
C0
60
20
C4
24
24
38
ENDCHAR
STARTCHAR 0506
ENCODING 1286
SWIDTH 525 0
DWIDTH 7 0
BBX 6 11 1 -2
BITMAP
60
90
10
10
E0
18
08
08
0C
04
04
ENDCHAR
STARTCHAR 0507
ENCODING 1287
SWIDTH 525 0
DWIDTH 7 0
BBX 6 9 1 -2
BITMAP
60
90
10
60
18
08
0C
04
04
ENDCHAR
STARTCHAR 0508
ENCODING 1288
SWIDTH 525 0
DWIDTH 7 0
BBX 7 9 0 0
BITMAP
38
78
48
48
4A
4A
4A
4A
CE
ENDCHAR
STARTCHAR 0509
ENCODING 1289
SWIDTH 525 0
DWIDTH 7 0
BBX 7 7 0 0
BITMAP
38
28
48
4A
4A
4A
CE
ENDCHAR
STARTCHAR 050A
ENCODING 1290
SWIDTH 525 0
DWIDTH 7 0
BBX 6 9 1 0
BITMAP
B0
B0
B0
B0
F4
B4
B4
B4
9C
ENDCHAR
STARTCHAR 050B
ENCODING 1291
SWIDTH 525 0
DWIDTH 7 0
BBX 6 7 1 0
BITMAP
B0
B0
B0
F4
B4
B4
9C
ENDCHAR
STARTCHAR 050C
ENCODING 1292
SWIDTH 525 0
DWIDTH 7 0
BBX 7 9 0 0
BITMAP
18
24
40
40
C0
CE
42
46
3C
ENDCHAR
STARTCHAR 050D
ENCODING 1293
SWIDTH 525 0
DWIDTH 7 0
BBX 6 7 1 0
BITMAP
38
68
80
80
8C
C4
78
ENDCHAR
STARTCHAR 050E
ENCODING 1294
SWIDTH 525 0
DWIDTH 7 0
BBX 6 9 1 0
BITMAP
FC
20
20
20
24
24
24
24
38
ENDCHAR
STARTCHAR 050F
ENCODING 1295
SWIDTH 525 0
DWIDTH 7 0
BBX 5 7 1 0
BITMAP
F0
40
40
48
48
48
38
ENDCHAR
STARTCHAR 0510
ENCODING 1296
SWIDTH 525 0
DWIDTH 7 0
BBX 5 9 1 0
BITMAP
30
C8
80
80
78
80
80
80
78
ENDCHAR
STARTCHAR 0511
ENCODING 1297
SWIDTH 525 0
DWIDTH 7 0
BBX 5 7 1 0
BITMAP
38
C0
80
78
80
80
F8
ENDCHAR
STARTCHAR 0512
ENCODING 1298
SWIDTH 525 0
DWIDTH 7 0
BBX 7 12 0 -3
BITMAP
3C
3C
24
24
24
24
24
44
C6
02
02
04
ENDCHAR
STARTCHAR 0513
ENCODING 1299
SWIDTH 525 0
DWIDTH 7 0
BBX 7 10 0 -3
BITMAP
3C
24
24
24
24
64
C6
02
02
04
ENDCHAR
STARTCHAR 0E3F
ENCODING 3647
SWIDTH 525 0
DWIDTH 7 0
BBX 6 12 1 -2
BITMAP
20
E0
B8
A8
A8
F0
A8
AC
A8
F0
20
20
ENDCHAR
STARTCHAR 1D00
ENCODING 7424
SWIDTH 525 0
DWIDTH 7 0
BBX 6 7 1 0
BITMAP
20
30
50
58
88
F8
84
ENDCHAR
STARTCHAR 1D01
ENCODING 7425
SWIDTH 525 0
DWIDTH 7 0
BBX 7 7 0 0
BITMAP
1E
18
28
2E
48
78
8E
ENDCHAR
STARTCHAR 1D02
ENCODING 7426
SWIDTH 525 0
DWIDTH 7 0
BBX 7 7 0 0
BITMAP
64
9A
12
FE
90
90
6E
ENDCHAR
STARTCHAR 1D03
ENCODING 7427
SWIDTH 525 0
DWIDTH 7 0
BBX 7 7 0 0
BITMAP
78
44
44
F8
44
46
7C
ENDCHAR
STARTCHAR 1D04
ENCODING 7428
SWIDTH 525 0
DWIDTH 7 0
BBX 5 7 1 0
BITMAP
38
40
80
80
80
C0
78
ENDCHAR
STARTCHAR 1D05
ENCODING 7429
SWIDTH 525 0
DWIDTH 7 0
BBX 6 7 1 0
BITMAP
E0
98
8C
8C
8C
88
F0
ENDCHAR
STARTCHAR 1D06
ENCODING 7430
SWIDTH 525 0
DWIDTH 7 0
BBX 7 7 0 0
BITMAP
70
4C
46
F6
46
44
78
ENDCHAR
STARTCHAR 1D07
ENCODING 7431
SWIDTH 525 0
DWIDTH 7 0
BBX 5 7 1 0
BITMAP
F8
C0
C0
F8
C0
C0
F8
ENDCHAR
STARTCHAR 1D08
ENCODING 7432
SWIDTH 525 0
DWIDTH 7 0
BBX 5 7 1 0
BITMAP
F0
88
08
78
18
08
F8
ENDCHAR
STARTCHAR 1D09
ENCODING 7433
SWIDTH 525 0
DWIDTH 7 0
BBX 5 10 1 -3
BITMAP
F8
20
20
20
20
20
38
00
30
20
ENDCHAR
STARTCHAR 1D0A
ENCODING 7434
SWIDTH 525 0
DWIDTH 7 0
BBX 4 7 2 0
BITMAP
F0
10
10
10
10
10
E0
ENDCHAR
STARTCHAR 1D0B
ENCODING 7435
SWIDTH 525 0
DWIDTH 7 0
BBX 6 7 1 0
BITMAP
8C
98
B0
E0
B0
90
88
ENDCHAR
STARTCHAR 1D0C
ENCODING 7436
SWIDTH 525 0
DWIDTH 7 0
BBX 6 7 0 0
BITMAP
20
20
38
70
E0
20
3C
ENDCHAR
STARTCHAR 1D0D
ENCODING 7437
SWIDTH 525 0
DWIDTH 7 0
BBX 7 7 0 0
BITMAP
46
66
6A
6A
D2
82
82
ENDCHAR
STARTCHAR 1D0E
ENCODING 7438
SWIDTH 525 0
DWIDTH 7 0
BBX 5 7 1 0
BITMAP
88
98
98
A8
A8
C8
C8
ENDCHAR
STARTCHAR 1D0F
ENCODING 7439
SWIDTH 525 0
DWIDTH 7 0
BBX 7 7 0 0
BITMAP
18
64
46
C2
42
44
3C
ENDCHAR
STARTCHAR 1D10
ENCODING 7440
SWIDTH 525 0
DWIDTH 7 0
BBX 5 7 1 0
BITMAP
E0
98
08
08
08
08
F0
ENDCHAR
STARTCHAR 1D11
ENCODING 7441
SWIDTH 525 0
DWIDTH 7 0
BBX 7 6 0 0
BITMAP
7C
42
82
C2
46
38
ENDCHAR
STARTCHAR 1D12
ENCODING 7442
SWIDTH 525 0
DWIDTH 7 0
BBX 7 5 0 1
BITMAP
7C
46
C2
82
42
ENDCHAR
STARTCHAR 1D13
ENCODING 7443
SWIDTH 525 0
DWIDTH 7 0
BBX 8 6 0 0
BITMAP
7C
C6
72
4E
65
38
ENDCHAR
STARTCHAR 1D14
ENCODING 7444
SWIDTH 525 0
DWIDTH 7 0
BBX 7 7 0 0
BITMAP
6C
BA
12
F2
92
92
6C
ENDCHAR
STARTCHAR 1D15
ENCODING 7445
SWIDTH 525 0
DWIDTH 7 0
BBX 5 7 1 0
BITMAP
C8
88
78
78
88
88
F8
ENDCHAR
STARTCHAR 1D16
ENCODING 7446
SWIDTH 525 0
DWIDTH 7 0
BBX 7 4 0 3
BITMAP
18
6C
46
C2
ENDCHAR
STARTCHAR 1D17
ENCODING 7447
SWIDTH 525 0
DWIDTH 7 0
BBX 7 3 0 0
BITMAP
C2
44
3C
ENDCHAR
STARTCHAR 1D18
ENCODING 7448
SWIDTH 525 0
DWIDTH 7 0
BBX 5 7 1 0
BITMAP
E0
98
88
88
F0
80
80
ENDCHAR
STARTCHAR 1D19
ENCODING 7449
SWIDTH 525 0
DWIDTH 7 0
BBX 5 7 1 0
BITMAP
38
C8
88
78
68
48
88
ENDCHAR
STARTCHAR 1D1A
ENCODING 7450
SWIDTH 525 0
DWIDTH 7 0
BBX 5 7 1 0
BITMAP
88
C8
48
38
C8
C8
78
ENDCHAR
STARTCHAR 1D1B
ENCODING 7451
SWIDTH 525 0
DWIDTH 7 0
BBX 6 7 1 0
BITMAP
FC
20
20
20
20
20
20
ENDCHAR
STARTCHAR 1D1C
ENCODING 7452
SWIDTH 525 0
DWIDTH 7 0
BBX 5 7 1 0
BITMAP
88
88
88
88
88
88
70
ENDCHAR
STARTCHAR 1D1D
ENCODING 7453
SWIDTH 525 0
DWIDTH 7 0
BBX 7 5 0 1
BITMAP
FE
04
02
02
FE
ENDCHAR
STARTCHAR 1D1E
ENCODING 7454
SWIDTH 525 0
DWIDTH 7 0
BBX 7 5 0 1
BITMAP
3E
C4
02
02
FE
ENDCHAR
STARTCHAR 1D1F
ENCODING 7455
SWIDTH 525 0
DWIDTH 7 0
BBX 7 6 0 0
BITMAP
FE
02
FE
04
02
FC
ENDCHAR
STARTCHAR 1D20
ENCODING 7456
SWIDTH 525 0
DWIDTH 7 0
BBX 7 7 0 0
BITMAP
C2
44
44
2C
28
38
10
ENDCHAR
STARTCHAR 1D21
ENCODING 7457
SWIDTH 525 0
DWIDTH 7 0
BBX 7 7 0 0
BITMAP
82
82
52
5A
6A
6C
64
ENDCHAR
STARTCHAR 1D22
ENCODING 7458
SWIDTH 525 0
DWIDTH 7 0
BBX 5 7 1 0
BITMAP
F8
08
10
20
60
40
F8
ENDCHAR
STARTCHAR 1D23
ENCODING 7459
SWIDTH 525 0
DWIDTH 7 0
BBX 5 7 1 0
BITMAP
F8
18
20
78
08
08
F8
ENDCHAR
STARTCHAR 1D24
ENCODING 7460
SWIDTH 525 0
DWIDTH 7 0
BBX 5 7 1 0
BITMAP
70
08
18
20
40
80
78
ENDCHAR
STARTCHAR 1D25
ENCODING 7461
SWIDTH 525 0
DWIDTH 7 0
BBX 6 7 1 0
BITMAP
30
78
F8
78
70
70
CC
ENDCHAR
STARTCHAR 1D26
ENCODING 7462
SWIDTH 525 0
DWIDTH 7 0
BBX 5 7 1 0
BITMAP
F8
C0
C0
C0
C0
C0
C0
ENDCHAR
STARTCHAR 1D27
ENCODING 7463
SWIDTH 525 0
DWIDTH 7 0
BBX 6 7 1 0
BITMAP
20
30
50
58
88
88
84
ENDCHAR
STARTCHAR 1D28
ENCODING 7464
SWIDTH 525 0
DWIDTH 7 0
BBX 5 7 1 0
BITMAP
F8
88
88
88
88
88
88
ENDCHAR
STARTCHAR 1D29
ENCODING 7465
SWIDTH 525 0
DWIDTH 7 0
BBX 5 7 1 0
BITMAP
E0
D8
C8
C8
F0
C0
C0
ENDCHAR
STARTCHAR 1D2A
ENCODING 7466
SWIDTH 525 0
DWIDTH 7 0
BBX 6 7 1 0
BITMAP
A4
A4
A4
AC
F8
20
20
ENDCHAR
STARTCHAR 1D2B
ENCODING 7467
SWIDTH 525 0
DWIDTH 7 0
BBX 6 7 0 0
BITMAP
3C
24
24
24
24
64
C4
ENDCHAR
STARTCHAR 1D2C
ENCODING 7468
SWIDTH 525 0
DWIDTH 7 0
BBX 4 5 2 5
BITMAP
40
A0
A0
E0
90
ENDCHAR
STARTCHAR 1D2D
ENCODING 7469
SWIDTH 525 0
DWIDTH 7 0
BBX 5 5 1 5
BITMAP
38
50
58
50
B8
ENDCHAR
STARTCHAR 1D2E
ENCODING 7470
SWIDTH 525 0
DWIDTH 7 0
BBX 4 5 2 5
BITMAP
E0
A0
E0
90
F0
ENDCHAR
STARTCHAR 1D2F
ENCODING 7471
SWIDTH 525 0
DWIDTH 7 0
BBX 5 5 1 5
BITMAP
70
48
F0
48
78
ENDCHAR
STARTCHAR 1D30
ENCODING 7472
SWIDTH 525 0
DWIDTH 7 0
BBX 4 5 2 5
BITMAP
E0
90
90
90
F0
ENDCHAR
STARTCHAR 1D31
ENCODING 7473
SWIDTH 525 0
DWIDTH 7 0
BBX 3 5 2 5
BITMAP
E0
80
E0
80
E0
ENDCHAR
STARTCHAR 1D32
ENCODING 7474
SWIDTH 525 0
DWIDTH 7 0
BBX 3 5 2 5
BITMAP
E0
20
E0
20
60
ENDCHAR
STARTCHAR 1D33
ENCODING 7475
SWIDTH 525 0
DWIDTH 7 0
BBX 5 5 1 5
BITMAP
78
40
98
88
78
ENDCHAR
STARTCHAR 1D34
ENCODING 7476
SWIDTH 525 0
DWIDTH 7 0
BBX 4 5 2 5
BITMAP
90
90
F0
90
90
ENDCHAR
STARTCHAR 1D35
ENCODING 7477
SWIDTH 525 0
DWIDTH 7 0
BBX 3 5 2 5
BITMAP
E0
40
40
40
E0
ENDCHAR
STARTCHAR 1D36
ENCODING 7478
SWIDTH 525 0
DWIDTH 7 0
BBX 3 5 2 5
BITMAP
E0
20
20
20
E0
ENDCHAR
STARTCHAR 1D37
ENCODING 7479
SWIDTH 525 0
DWIDTH 7 0
BBX 3 5 2 5
BITMAP
A0
A0
C0
C0
A0
ENDCHAR
STARTCHAR 1D38
ENCODING 7480
SWIDTH 525 0
DWIDTH 7 0
BBX 3 5 2 5
BITMAP
80
80
80
80
E0
ENDCHAR
STARTCHAR 1D39
ENCODING 7481
SWIDTH 525 0
DWIDTH 7 0
BBX 5 5 1 5
BITMAP
58
D8
A8
A8
88
ENDCHAR
STARTCHAR 1D3A
ENCODING 7482
SWIDTH 525 0
DWIDTH 7 0
BBX 4 5 2 5
BITMAP
90
90
D0
D0
B0
ENDCHAR
STARTCHAR 1D3B
ENCODING 7483
SWIDTH 525 0
DWIDTH 7 0
BBX 4 5 2 5
BITMAP
90
B0
D0
D0
90
ENDCHAR
STARTCHAR 1D3C
ENCODING 7484
SWIDTH 525 0
DWIDTH 7 0
BBX 5 5 1 5
BITMAP
70
48
88
88
70
ENDCHAR
STARTCHAR 1D3D
ENCODING 7485
SWIDTH 525 0
DWIDTH 7 0
BBX 4 5 2 5
BITMAP
90
A0
60
90
F0
ENDCHAR
STARTCHAR 1D3E
ENCODING 7486
SWIDTH 525 0
DWIDTH 7 0
BBX 4 5 2 5
BITMAP
E0
90
90
E0
80
ENDCHAR
STARTCHAR 1D3F
ENCODING 7487
SWIDTH 525 0
DWIDTH 7 0
BBX 4 5 2 5
BITMAP
E0
90
E0
A0
90
ENDCHAR
STARTCHAR 1D40
ENCODING 7488
SWIDTH 525 0
DWIDTH 7 0
BBX 4 5 2 5
BITMAP
F0
40
40
40
40
ENDCHAR
STARTCHAR 1D41
ENCODING 7489
SWIDTH 525 0
DWIDTH 7 0
BBX 4 5 2 5
BITMAP
90
90
90
90
E0
ENDCHAR
STARTCHAR 1D42
ENCODING 7490
SWIDTH 525 0
DWIDTH 7 0
BBX 5 5 1 5
BITMAP
88
88
A8
D8
58
ENDCHAR
STARTCHAR 1D43
ENCODING 7491
SWIDTH 525 0
DWIDTH 7 0
BBX 3 4 2 5
BITMAP
E0
20
E0
E0
ENDCHAR
STARTCHAR 1D44
ENCODING 7492
SWIDTH 525 0
DWIDTH 7 0
BBX 3 4 2 5
BITMAP
E0
A0
E0
E0
ENDCHAR
STARTCHAR 1D45
ENCODING 7493
SWIDTH 525 0
DWIDTH 7 0
BBX 3 4 2 5
BITMAP
60
A0
A0
E0
ENDCHAR
STARTCHAR 1D46
ENCODING 7494
SWIDTH 525 0
DWIDTH 7 0
BBX 5 4 1 5
BITMAP
D8
28
F8
F0
ENDCHAR
STARTCHAR 1D47
ENCODING 7495
SWIDTH 525 0
DWIDTH 7 0
BBX 4 5 2 5
BITMAP
80
E0
90
90
E0
ENDCHAR
STARTCHAR 1D48
ENCODING 7496
SWIDTH 525 0
DWIDTH 7 0
BBX 3 5 2 5
BITMAP
20
60
A0
A0
E0
ENDCHAR
STARTCHAR 1D49
ENCODING 7497
SWIDTH 525 0
DWIDTH 7 0
BBX 4 4 2 5
BITMAP
60
90
F0
E0
ENDCHAR
STARTCHAR 1D4A
ENCODING 7498
SWIDTH 525 0
DWIDTH 7 0
BBX 4 4 2 5
BITMAP
E0
20
F0
E0
ENDCHAR
STARTCHAR 1D4B
ENCODING 7499
SWIDTH 525 0
DWIDTH 7 0
BBX 4 4 2 5
BITMAP
70
80
E0
E0
ENDCHAR
STARTCHAR 1D4C
ENCODING 7500
SWIDTH 525 0
DWIDTH 7 0
BBX 4 4 2 5
BITMAP
E0
10
E0
E0
ENDCHAR
STARTCHAR 1D4D
ENCODING 7501
SWIDTH 525 0
DWIDTH 7 0
BBX 4 6 2 3
BITMAP
70
90
E0
80
F0
F0
ENDCHAR
STARTCHAR 1D4E
ENCODING 7502
SWIDTH 525 0
DWIDTH 7 0
BBX 4 6 2 3
BITMAP
F0
40
40
40
20
60
ENDCHAR
STARTCHAR 1D4F
ENCODING 7503
SWIDTH 525 0
DWIDTH 7 0
BBX 4 5 2 5
BITMAP
80
90
A0
C0
A0
ENDCHAR
STARTCHAR 1D50
ENCODING 7504
SWIDTH 525 0
DWIDTH 7 0
BBX 4 4 2 5
BITMAP
70
D0
D0
D0
ENDCHAR
STARTCHAR 1D51
ENCODING 7505
SWIDTH 525 0
DWIDTH 7 0
BBX 3 6 2 3
BITMAP
E0
A0
A0
A0
20
20
ENDCHAR
STARTCHAR 1D52
ENCODING 7506
SWIDTH 525 0
DWIDTH 7 0
BBX 4 4 2 5
BITMAP
60
90
90
E0
ENDCHAR
STARTCHAR 1D53
ENCODING 7507
SWIDTH 525 0
DWIDTH 7 0
BBX 3 4 2 5
BITMAP
C0
20
20
E0
ENDCHAR
STARTCHAR 1D54
ENCODING 7508
SWIDTH 525 0
DWIDTH 7 0
BBX 4 2 2 7
BITMAP
60
90
ENDCHAR
STARTCHAR 1D55
ENCODING 7509
SWIDTH 525 0
DWIDTH 7 0
BBX 4 2 2 5
BITMAP
90
E0
ENDCHAR
STARTCHAR 1D56
ENCODING 7510
SWIDTH 525 0
DWIDTH 7 0
BBX 4 6 2 3
BITMAP
E0
90
90
A0
C0
80
ENDCHAR
STARTCHAR 1D57
ENCODING 7511
SWIDTH 525 0
DWIDTH 7 0
BBX 4 5 1 5
BITMAP
40
F0
40
40
30
ENDCHAR
STARTCHAR 1D58
ENCODING 7512
SWIDTH 525 0
DWIDTH 7 0
BBX 3 4 2 5
BITMAP
80
A0
A0
E0
ENDCHAR
STARTCHAR 1D59
ENCODING 7513
SWIDTH 525 0
DWIDTH 7 0
BBX 4 3 2 5
BITMAP
E0
10
F0
ENDCHAR
STARTCHAR 1D5A
ENCODING 7514
SWIDTH 525 0
DWIDTH 7 0
BBX 4 4 2 5
BITMAP
50
D0
D0
F0
ENDCHAR
STARTCHAR 1D5B
ENCODING 7515
SWIDTH 525 0
DWIDTH 7 0
BBX 4 4 2 5
BITMAP
90
A0
A0
40
ENDCHAR
STARTCHAR 1D5C
ENCODING 7516
SWIDTH 525 0
DWIDTH 7 0
BBX 3 4 2 5
BITMAP
60
E0
60
E0
ENDCHAR
STARTCHAR 1D5D
ENCODING 7517
SWIDTH 525 0
DWIDTH 7 0
BBX 4 7 2 3
BITMAP
E0
A0
E0
90
A0
C0
80
ENDCHAR
STARTCHAR 1D5E
ENCODING 7518
SWIDTH 525 0
DWIDTH 7 0
BBX 4 6 2 3
BITMAP
90
90
60
60
40
40
ENDCHAR
STARTCHAR 1D5F
ENCODING 7519
SWIDTH 525 0
DWIDTH 7 0
BBX 4 5 2 5
BITMAP
60
40
A0
90
E0
ENDCHAR
STARTCHAR 1D60
ENCODING 7520
SWIDTH 525 0
DWIDTH 7 0
BBX 5 7 1 3
BITMAP
20
A8
A8
A8
68
30
20
ENDCHAR
STARTCHAR 1D61
ENCODING 7521
SWIDTH 525 0
DWIDTH 7 0
BBX 4 6 2 3
BITMAP
90
A0
40
40
A0
B0
ENDCHAR
STARTCHAR 1D62
ENCODING 7522
SWIDTH 525 0
DWIDTH 7 0
BBX 3 5 2 -1
BITMAP
40
C0
40
40
E0
ENDCHAR
STARTCHAR 1D63
ENCODING 7523
SWIDTH 525 0
DWIDTH 7 0
BBX 4 4 2 -1
BITMAP
A0
D0
80
80
ENDCHAR
STARTCHAR 1D64
ENCODING 7524
SWIDTH 525 0
DWIDTH 7 0
BBX 3 4 2 -2
BITMAP
A0
A0
A0
C0
ENDCHAR
STARTCHAR 1D65
ENCODING 7525
SWIDTH 525 0
DWIDTH 7 0
BBX 3 4 2 -2
BITMAP
A0
A0
60
40
ENDCHAR
STARTCHAR 1D66
ENCODING 7526
SWIDTH 525 0
DWIDTH 7 0
BBX 4 7 2 -3
BITMAP
E0
A0
C0
B0
90
E0
80
ENDCHAR
STARTCHAR 1D67
ENCODING 7527
SWIDTH 525 0
DWIDTH 7 0
BBX 4 5 2 -3
BITMAP
90
60
60
40
40
ENDCHAR
STARTCHAR 1D68
ENCODING 7528
SWIDTH 525 0
DWIDTH 7 0
BBX 4 6 2 -3
BITMAP
60
90
90
A0
C0
80
ENDCHAR
STARTCHAR 1D69
ENCODING 7529
SWIDTH 525 0
DWIDTH 7 0
BBX 5 7 1 -3
BITMAP
20
20
A8
A8
A8
70
20
ENDCHAR
STARTCHAR 1D6A
ENCODING 7530
SWIDTH 525 0
DWIDTH 7 0
BBX 3 5 2 -3
BITMAP
A0
60
40
A0
A0
ENDCHAR
STARTCHAR 1D6B
ENCODING 7531
SWIDTH 525 0
DWIDTH 7 0
BBX 7 7 0 0
BITMAP
D4
DA
D2
DE
D0
D0
6E
ENDCHAR
STARTCHAR 1D6C
ENCODING 7532
SWIDTH 525 0
DWIDTH 7 0
BBX 7 9 0 0
BITMAP
D0
60
58
64
46
46
46
44
78
ENDCHAR
STARTCHAR 1D6D
ENCODING 7533
SWIDTH 525 0
DWIDTH 7 0
BBX 7 9 1 0
BITMAP
1A
0C
38
C8
88
88
88
98
F8
ENDCHAR
STARTCHAR 1D6E
ENCODING 7534
SWIDTH 525 0
DWIDTH 7 0
BBX 6 9 1 0
BITMAP
3C
20
20
FC
20
E0
30
20
20
ENDCHAR
STARTCHAR 1D6F
ENCODING 7535
SWIDTH 525 0
DWIDTH 7 0
BBX 6 7 1 0
BITMAP
E8
B8
A8
EC
B8
A8
A8
ENDCHAR
STARTCHAR 1D70
ENCODING 7536
SWIDTH 525 0
DWIDTH 7 0
BBX 6 7 1 0
BITMAP
B0
C8
88
EC
98
88
88
ENDCHAR
STARTCHAR 1D71
ENCODING 7537
SWIDTH 525 0
DWIDTH 7 0
BBX 8 10 -1 -3
BITMAP
2C
32
23
23
23
22
3C
20
F8
20
ENDCHAR
STARTCHAR 1D72
ENCODING 7538
SWIDTH 525 0
DWIDTH 7 0
BBX 7 7 0 0
BITMAP
4C
54
62
F0
40
40
40
ENDCHAR
STARTCHAR 1D73
ENCODING 7539
SWIDTH 525 0
DWIDTH 7 0
BBX 7 7 0 0
BITMAP
18
24
46
F0
40
40
40
ENDCHAR
STARTCHAR 1D74
ENCODING 7540
SWIDTH 525 0
DWIDTH 7 0
BBX 7 7 0 0
BITMAP
1C
60
62
FE
8C
04
7C
ENDCHAR
STARTCHAR 1D75
ENCODING 7541
SWIDTH 525 0
DWIDTH 7 0
BBX 6 8 0 1
BITMAP
20
FC
20
20
78
20
30
1C
ENDCHAR
STARTCHAR 1D76
ENCODING 7542
SWIDTH 525 0
DWIDTH 7 0
BBX 5 7 1 0
BITMAP
F8
08
10
78
60
40
F8
ENDCHAR
STARTCHAR 1D77
ENCODING 7543
SWIDTH 525 0
DWIDTH 7 0
BBX 6 10 1 -3
BITMAP
30
CC
84
F8
0C
38
48
88
48
F0
ENDCHAR
STARTCHAR 1D78
ENCODING 7544
SWIDTH 525 0
DWIDTH 7 0
BBX 4 4 2 4
BITMAP
90
F0
90
90
ENDCHAR
STARTCHAR 1D79
ENCODING 7545
SWIDTH 525 0
DWIDTH 7 0
BBX 6 10 1 -3
BITMAP
FC
30
40
80
C0
78
8C
84
88
70
ENDCHAR
STARTCHAR 1D7A
ENCODING 7546
SWIDTH 525 0
DWIDTH 7 0
BBX 7 10 0 -1
BITMAP
0A
4C
EC
4A
5A
5A
6A
6A
6A
40
ENDCHAR
STARTCHAR 1D7B
ENCODING 7547
SWIDTH 525 0
DWIDTH 7 0
BBX 5 7 1 0
BITMAP
E0
20
20
78
20
20
F8
ENDCHAR
STARTCHAR 1D7C
ENCODING 7548
SWIDTH 525 0
DWIDTH 7 0
BBX 5 7 1 0
BITMAP
E0
20
20
78
20
20
18
ENDCHAR
STARTCHAR 1D7D
ENCODING 7549
SWIDTH 525 0
DWIDTH 7 0
BBX 7 10 0 -3
BITMAP
58
64
46
46
46
44
78
40
F0
40
ENDCHAR
STARTCHAR 1D7E
ENCODING 7550
SWIDTH 525 0
DWIDTH 7 0
BBX 7 7 0 0
BITMAP
44
44
44
FE
44
44
3C
ENDCHAR
STARTCHAR 1D7F
ENCODING 7551
SWIDTH 525 0
DWIDTH 7 0
BBX 7 7 0 0
BITMAP
44
44
44
FE
44
44
38
ENDCHAR
STARTCHAR 1D80
ENCODING 7552
SWIDTH 525 0
DWIDTH 7 0
BBX 6 12 1 -3
BITMAP
80
80
B0
C8
8C
8C
8C
88
F0
10
10
60
ENDCHAR
STARTCHAR 1D81
ENCODING 7553
SWIDTH 525 0
DWIDTH 7 0
BBX 6 12 1 -3
BITMAP
08
08
38
C8
88
88
88
98
FC
04
04
08
ENDCHAR
STARTCHAR 1D82
ENCODING 7554
SWIDTH 525 0
DWIDTH 7 0
BBX 6 12 1 -3
BITMAP
3C
20
20
FC
20
20
20
20
30
10
10
60
ENDCHAR
STARTCHAR 1D83
ENCODING 7555
SWIDTH 525 0
DWIDTH 7 0
BBX 8 10 0 -3
BITMAP
3C
48
44
48
78
C0
7F
89
C9
72
ENDCHAR
STARTCHAR 1D84
ENCODING 7556
SWIDTH 525 0
DWIDTH 7 0
BBX 6 12 1 -3
BITMAP
80
80
8C
98
B0
E0
B0
98
8C
04
04
0C
ENDCHAR
STARTCHAR 1D85
ENCODING 7557
SWIDTH 525 0
DWIDTH 7 0
BBX 5 12 1 -3
BITMAP
E0
20
20
20
20
20
20
20
F8
10
10
60
ENDCHAR
STARTCHAR 1D86
ENCODING 7558
SWIDTH 525 0
DWIDTH 7 0
BBX 7 10 1 -3
BITMAP
68
B4
A4
A4
A4
A4
A6
02
02
0C
ENDCHAR
STARTCHAR 1D87
ENCODING 7559
SWIDTH 525 0
DWIDTH 7 0
BBX 6 10 1 -3
BITMAP
B0
C8
88
88
88
88
8C
04
04
08
ENDCHAR
STARTCHAR 1D88
ENCODING 7560
SWIDTH 525 0
DWIDTH 7 0
BBX 6 10 1 -3
BITMAP
B0
C8
8C
8C
8C
88
F8
88
98
B0
ENDCHAR
STARTCHAR 1D89
ENCODING 7561
SWIDTH 525 0
DWIDTH 7 0
BBX 6 10 1 -3
BITMAP
98
A8
C4
80
80
80
E0
20
40
C0
ENDCHAR
STARTCHAR 1D8A
ENCODING 7562
SWIDTH 525 0
DWIDTH 7 0
BBX 6 10 1 -3
BITMAP
38
C0
C0
70
18
08
FC
04
08
18
ENDCHAR
STARTCHAR 1D8B
ENCODING 7563
SWIDTH 525 0
DWIDTH 7 0
BBX 6 12 1 -3
BITMAP
1C
20
20
20
20
20
20
20
3C
24
24
CC
ENDCHAR
STARTCHAR 1D8C
ENCODING 7564
SWIDTH 525 0
DWIDTH 7 0
BBX 7 10 0 -3
BITMAP
C2
44
44
2C
28
38
18
08
08
10
ENDCHAR
STARTCHAR 1D8D
ENCODING 7565
SWIDTH 525 0
DWIDTH 7 0
BBX 7 10 1 -3
BITMAP
8C
C8
50
30
70
58
8E
04
04
0C
ENDCHAR
STARTCHAR 1D8E
ENCODING 7566
SWIDTH 525 0
DWIDTH 7 0
BBX 5 10 1 -3
BITMAP
F8
08
10
20
60
40
F8
08
08
10
ENDCHAR
STARTCHAR 1D8F
ENCODING 7567
SWIDTH 525 0
DWIDTH 7 0
BBX 8 10 1 -3
BITMAP
70
88
08
78
88
88
FC
04
04
03
ENDCHAR
STARTCHAR 1D90
ENCODING 7568
SWIDTH 525 0
DWIDTH 7 0
BBX 8 10 1 -3
BITMAP
30
C8
88
88
88
98
FC
04
04
03
ENDCHAR
STARTCHAR 1D91
ENCODING 7569
SWIDTH 525 0
DWIDTH 7 0
BBX 7 12 1 -3
BITMAP
0E
08
38
C8
88
88
88
98
F8
08
08
06
ENDCHAR
STARTCHAR 1D92
ENCODING 7570
SWIDTH 525 0
DWIDTH 7 0
BBX 7 10 1 -3
BITMAP
30
C8
88
FC
80
80
78
08
08
06
ENDCHAR
STARTCHAR 1D93
ENCODING 7571
SWIDTH 525 0
DWIDTH 7 0
BBX 7 10 1 -3
BITMAP
38
C0
80
78
80
80
F8
08
0C
06
ENDCHAR
STARTCHAR 1D94
ENCODING 7572
SWIDTH 525 0
DWIDTH 7 0
BBX 5 10 1 -3
BITMAP
70
98
08
70
08
08
F8
80
80
40
ENDCHAR
STARTCHAR 1D95
ENCODING 7573
SWIDTH 525 0
DWIDTH 7 0
BBX 7 10 1 -3
BITMAP
70
98
08
FC
88
88
78
08
0C
06
ENDCHAR
STARTCHAR 1D96
ENCODING 7574
SWIDTH 525 0
DWIDTH 7 0
BBX 6 12 1 -3
BITMAP
30
20
E0
20
20
20
20
20
F8
10
10
0C
ENDCHAR
STARTCHAR 1D97
ENCODING 7575
SWIDTH 525 0
DWIDTH 7 0
BBX 5 10 1 -3
BITMAP
60
98
08
08
08
08
F0
80
80
60
ENDCHAR
STARTCHAR 1D98
ENCODING 7576
SWIDTH 525 0
DWIDTH 7 0
BBX 6 12 1 -3
BITMAP
1C
20
20
20
20
20
20
20
E0
80
80
40
ENDCHAR
STARTCHAR 1D99
ENCODING 7577
SWIDTH 525 0
DWIDTH 7 0
BBX 8 10 1 -3
BITMAP
88
88
88
88
88
88
7C
04
04
03
ENDCHAR
STARTCHAR 1D9A
ENCODING 7578
SWIDTH 525 0
DWIDTH 7 0
BBX 5 10 1 -3
BITMAP
F8
18
20
78
08
08
F8
80
80
40
ENDCHAR
STARTCHAR 1D9B
ENCODING 7579
SWIDTH 525 0
DWIDTH 7 0
BBX 4 4 2 5
BITMAP
E0
A0
90
E0
ENDCHAR
STARTCHAR 1D9C
ENCODING 7580
SWIDTH 525 0
DWIDTH 7 0
BBX 3 4 2 5
BITMAP
60
80
80
E0
ENDCHAR
STARTCHAR 1D9D
ENCODING 7581
SWIDTH 525 0
DWIDTH 7 0
BBX 3 5 2 4
BITMAP
60
80
80
E0
40
ENDCHAR
STARTCHAR 1D9E
ENCODING 7582
SWIDTH 525 0
DWIDTH 7 0
BBX 4 5 2 5
BITMAP
E0
20
E0
90
E0
ENDCHAR
STARTCHAR 1D9F
ENCODING 7583
SWIDTH 525 0
DWIDTH 7 0
BBX 4 5 2 4
BITMAP
40
B0
E0
20
E0
ENDCHAR
STARTCHAR 1DA0
ENCODING 7584
SWIDTH 525 0
DWIDTH 7 0
BBX 4 5 2 5
BITMAP
60
40
F0
40
40
ENDCHAR
STARTCHAR 1DA1
ENCODING 7585
SWIDTH 525 0
DWIDTH 7 0
BBX 4 5 2 4
BITMAP
40
40
F0
40
C0
ENDCHAR
STARTCHAR 1DA2
ENCODING 7586
SWIDTH 525 0
DWIDTH 7 0
BBX 4 5 2 4
BITMAP
E0
A0
C0
F0
F0
ENDCHAR
STARTCHAR 1DA3
ENCODING 7587
SWIDTH 525 0
DWIDTH 7 0
BBX 3 5 2 3
BITMAP
80
A0
A0
A0
60
ENDCHAR
STARTCHAR 1DA4
ENCODING 7588
SWIDTH 525 0
DWIDTH 7 0
BBX 3 5 2 5
BITMAP
40
C0
40
E0
E0
ENDCHAR
STARTCHAR 1DA5
ENCODING 7589
SWIDTH 525 0
DWIDTH 7 0
BBX 3 4 2 5
BITMAP
C0
40
40
60
ENDCHAR
STARTCHAR 1DA6
ENCODING 7590
SWIDTH 525 0
DWIDTH 7 0
BBX 3 5 2 5
BITMAP
E0
40
40
40
60
ENDCHAR
STARTCHAR 1DA7
ENCODING 7591
SWIDTH 525 0
DWIDTH 7 0
BBX 3 5 2 5
BITMAP
E0
40
E0
40
60
ENDCHAR
STARTCHAR 1DA8
ENCODING 7592
SWIDTH 525 0
DWIDTH 7 0
BBX 3 7 2 3
BITMAP
20
E0
20
20
20
E0
C0
ENDCHAR
STARTCHAR 1DA9
ENCODING 7593
SWIDTH 525 0
DWIDTH 7 0
BBX 2 7 3 3
BITMAP
80
80
80
80
80
80
C0
ENDCHAR
STARTCHAR 1DAA
ENCODING 7594
SWIDTH 525 0
DWIDTH 7 0
BBX 3 7 2 3
BITMAP
C0
40
40
40
40
A0
60
ENDCHAR
STARTCHAR 1DAB
ENCODING 7595
SWIDTH 525 0
DWIDTH 7 0
BBX 3 4 2 5
BITMAP
80
80
80
E0
ENDCHAR
STARTCHAR 1DAC
ENCODING 7596
SWIDTH 525 0
DWIDTH 7 0
BBX 4 6 2 3
BITMAP
70
D0
D0
D0
10
30
ENDCHAR
STARTCHAR 1DAD
ENCODING 7597
SWIDTH 525 0
DWIDTH 7 0
BBX 4 6 2 3
BITMAP
50
D0
D0
D0
30
10
ENDCHAR
STARTCHAR 1DAE
ENCODING 7598
SWIDTH 525 0
DWIDTH 7 0
BBX 4 6 1 3
BITMAP
70
50
50
50
40
C0
ENDCHAR
STARTCHAR 1DAF
ENCODING 7599
SWIDTH 525 0
DWIDTH 7 0
BBX 4 6 2 3
BITMAP
E0
A0
A0
A0
20
10
ENDCHAR
STARTCHAR 1DB0
ENCODING 7600
SWIDTH 525 0
DWIDTH 7 0
BBX 4 4 2 5
BITMAP
90
D0
D0
B0
ENDCHAR
STARTCHAR 1DB1
ENCODING 7601
SWIDTH 525 0
DWIDTH 7 0
BBX 4 4 2 5
BITMAP
60
90
F0
E0
ENDCHAR
STARTCHAR 1DB2
ENCODING 7602
SWIDTH 525 0
DWIDTH 7 0
BBX 5 7 1 3
BITMAP
20
70
A8
A8
68
30
20
ENDCHAR
STARTCHAR 1DB3
ENCODING 7603
SWIDTH 525 0
DWIDTH 7 0
BBX 3 6 2 3
BITMAP
60
80
60
20
C0
C0
ENDCHAR
STARTCHAR 1DB4
ENCODING 7604
SWIDTH 525 0
DWIDTH 7 0
BBX 3 7 2 3
BITMAP
60
40
40
40
40
40
C0
ENDCHAR
STARTCHAR 1DB5
ENCODING 7605
SWIDTH 525 0
DWIDTH 7 0
BBX 4 7 1 3
BITMAP
40
F0
40
40
40
30
30
ENDCHAR
STARTCHAR 1DB6
ENCODING 7606
SWIDTH 525 0
DWIDTH 7 0
BBX 3 4 2 5
BITMAP
80
A0
E0
E0
ENDCHAR
STARTCHAR 1DB7
ENCODING 7607
SWIDTH 525 0
DWIDTH 7 0
BBX 4 4 2 5
BITMAP
B0
A0
90
E0
ENDCHAR
STARTCHAR 1DB8
ENCODING 7608
SWIDTH 525 0
DWIDTH 7 0
BBX 4 4 2 5
BITMAP
90
90
90
E0
ENDCHAR
STARTCHAR 1DB9
ENCODING 7609
SWIDTH 525 0
DWIDTH 7 0
BBX 4 4 2 5
BITMAP
A0
90
90
E0
ENDCHAR
STARTCHAR 1DBA
ENCODING 7610
SWIDTH 525 0
DWIDTH 7 0
BBX 4 4 2 5
BITMAP
40
60
A0
90
ENDCHAR
STARTCHAR 1DBB
ENCODING 7611
SWIDTH 525 0
DWIDTH 7 0
BBX 3 4 2 5
BITMAP
E0
20
40
E0
ENDCHAR
STARTCHAR 1DBC
ENCODING 7612
SWIDTH 525 0
DWIDTH 7 0
BBX 4 6 2 3
BITMAP
E0
20
40
80
60
10
ENDCHAR
STARTCHAR 1DBD
ENCODING 7613
SWIDTH 525 0
DWIDTH 7 0
BBX 4 5 2 4
BITMAP
E0
20
40
B0
40
ENDCHAR
STARTCHAR 1DBE
ENCODING 7614
SWIDTH 525 0
DWIDTH 7 0
BBX 3 6 2 3
BITMAP
E0
20
40
20
20
C0
ENDCHAR
STARTCHAR 1DBF
ENCODING 7615
SWIDTH 525 0
DWIDTH 7 0
BBX 4 5 2 5
BITMAP
E0
90
F0
90
E0
ENDCHAR
STARTCHAR 1DC0
ENCODING 7616
SWIDTH 525 0
DWIDTH 7 0
BBX 5 4 1 7
BITMAP
48
78
30
D0
ENDCHAR
STARTCHAR 1DC1
ENCODING 7617
SWIDTH 525 0
DWIDTH 7 0
BBX 4 4 2 7
BITMAP
80
A0
40
B0
ENDCHAR
STARTCHAR 1DC2
ENCODING 7618
SWIDTH 525 0
DWIDTH 7 0
BBX 1 3 3 -3
BITMAP
80
80
80
ENDCHAR
STARTCHAR 1DC3
ENCODING 7619
SWIDTH 525 0
DWIDTH 7 0
BBX 4 3 2 7
BITMAP
10
B0
40
ENDCHAR
STARTCHAR 1DC4
ENCODING 7620
SWIDTH 525 0
DWIDTH 7 0
BBX 5 2 1 8
BITMAP
08
F0
ENDCHAR
STARTCHAR 1DC5
ENCODING 7621
SWIDTH 525 0
DWIDTH 7 0
BBX 5 2 1 8
BITMAP
C0
78
ENDCHAR
STARTCHAR 1DC6
ENCODING 7622
SWIDTH 525 0
DWIDTH 7 0
BBX 5 2 1 8
BITMAP
F0
08
ENDCHAR
STARTCHAR 1DC7
ENCODING 7623
SWIDTH 525 0
DWIDTH 7 0
BBX 5 2 1 8
BITMAP
78
80
ENDCHAR
STARTCHAR 1DC8
ENCODING 7624
SWIDTH 525 0
DWIDTH 7 0
BBX 7 2 0 8
BITMAP
CC
36
ENDCHAR
STARTCHAR 1DC9
ENCODING 7625
SWIDTH 525 0
DWIDTH 7 0
BBX 6 2 1 8
BITMAP
6C
B8
ENDCHAR
STARTCHAR 1DCA
ENCODING 7626
SWIDTH 525 0
DWIDTH 7 0
BBX 3 3 2 -3
BITMAP
E0
80
80
ENDCHAR
STARTCHAR 1DFE
ENCODING 7678
SWIDTH 525 0
DWIDTH 7 0
BBX 2 3 3 7
BITMAP
40
80
40
ENDCHAR
STARTCHAR 1DFF
ENCODING 7679
SWIDTH 525 0
DWIDTH 7 0
BBX 4 3 1 -3
BITMAP
80
70
80
ENDCHAR
STARTCHAR 1E00
ENCODING 7680
SWIDTH 525 0
DWIDTH 7 0
BBX 7 12 0 -3
BITMAP
10
18
28
28
24
44
7C
42
82
00
38
18
ENDCHAR
STARTCHAR 1E01
ENCODING 7681
SWIDTH 525 0
DWIDTH 7 0
BBX 5 10 1 -3
BITMAP
70
88
08
78
88
88
F8
00
70
30
ENDCHAR
STARTCHAR 1E02
ENCODING 7682
SWIDTH 525 0
DWIDTH 7 0
BBX 6 11 1 0
BITMAP
20
20
E0
98
88
88
F0
88
8C
88
F0
ENDCHAR
STARTCHAR 1E03
ENCODING 7683
SWIDTH 525 0
DWIDTH 7 0
BBX 6 9 1 0
BITMAP
B0
80
B0
C8
8C
8C
8C
88
F0
ENDCHAR
STARTCHAR 1E04
ENCODING 7684
SWIDTH 525 0
DWIDTH 7 0
BBX 6 12 1 -3
BITMAP
E0
98
88
88
F0
88
8C
88
F0
00
30
20
ENDCHAR
STARTCHAR 1E05
ENCODING 7685
SWIDTH 525 0
DWIDTH 7 0
BBX 6 12 1 -3
BITMAP
80
80
B0
C8
8C
8C
8C
88
F0
00
30
20
ENDCHAR
STARTCHAR 1E06
ENCODING 7686
SWIDTH 525 0
DWIDTH 7 0
BBX 6 11 1 -3
BITMAP
E0
98
88
88
F0
88
8C
88
F0
00
70
ENDCHAR
STARTCHAR 1E07
ENCODING 7687
SWIDTH 525 0
DWIDTH 7 0
BBX 6 11 1 -3
BITMAP
80
80
B0
C8
8C
8C
8C
88
F0
00
70
ENDCHAR
STARTCHAR 1E08
ENCODING 7688
SWIDTH 525 0
DWIDTH 7 0
BBX 5 13 1 -2
BITMAP
18
20
38
68
80
80
80
80
80
C0
78
20
20
ENDCHAR
STARTCHAR 1E09
ENCODING 7689
SWIDTH 525 0
DWIDTH 7 0
BBX 5 11 1 -2
BITMAP
18
20
38
68
80
80
80
C0
78
20
20
ENDCHAR
STARTCHAR 1E0A
ENCODING 7690
SWIDTH 525 0
DWIDTH 7 0
BBX 6 11 1 0
BITMAP
20
20
C0
B8
88
84
84
84
8C
88
F0
ENDCHAR
STARTCHAR 1E0B
ENCODING 7691
SWIDTH 525 0
DWIDTH 7 0
BBX 5 9 1 0
BITMAP
68
08
38
C8
88
88
88
98
F8
ENDCHAR
STARTCHAR 1E0C
ENCODING 7692
SWIDTH 525 0
DWIDTH 7 0
BBX 6 12 1 -3
BITMAP
C0
B8
88
84
84
84
8C
88
F0
00
30
20
ENDCHAR
STARTCHAR 1E0D
ENCODING 7693
SWIDTH 525 0
DWIDTH 7 0
BBX 5 12 1 -3
BITMAP
08
08
38
C8
88
88
88
98
F8
00
30
20
ENDCHAR
STARTCHAR 1E0E
ENCODING 7694
SWIDTH 525 0
DWIDTH 7 0
BBX 6 11 1 -3
BITMAP
C0
B8
88
84
84
84
8C
88
F0
00
70
ENDCHAR
STARTCHAR 1E0F
ENCODING 7695
SWIDTH 525 0
DWIDTH 7 0
BBX 5 11 1 -3
BITMAP
08
08
38
C8
88
88
88
98
F8
00
70
ENDCHAR
STARTCHAR 1E10
ENCODING 7696
SWIDTH 525 0
DWIDTH 7 0
BBX 6 12 1 -3
BITMAP
C0
B8
88
84
84
84
8C
88
F0
00
20
20
ENDCHAR
STARTCHAR 1E11
ENCODING 7697
SWIDTH 525 0
DWIDTH 7 0
BBX 5 12 1 -3
BITMAP
08
08
38
C8
88
88
88
98
F8
00
20
20
ENDCHAR
STARTCHAR 1E12
ENCODING 7698
SWIDTH 525 0
DWIDTH 7 0
BBX 6 11 1 -3
BITMAP
C0
B8
88
84
84
84
8C
88
F0
00
70
ENDCHAR
STARTCHAR 1E13
ENCODING 7699
SWIDTH 525 0
DWIDTH 7 0
BBX 5 11 1 -3
BITMAP
08
08
38
C8
88
88
88
98
F8
00
70
ENDCHAR
STARTCHAR 1E14
ENCODING 7700
SWIDTH 525 0
DWIDTH 7 0
BBX 5 12 1 0
BITMAP
60
78
00
F8
80
80
80
F8
80
80
80
F8
ENDCHAR
STARTCHAR 1E15
ENCODING 7701
SWIDTH 525 0
DWIDTH 7 0
BBX 6 11 1 0
BITMAP
40
20
70
00
30
C8
88
FC
80
80
78
ENDCHAR
STARTCHAR 1E16
ENCODING 7702
SWIDTH 525 0
DWIDTH 7 0
BBX 5 12 1 0
BITMAP
30
78
00
F8
80
80
80
F8
80
80
80
F8
ENDCHAR
STARTCHAR 1E17
ENCODING 7703
SWIDTH 525 0
DWIDTH 7 0
BBX 6 11 1 0
BITMAP
10
20
70
00
30
C8
88
FC
80
80
78
ENDCHAR
STARTCHAR 1E18
ENCODING 7704
SWIDTH 525 0
DWIDTH 7 0
BBX 5 11 1 -3
BITMAP
F8
80
80
80
F8
80
80
80
F8
00
70
ENDCHAR
STARTCHAR 1E19
ENCODING 7705
SWIDTH 525 0
DWIDTH 7 0
BBX 6 10 1 -3
BITMAP
30
C8
88
FC
80
80
78
00
30
40
ENDCHAR
STARTCHAR 1E1A
ENCODING 7706
SWIDTH 525 0
DWIDTH 7 0
BBX 5 11 1 -3
BITMAP
F8
80
80
80
F8
80
80
80
F8
00
F8
ENDCHAR
STARTCHAR 1E1B
ENCODING 7707
SWIDTH 525 0
DWIDTH 7 0
BBX 6 9 1 -3
BITMAP
30
C8
88
FC
80
80
78
00
78
ENDCHAR
STARTCHAR 1E1C
ENCODING 7708
SWIDTH 525 0
DWIDTH 7 0
BBX 5 13 1 -2
BITMAP
50
30
F8
80
80
80
F8
80
80
80
F8
20
20
ENDCHAR
STARTCHAR 1E1D
ENCODING 7709
SWIDTH 525 0
DWIDTH 7 0
BBX 6 11 1 -2
BITMAP
50
20
30
C8
88
FC
80
80
78
20
20
ENDCHAR
STARTCHAR 1E1E
ENCODING 7710
SWIDTH 525 0
DWIDTH 7 0
BBX 5 11 1 0
BITMAP
20
20
F8
C0
C0
C0
F8
C0
C0
C0
C0
ENDCHAR
STARTCHAR 1E1F
ENCODING 7711
SWIDTH 525 0
DWIDTH 7 0
BBX 6 12 1 0
BITMAP
10
18
00
3C
20
20
FC
20
20
20
20
20
ENDCHAR
STARTCHAR 1E20
ENCODING 7712
SWIDTH 525 0
DWIDTH 7 0
BBX 7 11 0 0
BITMAP
3C
00
1C
36
40
40
CE
C6
46
66
3E
ENDCHAR
STARTCHAR 1E21
ENCODING 7713
SWIDTH 525 0
DWIDTH 7 0
BBX 6 12 1 -3
BITMAP
70
00
3C
D8
88
88
F0
80
F8
84
8C
70
ENDCHAR
STARTCHAR 1E22
ENCODING 7714
SWIDTH 525 0
DWIDTH 7 0
BBX 6 11 1 0
BITMAP
20
20
8C
8C
8C
8C
FC
8C
8C
8C
8C
ENDCHAR
STARTCHAR 1E23
ENCODING 7715
SWIDTH 525 0
DWIDTH 7 0
BBX 5 9 1 0
BITMAP
B0
80
B0
C8
88
88
88
88
88
ENDCHAR
STARTCHAR 1E24
ENCODING 7716
SWIDTH 525 0
DWIDTH 7 0
BBX 6 12 1 -3
BITMAP
8C
8C
8C
8C
FC
8C
8C
8C
8C
00
30
20
ENDCHAR
STARTCHAR 1E25
ENCODING 7717
SWIDTH 525 0
DWIDTH 7 0
BBX 5 12 1 -3
BITMAP
80
80
B0
C8
88
88
88
88
88
00
30
20
ENDCHAR
STARTCHAR 1E26
ENCODING 7718
SWIDTH 525 0
DWIDTH 7 0
BBX 6 11 1 0
BITMAP
48
40
8C
8C
8C
8C
FC
8C
8C
8C
8C
ENDCHAR
STARTCHAR 1E27
ENCODING 7719
SWIDTH 525 0
DWIDTH 7 0
BBX 5 11 1 0
BITMAP
58
00
80
80
B0
C8
88
88
88
88
88
ENDCHAR
STARTCHAR 1E28
ENCODING 7720
SWIDTH 525 0
DWIDTH 7 0
BBX 7 11 0 -2
BITMAP
46
46
46
46
7E
46
46
46
46
40
80
ENDCHAR
STARTCHAR 1E29
ENCODING 7721
SWIDTH 525 0
DWIDTH 7 0
BBX 5 11 1 -2
BITMAP
80
80
B0
C8
88
88
88
88
88
80
80
ENDCHAR
STARTCHAR 1E2A
ENCODING 7722
SWIDTH 525 0
DWIDTH 7 0
BBX 6 11 1 -3
BITMAP
8C
8C
8C
8C
FC
8C
8C
8C
8C
50
70
ENDCHAR
STARTCHAR 1E2B
ENCODING 7723
SWIDTH 525 0
DWIDTH 7 0
BBX 5 11 1 -3
BITMAP
80
80
B0
C8
88
88
88
88
88
50
70
ENDCHAR
STARTCHAR 1E2C
ENCODING 7724
SWIDTH 525 0
DWIDTH 7 0
BBX 5 11 1 -3
BITMAP
F8
20
20
20
20
20
20
20
F8
00
F8
ENDCHAR
STARTCHAR 1E2D
ENCODING 7725
SWIDTH 525 0
DWIDTH 7 0
BBX 5 11 1 -3
BITMAP
30
20
E0
20
20
20
20
20
F8
00
F8
ENDCHAR
STARTCHAR 1E2E
ENCODING 7726
SWIDTH 525 0
DWIDTH 7 0
BBX 5 13 1 0
BITMAP
10
20
48
40
F8
20
20
20
20
20
20
20
F8
ENDCHAR
STARTCHAR 1E2F
ENCODING 7727
SWIDTH 525 0
DWIDTH 7 0
BBX 5 11 1 0
BITMAP
10
20
48
48
E0
20
20
20
20
20
F8
ENDCHAR
STARTCHAR 1E30
ENCODING 7728
SWIDTH 525 0
DWIDTH 7 0
BBX 6 11 1 0
BITMAP
18
20
8C
88
90
A0
C0
A0
B0
98
88
ENDCHAR
STARTCHAR 1E31
ENCODING 7729
SWIDTH 525 0
DWIDTH 7 0
BBX 6 11 1 0
BITMAP
18
20
80
80
8C
98
B0
E0
B0
98
88
ENDCHAR
STARTCHAR 1E32
ENCODING 7730
SWIDTH 525 0
DWIDTH 7 0
BBX 6 12 1 -3
BITMAP
8C
88
90
A0
C0
A0
B0
98
88
00
30
20
ENDCHAR
STARTCHAR 1E33
ENCODING 7731
SWIDTH 525 0
DWIDTH 7 0
BBX 6 12 1 -3
BITMAP
80
80
8C
98
B0
E0
B0
98
88
00
30
20
ENDCHAR
STARTCHAR 1E34
ENCODING 7732
SWIDTH 525 0
DWIDTH 7 0
BBX 6 11 1 -3
BITMAP
8C
88
90
A0
C0
A0
B0
98
88
00
70
ENDCHAR
STARTCHAR 1E35
ENCODING 7733
SWIDTH 525 0
DWIDTH 7 0
BBX 6 11 1 -3
BITMAP
80
80
8C
98
B0
E0
B0
98
88
00
70
ENDCHAR
STARTCHAR 1E36
ENCODING 7734
SWIDTH 525 0
DWIDTH 7 0
BBX 4 11 2 -3
BITMAP
80
80
80
80
80
80
80
80
F0
00
60
ENDCHAR
STARTCHAR 1E37
ENCODING 7735
SWIDTH 525 0
DWIDTH 7 0
BBX 5 11 1 -3
BITMAP
E0
20
20
20
20
20
20
20
F8
00
30
ENDCHAR
STARTCHAR 1E38
ENCODING 7736
SWIDTH 525 0
DWIDTH 7 0
BBX 4 13 2 -3
BITMAP
F0
00
80
80
80
80
80
80
80
80
F0
00
60
ENDCHAR
STARTCHAR 1E39
ENCODING 7737
SWIDTH 525 0
DWIDTH 7 0
BBX 5 13 1 -3
BITMAP
70
00
E0
20
20
20
20
20
20
20
F8
00
30
ENDCHAR
STARTCHAR 1E3A
ENCODING 7738
SWIDTH 525 0
DWIDTH 7 0
BBX 4 11 2 -3
BITMAP
80
80
80
80
80
80
80
80
F0
00
F0
ENDCHAR
STARTCHAR 1E3B
ENCODING 7739
SWIDTH 525 0
DWIDTH 7 0
BBX 5 11 1 -3
BITMAP
E0
20
20
20
20
20
20
20
F8
00
78
ENDCHAR
STARTCHAR 1E3C
ENCODING 7740
SWIDTH 525 0
DWIDTH 7 0
BBX 4 12 2 -3
BITMAP
80
80
80
80
80
80
80
80
F0
00
60
90
ENDCHAR
STARTCHAR 1E3D
ENCODING 7741
SWIDTH 525 0
DWIDTH 7 0
BBX 5 11 1 -3
BITMAP
E0
20
20
20
20
20
20
20
F8
00
70
ENDCHAR
STARTCHAR 1E3E
ENCODING 7742
SWIDTH 525 0
DWIDTH 7 0
BBX 7 11 0 0
BITMAP
0C
10
46
46
6A
6A
5A
D2
82
82
82
ENDCHAR
STARTCHAR 1E3F
ENCODING 7743
SWIDTH 525 0
DWIDTH 7 0
BBX 7 9 0 0
BITMAP
0C
10
34
DA
52
52
52
52
52
ENDCHAR
STARTCHAR 1E40
ENCODING 7744
SWIDTH 525 0
DWIDTH 7 0
BBX 7 11 0 0
BITMAP
10
10
46
46
6A
6A
5A
D2
82
82
82
ENDCHAR
STARTCHAR 1E41
ENCODING 7745
SWIDTH 525 0
DWIDTH 7 0
BBX 7 9 0 0
BITMAP
18
00
34
DA
52
52
52
52
52
ENDCHAR
STARTCHAR 1E42
ENCODING 7746
SWIDTH 525 0
DWIDTH 7 0
BBX 7 12 0 -3
BITMAP
46
46
6A
6A
5A
D2
82
82
82
00
18
10
ENDCHAR
STARTCHAR 1E43
ENCODING 7747
SWIDTH 525 0
DWIDTH 7 0
BBX 6 10 1 -3
BITMAP
68
B4
A4
A4
A4
A4
A4
00
30
20
ENDCHAR
STARTCHAR 1E44
ENCODING 7748
SWIDTH 525 0
DWIDTH 7 0
BBX 6 11 1 0
BITMAP
20
20
8C
CC
CC
EC
AC
BC
9C
9C
8C
ENDCHAR
STARTCHAR 1E45
ENCODING 7749
SWIDTH 525 0
DWIDTH 7 0
BBX 5 9 1 0
BITMAP
30
00
B0
C8
88
88
88
88
88
ENDCHAR
STARTCHAR 1E46
ENCODING 7750
SWIDTH 525 0
DWIDTH 7 0
BBX 6 12 1 -3
BITMAP
8C
CC
CC
EC
AC
BC
9C
9C
8C
00
30
20
ENDCHAR
STARTCHAR 1E47
ENCODING 7751
SWIDTH 525 0
DWIDTH 7 0
BBX 5 10 1 -3
BITMAP
B0
C8
88
88
88
88
88
00
30
20
ENDCHAR
STARTCHAR 1E48
ENCODING 7752
SWIDTH 525 0
DWIDTH 7 0
BBX 6 11 1 -3
BITMAP
8C
CC
CC
EC
AC
BC
9C
9C
8C
00
70
ENDCHAR
STARTCHAR 1E49
ENCODING 7753
SWIDTH 525 0
DWIDTH 7 0
BBX 5 9 1 -3
BITMAP
B0
C8
88
88
88
88
88
00
70
ENDCHAR
STARTCHAR 1E4A
ENCODING 7754
SWIDTH 525 0
DWIDTH 7 0
BBX 6 11 1 -3
BITMAP
8C
CC
CC
EC
AC
BC
9C
9C
8C
00
70
ENDCHAR
STARTCHAR 1E4B
ENCODING 7755
SWIDTH 525 0
DWIDTH 7 0
BBX 5 9 1 -3
BITMAP
B0
C8
88
88
88
88
88
00
70
ENDCHAR
STARTCHAR 1E4C
ENCODING 7756
SWIDTH 525 0
DWIDTH 7 0
BBX 7 12 0 0
BITMAP
18
34
08
18
6C
46
C2
C2
C2
42
44
3C
ENDCHAR
STARTCHAR 1E4D
ENCODING 7757
SWIDTH 525 0
DWIDTH 7 0
BBX 6 11 1 0
BITMAP
10
20
F8
00
30
C8
8C
84
84
88
78
ENDCHAR
STARTCHAR 1E4E
ENCODING 7758
SWIDTH 525 0
DWIDTH 7 0
BBX 7 13 0 0
BITMAP
24
24
34
08
18
6C
46
C2
C2
C2
42
44
3C
ENDCHAR
STARTCHAR 1E4F
ENCODING 7759
SWIDTH 525 0
DWIDTH 7 0
BBX 6 11 1 0
BITMAP
58
00
F8
00
30
C8
8C
84
84
88
78
ENDCHAR
STARTCHAR 1E50
ENCODING 7760
SWIDTH 525 0
DWIDTH 7 0
BBX 7 12 0 0
BITMAP
30
3C
00
18
6C
46
C2
C2
C2
42
44
3C
ENDCHAR
STARTCHAR 1E51
ENCODING 7761
SWIDTH 525 0
DWIDTH 7 0
BBX 6 11 1 0
BITMAP
40
20
70
00
30
C8
8C
84
84
88
78
ENDCHAR
STARTCHAR 1E52
ENCODING 7762
SWIDTH 525 0
DWIDTH 7 0
BBX 7 12 0 0
BITMAP
18
3C
00
18
6C
46
C2
C2
C2
42
44
3C
ENDCHAR
STARTCHAR 1E53
ENCODING 7763
SWIDTH 525 0
DWIDTH 7 0
BBX 6 11 1 0
BITMAP
10
20
70
00
30
C8
8C
84
84
88
78
ENDCHAR
STARTCHAR 1E54
ENCODING 7764
SWIDTH 525 0
DWIDTH 7 0
BBX 6 11 1 0
BITMAP
18
20
C0
B8
8C
8C
88
F0
80
80
80
ENDCHAR
STARTCHAR 1E55
ENCODING 7765
SWIDTH 525 0
DWIDTH 7 0
BBX 6 12 1 -3
BITMAP
18
20
B0
C8
8C
8C
8C
88
F0
80
80
80
ENDCHAR
STARTCHAR 1E56
ENCODING 7766
SWIDTH 525 0
DWIDTH 7 0
BBX 6 11 1 0
BITMAP
20
20
C0
B8
8C
8C
88
F0
80
80
80
ENDCHAR
STARTCHAR 1E57
ENCODING 7767
SWIDTH 525 0
DWIDTH 7 0
BBX 6 12 1 -3
BITMAP
30
00
B0
C8
8C
8C
8C
88
F0
80
80
80
ENDCHAR
STARTCHAR 1E58
ENCODING 7768
SWIDTH 525 0
DWIDTH 7 0
BBX 6 11 1 0
BITMAP
20
20
C0
B8
88
88
F0
90
98
88
8C
ENDCHAR
STARTCHAR 1E59
ENCODING 7769
SWIDTH 525 0
DWIDTH 7 0
BBX 6 9 1 0
BITMAP
30
00
98
A8
C4
80
80
80
80
ENDCHAR
STARTCHAR 1E5A
ENCODING 7770
SWIDTH 525 0
DWIDTH 7 0
BBX 6 12 1 -3
BITMAP
C0
B8
88
88
F0
90
98
88
8C
00
30
20
ENDCHAR
STARTCHAR 1E5B
ENCODING 7771
SWIDTH 525 0
DWIDTH 7 0
BBX 6 9 1 -3
BITMAP
98
A8
C4
80
80
80
80
00
C0
ENDCHAR
STARTCHAR 1E5C
ENCODING 7772
SWIDTH 525 0
DWIDTH 7 0
BBX 6 14 1 -3
BITMAP
78
00
C0
B8
88
88
F0
90
98
88
8C
00
30
20
ENDCHAR
STARTCHAR 1E5D
ENCODING 7773
SWIDTH 525 0
DWIDTH 7 0
BBX 6 11 1 -3
BITMAP
70
00
98
A8
C4
80
80
80
80
00
C0
ENDCHAR
STARTCHAR 1E5E
ENCODING 7774
SWIDTH 525 0
DWIDTH 7 0
BBX 6 11 1 -3
BITMAP
C0
B8
88
88
F0
90
98
88
8C
00
70
ENDCHAR
STARTCHAR 1E5F
ENCODING 7775
SWIDTH 525 0
DWIDTH 7 0
BBX 7 9 0 -3
BITMAP
4C
54
62
40
40
40
40
00
F0
ENDCHAR
STARTCHAR 1E60
ENCODING 7776
SWIDTH 525 0
DWIDTH 7 0
BBX 5 11 1 0
BITMAP
20
20
30
C8
80
C0
70
18
08
08
F8
ENDCHAR
STARTCHAR 1E61
ENCODING 7777
SWIDTH 525 0
DWIDTH 7 0
BBX 5 9 1 0
BITMAP
30
00
38
C0
C0
70
18
08
F8
ENDCHAR
STARTCHAR 1E62
ENCODING 7778
SWIDTH 525 0
DWIDTH 7 0
BBX 5 12 1 -3
BITMAP
30
C8
80
C0
70
18
08
08
F8
00
30
20
ENDCHAR
STARTCHAR 1E63
ENCODING 7779
SWIDTH 525 0
DWIDTH 7 0
BBX 5 10 1 -3
BITMAP
38
C0
C0
70
18
08
F8
00
30
20
ENDCHAR
STARTCHAR 1E64
ENCODING 7780
SWIDTH 525 0
DWIDTH 7 0
BBX 5 12 1 0
BITMAP
60
18
20
30
C8
80
C0
70
18
08
08
F8
ENDCHAR
STARTCHAR 1E65
ENCODING 7781
SWIDTH 525 0
DWIDTH 7 0
BBX 5 10 1 0
BITMAP
40
58
20
38
C0
C0
70
18
08
F8
ENDCHAR
STARTCHAR 1E66
ENCODING 7782
SWIDTH 525 0
DWIDTH 7 0
BBX 5 13 1 0
BITMAP
20
20
50
20
30
C8
80
C0
70
18
08
08
F8
ENDCHAR
STARTCHAR 1E67
ENCODING 7783
SWIDTH 525 0
DWIDTH 7 0
BBX 5 11 1 0
BITMAP
30
20
70
00
38
C0
C0
70
18
08
F8
ENDCHAR
STARTCHAR 1E68
ENCODING 7784
SWIDTH 525 0
DWIDTH 7 0
BBX 5 14 1 -3
BITMAP
20
20
30
C8
80
C0
70
18
08
08
F8
00
30
20
ENDCHAR
STARTCHAR 1E69
ENCODING 7785
SWIDTH 525 0
DWIDTH 7 0
BBX 5 12 1 -3
BITMAP
30
00
38
C0
C0
70
18
08
F8
00
30
20
ENDCHAR
STARTCHAR 1E6A
ENCODING 7786
SWIDTH 525 0
DWIDTH 7 0
BBX 6 11 1 0
BITMAP
20
20
FC
20
20
20
20
20
20
20
20
ENDCHAR
STARTCHAR 1E6B
ENCODING 7787
SWIDTH 525 0
DWIDTH 7 0
BBX 6 11 0 0
BITMAP
30
20
00
20
FC
20
20
20
20
30
1C
ENDCHAR
STARTCHAR 1E6C
ENCODING 7788
SWIDTH 525 0
DWIDTH 7 0
BBX 6 12 1 -3
BITMAP
FC
20
20
20
20
20
20
20
20
00
30
20
ENDCHAR
STARTCHAR 1E6D
ENCODING 7789
SWIDTH 525 0
DWIDTH 7 0
BBX 6 11 0 -2
BITMAP
20
FC
20
20
20
20
30
1C
00
18
10
ENDCHAR
STARTCHAR 1E6E
ENCODING 7790
SWIDTH 525 0
DWIDTH 7 0
BBX 6 11 1 -3
BITMAP
FC
20
20
20
20
20
20
20
20
00
70
ENDCHAR
STARTCHAR 1E6F
ENCODING 7791
SWIDTH 525 0
DWIDTH 7 0
BBX 6 10 0 -2
BITMAP
20
FC
20
20
20
20
30
1C
00
38
ENDCHAR
STARTCHAR 1E70
ENCODING 7792
SWIDTH 525 0
DWIDTH 7 0
BBX 6 11 1 -3
BITMAP
FC
20
20
20
20
20
20
20
20
00
70
ENDCHAR
STARTCHAR 1E71
ENCODING 7793
SWIDTH 525 0
DWIDTH 7 0
BBX 6 10 0 -2
BITMAP
20
FC
20
20
20
20
30
1C
00
38
ENDCHAR
STARTCHAR 1E72
ENCODING 7794
SWIDTH 525 0
DWIDTH 7 0
BBX 6 11 1 -2
BITMAP
8C
8C
8C
8C
8C
8C
8C
88
78
00
58
ENDCHAR
STARTCHAR 1E73
ENCODING 7795
SWIDTH 525 0
DWIDTH 7 0
BBX 5 9 1 -2
BITMAP
88
88
88
88
88
88
78
00
58
ENDCHAR
STARTCHAR 1E74
ENCODING 7796
SWIDTH 525 0
DWIDTH 7 0
BBX 6 11 1 -3
BITMAP
8C
8C
8C
8C
8C
8C
8C
88
78
00
F8
ENDCHAR
STARTCHAR 1E75
ENCODING 7797
SWIDTH 525 0
DWIDTH 7 0
BBX 5 9 1 -3
BITMAP
88
88
88
88
88
88
78
00
F8
ENDCHAR
STARTCHAR 1E76
ENCODING 7798
SWIDTH 525 0
DWIDTH 7 0
BBX 6 11 1 -3
BITMAP
8C
8C
8C
8C
8C
8C
8C
88
78
00
70
ENDCHAR
STARTCHAR 1E77
ENCODING 7799
SWIDTH 525 0
DWIDTH 7 0
BBX 5 9 1 -3
BITMAP
88
88
88
88
88
88
78
00
70
ENDCHAR
STARTCHAR 1E78
ENCODING 7800
SWIDTH 525 0
DWIDTH 7 0
BBX 6 12 1 0
BITMAP
30
68
10
8C
8C
8C
8C
8C
8C
8C
88
78
ENDCHAR
STARTCHAR 1E79
ENCODING 7801
SWIDTH 525 0
DWIDTH 7 0
BBX 5 11 1 0
BITMAP
10
20
F8
00
88
88
88
88
88
88
78
ENDCHAR
STARTCHAR 1E7A
ENCODING 7802
SWIDTH 525 0
DWIDTH 7 0
BBX 6 13 1 0
BITMAP
48
48
78
00
8C
8C
8C
8C
8C
8C
8C
88
78
ENDCHAR
STARTCHAR 1E7B
ENCODING 7803
SWIDTH 525 0
DWIDTH 7 0
BBX 5 11 1 0
BITMAP
58
00
70
00
88
88
88
88
88
88
78
ENDCHAR
STARTCHAR 1E7C
ENCODING 7804
SWIDTH 525 0
DWIDTH 7 0
BBX 7 11 0 0
BITMAP
34
08
82
C2
46
44
64
2C
28
38
18
ENDCHAR
STARTCHAR 1E7D
ENCODING 7805
SWIDTH 525 0
DWIDTH 7 0
BBX 7 9 0 0
BITMAP
7C
00
C2
44
44
2C
28
38
10
ENDCHAR
STARTCHAR 1E7E
ENCODING 7806
SWIDTH 525 0
DWIDTH 7 0
BBX 7 12 0 -3
BITMAP
82
C2
46
44
64
2C
28
38
18
00
18
10
ENDCHAR
STARTCHAR 1E7F
ENCODING 7807
SWIDTH 525 0
DWIDTH 7 0
BBX 7 10 0 -3
BITMAP
C2
44
44
2C
28
38
10
00
18
10
ENDCHAR
STARTCHAR 1E80
ENCODING 7808
SWIDTH 525 0
DWIDTH 7 0
BBX 7 11 0 0
BITMAP
20
10
82
82
C2
52
52
6A
6A
6E
46
ENDCHAR
STARTCHAR 1E81
ENCODING 7809
SWIDTH 525 0
DWIDTH 7 0
BBX 7 9 0 0
BITMAP
20
10
82
82
52
5A
6A
6C
64
ENDCHAR
STARTCHAR 1E82
ENCODING 7810
SWIDTH 525 0
DWIDTH 7 0
BBX 7 11 0 0
BITMAP
0C
10
82
82
C2
52
52
6A
6A
6E
46
ENDCHAR
STARTCHAR 1E83
ENCODING 7811
SWIDTH 525 0
DWIDTH 7 0
BBX 7 9 0 0
BITMAP
0C
10
82
82
52
5A
6A
6C
64
ENDCHAR
STARTCHAR 1E84
ENCODING 7812
SWIDTH 525 0
DWIDTH 7 0
BBX 7 11 0 0
BITMAP
24
20
82
82
C2
52
52
6A
6A
6E
46
ENDCHAR
STARTCHAR 1E85
ENCODING 7813
SWIDTH 525 0
DWIDTH 7 0
BBX 7 9 0 0
BITMAP
2C
00
82
82
52
5A
6A
6C
64
ENDCHAR
STARTCHAR 1E86
ENCODING 7814
SWIDTH 525 0
DWIDTH 7 0
BBX 7 11 0 0
BITMAP
10
10
82
82
C2
52
52
6A
6A
6E
46
ENDCHAR
STARTCHAR 1E87
ENCODING 7815
SWIDTH 525 0
DWIDTH 7 0
BBX 7 9 0 0
BITMAP
18
00
82
82
52
5A
6A
6C
64
ENDCHAR
STARTCHAR 1E88
ENCODING 7816
SWIDTH 525 0
DWIDTH 7 0
BBX 7 12 0 -3
BITMAP
82
82
C2
52
52
6A
6A
6E
46
00
18
10
ENDCHAR
STARTCHAR 1E89
ENCODING 7817
SWIDTH 525 0
DWIDTH 7 0
BBX 7 10 0 -3
BITMAP
82
82
52
5A
6A
6C
64
00
18
10
ENDCHAR
STARTCHAR 1E8A
ENCODING 7818
SWIDTH 525 0
DWIDTH 7 0
BBX 7 11 0 0
BITMAP
10
10
C2
44
2C
38
10
38
2C
44
C6
ENDCHAR
STARTCHAR 1E8B
ENCODING 7819
SWIDTH 525 0
DWIDTH 7 0
BBX 6 9 1 0
BITMAP
30
00
8C
C8
50
30
70
58
8C
ENDCHAR
STARTCHAR 1E8C
ENCODING 7820
SWIDTH 525 0
DWIDTH 7 0
BBX 7 11 0 0
BITMAP
24
20
C2
44
2C
38
10
38
2C
44
C6
ENDCHAR
STARTCHAR 1E8D
ENCODING 7821
SWIDTH 525 0
DWIDTH 7 0
BBX 6 9 1 0
BITMAP
58
00
8C
C8
50
30
70
58
8C
ENDCHAR
STARTCHAR 1E8E
ENCODING 7822
SWIDTH 525 0
DWIDTH 7 0
BBX 7 11 0 0
BITMAP
10
10
82
46
44
2C
38
18
10
10
10
ENDCHAR
STARTCHAR 1E8F
ENCODING 7823
SWIDTH 525 0
DWIDTH 7 0
BBX 7 12 0 -3
BITMAP
18
00
C2
44
44
24
28
38
18
10
20
C0
ENDCHAR
STARTCHAR 1E90
ENCODING 7824
SWIDTH 525 0
DWIDTH 7 0
BBX 6 11 1 0
BITMAP
30
58
FC
F8
18
10
20
60
40
80
FC
ENDCHAR
STARTCHAR 1E91
ENCODING 7825
SWIDTH 525 0
DWIDTH 7 0
BBX 5 9 1 0
BITMAP
70
00
F8
08
10
20
60
40
F8
ENDCHAR
STARTCHAR 1E92
ENCODING 7826
SWIDTH 525 0
DWIDTH 7 0
BBX 6 12 1 -3
BITMAP
FC
F8
18
10
20
60
40
80
FC
00
30
20
ENDCHAR
STARTCHAR 1E93
ENCODING 7827
SWIDTH 525 0
DWIDTH 7 0
BBX 5 10 1 -3
BITMAP
F8
08
10
20
60
40
F8
00
30
20
ENDCHAR
STARTCHAR 1E94
ENCODING 7828
SWIDTH 525 0
DWIDTH 7 0
BBX 6 11 1 -3
BITMAP
FC
F8
18
10
20
60
40
80
FC
00
70
ENDCHAR
STARTCHAR 1E95
ENCODING 7829
SWIDTH 525 0
DWIDTH 7 0
BBX 5 9 1 -3
BITMAP
F8
08
10
20
60
40
F8
00
70
ENDCHAR
STARTCHAR 1E96
ENCODING 7830
SWIDTH 525 0
DWIDTH 7 0
BBX 5 11 1 -3
BITMAP
80
80
B0
C8
88
88
88
88
88
00
70
ENDCHAR
STARTCHAR 1E97
ENCODING 7831
SWIDTH 525 0
DWIDTH 7 0
BBX 6 11 0 0
BITMAP
24
24
00
20
FC
20
20
20
20
30
1C
ENDCHAR
STARTCHAR 1E98
ENCODING 7832
SWIDTH 525 0
DWIDTH 7 0
BBX 7 10 0 0
BITMAP
18
28
18
82
82
52
5A
6A
6C
64
ENDCHAR
STARTCHAR 1E99
ENCODING 7833
SWIDTH 525 0
DWIDTH 7 0
BBX 7 13 0 -3
BITMAP
18
28
18
C2
44
44
24
28
38
18
10
20
C0
ENDCHAR
STARTCHAR 1E9A
ENCODING 7834
SWIDTH 525 0
DWIDTH 7 0
BBX 5 10 1 0
BITMAP
20
10
20
70
88
08
78
88
88
F8
ENDCHAR
STARTCHAR 1E9B
ENCODING 7835
SWIDTH 525 0
DWIDTH 7 0
BBX 5 12 2 0
BITMAP
20
60
00
78
80
80
80
80
80
80
80
80
ENDCHAR
STARTCHAR 1EA0
ENCODING 7840
SWIDTH 525 0
DWIDTH 7 0
BBX 7 12 0 -3
BITMAP
10
18
28
28
24
44
7C
42
82
00
18
10
ENDCHAR
STARTCHAR 1EA1
ENCODING 7841
SWIDTH 525 0
DWIDTH 7 0
BBX 5 10 1 -3
BITMAP
70
88
08
78
88
88
F8
00
30
20
ENDCHAR
STARTCHAR 1EA2
ENCODING 7842
SWIDTH 525 0
DWIDTH 7 0
BBX 7 12 0 0
BITMAP
18
18
10
10
18
28
28
24
44
7C
42
82
ENDCHAR
STARTCHAR 1EA3
ENCODING 7843
SWIDTH 525 0
DWIDTH 7 0
BBX 5 10 1 0
BITMAP
10
30
20
70
88
08
78
88
88
F8
ENDCHAR
STARTCHAR 1EA4
ENCODING 7844
SWIDTH 525 0
DWIDTH 7 0
BBX 7 12 0 0
BITMAP
02
1C
28
10
18
28
28
24
44
7C
42
82
ENDCHAR
STARTCHAR 1EA5
ENCODING 7845
SWIDTH 525 0
DWIDTH 7 0
BBX 6 10 1 0
BITMAP
04
38
40
70
88
08
78
88
88
F8
ENDCHAR
STARTCHAR 1EA6
ENCODING 7846
SWIDTH 525 0
DWIDTH 7 0
BBX 7 12 0 0
BITMAP
80
50
28
10
18
28
28
24
44
7C
42
82
ENDCHAR
STARTCHAR 1EA7
ENCODING 7847
SWIDTH 525 0
DWIDTH 7 0
BBX 6 10 0 0
BITMAP
C0
18
20
38
44
04
3C
44
44
7C
ENDCHAR
STARTCHAR 1EA8
ENCODING 7848
SWIDTH 525 0
DWIDTH 7 0
BBX 7 13 0 0
BITMAP
04
04
1C
28
10
18
28
28
24
44
7C
42
82
ENDCHAR
STARTCHAR 1EA9
ENCODING 7849
SWIDTH 525 0
DWIDTH 7 0
BBX 5 11 1 0
BITMAP
08
08
30
40
70
88
08
78
88
88
F8
ENDCHAR
STARTCHAR 1EAA
ENCODING 7850
SWIDTH 525 0
DWIDTH 7 0
BBX 7 13 0 0
BITMAP
34
08
18
2C
10
18
28
28
24
44
7C
42
82
ENDCHAR
STARTCHAR 1EAB
ENCODING 7851
SWIDTH 525 0
DWIDTH 7 0
BBX 5 11 1 0
BITMAP
68
10
70
00
70
88
08
78
88
88
F8
ENDCHAR
STARTCHAR 1EAC
ENCODING 7852
SWIDTH 525 0
DWIDTH 7 0
BBX 7 14 0 -3
BITMAP
18
2C
10
18
28
28
24
44
7C
42
82
00
18
10
ENDCHAR
STARTCHAR 1EAD
ENCODING 7853
SWIDTH 525 0
DWIDTH 7 0
BBX 5 12 1 -3
BITMAP
70
00
70
88
08
78
88
88
F8
00
30
20
ENDCHAR
STARTCHAR 1EAE
ENCODING 7854
SWIDTH 525 0
DWIDTH 7 0
BBX 7 12 0 0
BITMAP
18
28
18
10
18
28
28
24
44
7C
42
82
ENDCHAR
STARTCHAR 1EAF
ENCODING 7855
SWIDTH 525 0
DWIDTH 7 0
BBX 5 11 1 0
BITMAP
10
20
50
20
70
88
08
78
88
88
F8
ENDCHAR
STARTCHAR 1EB0
ENCODING 7856
SWIDTH 525 0
DWIDTH 7 0
BBX 7 12 0 0
BITMAP
30
28
18
10
18
28
28
24
44
7C
42
82
ENDCHAR
STARTCHAR 1EB1
ENCODING 7857
SWIDTH 525 0
DWIDTH 7 0
BBX 5 11 1 0
BITMAP
40
20
50
20
70
88
08
78
88
88
F8
ENDCHAR
STARTCHAR 1EB2
ENCODING 7858
SWIDTH 525 0
DWIDTH 7 0
BBX 7 13 0 0
BITMAP
10
08
28
18
10
18
28
28
24
44
7C
42
82
ENDCHAR
STARTCHAR 1EB3
ENCODING 7859
SWIDTH 525 0
DWIDTH 7 0
BBX 5 11 1 0
BITMAP
10
20
50
20
70
88
08
78
88
88
F8
ENDCHAR
STARTCHAR 1EB4
ENCODING 7860
SWIDTH 525 0
DWIDTH 7 0
BBX 7 13 0 0
BITMAP
24
18
28
18
10
18
28
28
24
44
7C
42
82
ENDCHAR
STARTCHAR 1EB5
ENCODING 7861
SWIDTH 525 0
DWIDTH 7 0
BBX 5 11 1 0
BITMAP
68
10
50
20
70
88
08
78
88
88
F8
ENDCHAR
STARTCHAR 1EB6
ENCODING 7862
SWIDTH 525 0
DWIDTH 7 0
BBX 7 14 0 -3
BITMAP
28
18
10
18
28
28
24
44
7C
42
82
00
18
10
ENDCHAR
STARTCHAR 1EB7
ENCODING 7863
SWIDTH 525 0
DWIDTH 7 0
BBX 5 12 1 -3
BITMAP
50
20
70
88
08
78
88
88
F8
00
30
20
ENDCHAR
STARTCHAR 1EB8
ENCODING 7864
SWIDTH 525 0
DWIDTH 7 0
BBX 5 12 1 -3
BITMAP
F8
80
80
80
F8
80
80
80
F8
00
30
20
ENDCHAR
STARTCHAR 1EB9
ENCODING 7865
SWIDTH 525 0
DWIDTH 7 0
BBX 6 10 1 -3
BITMAP
30
C8
88
FC
80
80
78
00
30
20
ENDCHAR
STARTCHAR 1EBA
ENCODING 7866
SWIDTH 525 0
DWIDTH 7 0
BBX 5 12 1 0
BITMAP
30
30
20
F8
80
80
80
F8
80
80
80
F8
ENDCHAR
STARTCHAR 1EBB
ENCODING 7867
SWIDTH 525 0
DWIDTH 7 0
BBX 6 10 1 0
BITMAP
30
30
20
30
C8
88
FC
80
80
78
ENDCHAR
STARTCHAR 1EBC
ENCODING 7868
SWIDTH 525 0
DWIDTH 7 0
BBX 5 11 1 0
BITMAP
68
10
F8
80
80
80
F8
80
80
80
F8
ENDCHAR
STARTCHAR 1EBD
ENCODING 7869
SWIDTH 525 0
DWIDTH 7 0
BBX 6 9 1 0
BITMAP
F8
00
30
C8
88
FC
80
80
78
ENDCHAR
STARTCHAR 1EBE
ENCODING 7870
SWIDTH 525 0
DWIDTH 7 0
BBX 6 12 1 0
BITMAP
04
38
50
F8
80
80
80
F8
80
80
80
F8
ENDCHAR
STARTCHAR 1EBF
ENCODING 7871
SWIDTH 525 0
DWIDTH 7 0
BBX 6 10 1 0
BITMAP
04
38
40
30
C8
88
FC
80
80
78
ENDCHAR
STARTCHAR 1EC0
ENCODING 7872
SWIDTH 525 0
DWIDTH 7 0
BBX 6 12 0 0
BITMAP
80
50
28
7C
40
40
40
7C
40
40
40
7C
ENDCHAR
STARTCHAR 1EC1
ENCODING 7873
SWIDTH 525 0
DWIDTH 7 0
BBX 7 10 0 0
BITMAP
C0
18
20
18
64
44
7E
40
40
3C
ENDCHAR
STARTCHAR 1EC2
ENCODING 7874
SWIDTH 525 0
DWIDTH 7 0
BBX 5 13 1 0
BITMAP
08
08
38
50
F8
80
80
80
F8
80
80
80
F8
ENDCHAR
STARTCHAR 1EC3
ENCODING 7875
SWIDTH 525 0
DWIDTH 7 0
BBX 6 11 1 0
BITMAP
08
08
30
40
30
C8
88
FC
80
80
78
ENDCHAR
STARTCHAR 1EC4
ENCODING 7876
SWIDTH 525 0
DWIDTH 7 0
BBX 5 13 1 0
BITMAP
68
10
30
58
F8
80
80
80
F8
80
80
80
F8
ENDCHAR
STARTCHAR 1EC5
ENCODING 7877
SWIDTH 525 0
DWIDTH 7 0
BBX 6 11 1 0
BITMAP
68
10
70
00
30
C8
88
FC
80
80
78
ENDCHAR
STARTCHAR 1EC6
ENCODING 7878
SWIDTH 525 0
DWIDTH 7 0
BBX 5 14 1 -3
BITMAP
30
58
F8
80
80
80
F8
80
80
80
F8
00
30
20
ENDCHAR
STARTCHAR 1EC7
ENCODING 7879
SWIDTH 525 0
DWIDTH 7 0
BBX 6 12 1 -3
BITMAP
70
00
30
C8
88
FC
80
80
78
00
30
20
ENDCHAR
STARTCHAR 1EC8
ENCODING 7880
SWIDTH 525 0
DWIDTH 7 0
BBX 5 12 1 0
BITMAP
30
30
20
F8
20
20
20
20
20
20
20
F8
ENDCHAR
STARTCHAR 1EC9
ENCODING 7881
SWIDTH 525 0
DWIDTH 7 0
BBX 5 10 1 0
BITMAP
10
30
20
E0
20
20
20
20
20
F8
ENDCHAR
STARTCHAR 1ECA
ENCODING 7882
SWIDTH 525 0
DWIDTH 7 0
BBX 5 12 1 -3
BITMAP
F8
20
20
20
20
20
20
20
F8
00
30
20
ENDCHAR
STARTCHAR 1ECB
ENCODING 7883
SWIDTH 525 0
DWIDTH 7 0
BBX 5 12 1 -3
BITMAP
30
20
E0
20
20
20
20
20
F8
00
30
20
ENDCHAR
STARTCHAR 1ECC
ENCODING 7884
SWIDTH 525 0
DWIDTH 7 0
BBX 7 12 0 -3
BITMAP
18
6C
46
C2
C2
C2
42
44
3C
00
18
10
ENDCHAR
STARTCHAR 1ECD
ENCODING 7885
SWIDTH 525 0
DWIDTH 7 0
BBX 6 10 1 -3
BITMAP
30
C8
8C
84
84
88
78
00
30
20
ENDCHAR
STARTCHAR 1ECE
ENCODING 7886
SWIDTH 525 0
DWIDTH 7 0
BBX 7 12 0 0
BITMAP
18
18
10
18
6C
46
C2
C2
C2
42
44
3C
ENDCHAR
STARTCHAR 1ECF
ENCODING 7887
SWIDTH 525 0
DWIDTH 7 0
BBX 6 10 1 0
BITMAP
30
30
20
30
C8
8C
84
84
88
78
ENDCHAR
STARTCHAR 1ED0
ENCODING 7888
SWIDTH 525 0
DWIDTH 7 0
BBX 7 12 0 0
BITMAP
02
1C
28
18
6C
46
C2
C2
C2
42
44
3C
ENDCHAR
STARTCHAR 1ED1
ENCODING 7889
SWIDTH 525 0
DWIDTH 7 0
BBX 6 10 1 0
BITMAP
04
38
40
30
C8
8C
84
84
88
78
ENDCHAR
STARTCHAR 1ED2
ENCODING 7890
SWIDTH 525 0
DWIDTH 7 0
BBX 7 12 0 0
BITMAP
80
50
28
18
6C
46
C2
C2
C2
42
44
3C
ENDCHAR
STARTCHAR 1ED3
ENCODING 7891
SWIDTH 525 0
DWIDTH 7 0
BBX 7 10 0 0
BITMAP
C0
18
20
18
64
46
42
42
44
3C
ENDCHAR
STARTCHAR 1ED4
ENCODING 7892
SWIDTH 525 0
DWIDTH 7 0
BBX 7 13 0 0
BITMAP
04
04
1C
28
18
6C
46
C2
C2
C2
42
44
3C
ENDCHAR
STARTCHAR 1ED5
ENCODING 7893
SWIDTH 525 0
DWIDTH 7 0
BBX 6 11 1 0
BITMAP
08
08
30
40
30
C8
8C
84
84
88
78
ENDCHAR
STARTCHAR 1ED6
ENCODING 7894
SWIDTH 525 0
DWIDTH 7 0
BBX 7 13 0 0
BITMAP
34
08
18
2C
18
6C
46
C2
C2
C2
42
44
3C
ENDCHAR
STARTCHAR 1ED7
ENCODING 7895
SWIDTH 525 0
DWIDTH 7 0
BBX 6 11 1 0
BITMAP
68
10
70
00
30
C8
8C
84
84
88
78
ENDCHAR
STARTCHAR 1ED8
ENCODING 7896
SWIDTH 525 0
DWIDTH 7 0
BBX 7 14 0 -3
BITMAP
18
2C
18
6C
46
C2
C2
C2
42
44
3C
00
18
10
ENDCHAR
STARTCHAR 1ED9
ENCODING 7897
SWIDTH 525 0
DWIDTH 7 0
BBX 6 12 1 -3
BITMAP
70
00
30
C8
8C
84
84
88
78
00
30
20
ENDCHAR
STARTCHAR 1EDA
ENCODING 7898
SWIDTH 525 0
DWIDTH 7 0
BBX 8 11 0 0
BITMAP
0C
10
19
6E
46
C2
C2
C2
42
44
3C
ENDCHAR
STARTCHAR 1EDB
ENCODING 7899
SWIDTH 525 0
DWIDTH 7 0
BBX 8 9 0 0
BITMAP
08
10
1B
6E
44
C6
46
44
38
ENDCHAR
STARTCHAR 1EDC
ENCODING 7900
SWIDTH 525 0
DWIDTH 7 0
BBX 8 11 0 0
BITMAP
20
10
19
6E
46
C2
C2
C2
42
44
3C
ENDCHAR
STARTCHAR 1EDD
ENCODING 7901
SWIDTH 525 0
DWIDTH 7 0
BBX 8 9 0 0
BITMAP
20
10
1B
6E
44
C6
46
44
38
ENDCHAR
STARTCHAR 1EDE
ENCODING 7902
SWIDTH 525 0
DWIDTH 7 0
BBX 8 12 0 0
BITMAP
18
18
10
19
6E
46
C2
C2
C2
42
44
3C
ENDCHAR
STARTCHAR 1EDF
ENCODING 7903
SWIDTH 525 0
DWIDTH 7 0
BBX 8 10 0 0
BITMAP
18
18
10
1B
6E
44
C6
46
44
38
ENDCHAR
STARTCHAR 1EE0
ENCODING 7904
SWIDTH 525 0
DWIDTH 7 0
BBX 8 11 0 0
BITMAP
34
08
19
6E
46
C2
C2
C2
42
44
3C
ENDCHAR
STARTCHAR 1EE1
ENCODING 7905
SWIDTH 525 0
DWIDTH 7 0
BBX 8 9 0 0
BITMAP
7C
00
1B
6E
44
C6
46
44
38
ENDCHAR
STARTCHAR 1EE2
ENCODING 7906
SWIDTH 525 0
DWIDTH 7 0
BBX 8 12 0 -2
BITMAP
19
6E
46
C2
C2
C2
42
44
3C
00
18
10
ENDCHAR
STARTCHAR 1EE3
ENCODING 7907
SWIDTH 525 0
DWIDTH 7 0
BBX 8 10 0 -2
BITMAP
1B
6E
44
C6
46
44
38
00
18
10
ENDCHAR
STARTCHAR 1EE4
ENCODING 7908
SWIDTH 525 0
DWIDTH 7 0
BBX 6 12 1 -3
BITMAP
8C
8C
8C
8C
8C
8C
8C
88
78
00
30
20
ENDCHAR
STARTCHAR 1EE5
ENCODING 7909
SWIDTH 525 0
DWIDTH 7 0
BBX 5 10 1 -3
BITMAP
88
88
88
88
88
88
78
00
30
20
ENDCHAR
STARTCHAR 1EE6
ENCODING 7910
SWIDTH 525 0
DWIDTH 7 0
BBX 6 12 1 0
BITMAP
30
30
20
8C
8C
8C
8C
8C
8C
8C
88
78
ENDCHAR
STARTCHAR 1EE7
ENCODING 7911
SWIDTH 525 0
DWIDTH 7 0
BBX 5 10 1 0
BITMAP
30
30
20
88
88
88
88
88
88
78
ENDCHAR
STARTCHAR 1EE8
ENCODING 7912
SWIDTH 525 0
DWIDTH 7 0
BBX 7 11 1 0
BITMAP
10
20
8A
8C
88
88
88
88
88
98
F0
ENDCHAR
STARTCHAR 1EE9
ENCODING 7913
SWIDTH 525 0
DWIDTH 7 0
BBX 7 9 1 0
BITMAP
30
00
8E
8C
88
88
88
98
E8
ENDCHAR
STARTCHAR 1EEA
ENCODING 7914
SWIDTH 525 0
DWIDTH 7 0
BBX 7 11 1 0
BITMAP
C0
20
8A
8C
88
88
88
88
88
98
F0
ENDCHAR
STARTCHAR 1EEB
ENCODING 7915
SWIDTH 525 0
DWIDTH 7 0
BBX 7 9 1 0
BITMAP
C0
00
8E
8C
88
88
88
98
E8
ENDCHAR
STARTCHAR 1EEC
ENCODING 7916
SWIDTH 525 0
DWIDTH 7 0
BBX 7 12 1 0
BITMAP
60
20
00
8A
8C
88
88
88
88
88
98
F0
ENDCHAR
STARTCHAR 1EED
ENCODING 7917
SWIDTH 525 0
DWIDTH 7 0
BBX 7 10 1 0
BITMAP
20
20
00
8E
8C
88
88
88
98
E8
ENDCHAR
STARTCHAR 1EEE
ENCODING 7918
SWIDTH 525 0
DWIDTH 7 0
BBX 7 11 1 0
BITMAP
C0
30
8A
8C
88
88
88
88
88
98
F0
ENDCHAR
STARTCHAR 1EEF
ENCODING 7919
SWIDTH 525 0
DWIDTH 7 0
BBX 7 9 1 0
BITMAP
F0
00
8E
8C
88
88
88
98
E8
ENDCHAR
STARTCHAR 1EF0
ENCODING 7920
SWIDTH 525 0
DWIDTH 7 0
BBX 7 12 1 -2
BITMAP
8A
8C
88
88
88
88
88
98
F0
00
60
20
ENDCHAR
STARTCHAR 1EF1
ENCODING 7921
SWIDTH 525 0
DWIDTH 7 0
BBX 7 9 1 -2
BITMAP
8E
8C
88
88
88
98
E8
00
60
ENDCHAR
STARTCHAR 1EF2
ENCODING 7922
SWIDTH 525 0
DWIDTH 7 0
BBX 7 11 0 0
BITMAP
20
10
82
46
44
2C
38
18
10
10
10
ENDCHAR
STARTCHAR 1EF3
ENCODING 7923
SWIDTH 525 0
DWIDTH 7 0
BBX 7 12 0 -3
BITMAP
20
10
C2
44
44
24
28
38
18
10
20
C0
ENDCHAR
STARTCHAR 1EF4
ENCODING 7924
SWIDTH 525 0
DWIDTH 7 0
BBX 7 12 0 -3
BITMAP
82
46
44
2C
38
18
10
10
10
00
18
10
ENDCHAR
STARTCHAR 1EF5
ENCODING 7925
SWIDTH 525 0
DWIDTH 7 0
BBX 7 10 0 -3
BITMAP
C2
44
44
24
28
38
18
10
24
C4
ENDCHAR
STARTCHAR 1EF6
ENCODING 7926
SWIDTH 525 0
DWIDTH 7 0
BBX 7 12 0 0
BITMAP
10
08
10
82
46
44
2C
38
18
10
10
10
ENDCHAR
STARTCHAR 1EF7
ENCODING 7927
SWIDTH 525 0
DWIDTH 7 0
BBX 7 13 0 -3
BITMAP
08
18
10
C2
44
44
24
28
38
18
10
20
C0
ENDCHAR
STARTCHAR 1EF8
ENCODING 7928
SWIDTH 525 0
DWIDTH 7 0
BBX 7 11 0 0
BITMAP
34
08
82
46
44
2C
38
18
10
10
10
ENDCHAR
STARTCHAR 1EF9
ENCODING 7929
SWIDTH 525 0
DWIDTH 7 0
BBX 7 12 0 -3
BITMAP
7C
00
C2
44
44
24
28
38
18
10
20
C0
ENDCHAR
STARTCHAR 1F00
ENCODING 7936
SWIDTH 525 0
DWIDTH 7 0
BBX 6 9 1 0
BITMAP
20
20
64
D8
88
88
88
98
F4
ENDCHAR
STARTCHAR 1F01
ENCODING 7937
SWIDTH 525 0
DWIDTH 7 0
BBX 6 9 1 0
BITMAP
20
20
64
D8
88
88
88
98
F4
ENDCHAR
STARTCHAR 1F02
ENCODING 7938
SWIDTH 525 0
DWIDTH 7 0
BBX 6 9 1 0
BITMAP
50
90
64
D8
88
88
88
98
F4
ENDCHAR
STARTCHAR 1F03
ENCODING 7939
SWIDTH 525 0
DWIDTH 7 0
BBX 6 9 1 0
BITMAP
50
50
64
D8
88
88
88
98
F4
ENDCHAR
STARTCHAR 1F04
ENCODING 7940
SWIDTH 525 0
DWIDTH 7 0
BBX 6 9 1 0
BITMAP
50
40
64
D8
88
88
88
98
F4
ENDCHAR
STARTCHAR 1F05
ENCODING 7941
SWIDTH 525 0
DWIDTH 7 0
BBX 6 9 1 0
BITMAP
50
40
64
D8
88
88
88
98
F4
ENDCHAR
STARTCHAR 1F06
ENCODING 7942
SWIDTH 525 0
DWIDTH 7 0
BBX 6 11 1 0
BITMAP
F8
00
20
20
64
D8
88
88
88
98
F4
ENDCHAR
STARTCHAR 1F07
ENCODING 7943
SWIDTH 525 0
DWIDTH 7 0
BBX 6 11 1 0
BITMAP
F8
00
20
20
64
D8
88
88
88
98
F4
ENDCHAR
STARTCHAR 1F08
ENCODING 7944
SWIDTH 525 0
DWIDTH 7 0
BBX 7 9 0 0
BITMAP
50
58
A8
28
24
44
7C
42
82
ENDCHAR
STARTCHAR 1F09
ENCODING 7945
SWIDTH 525 0
DWIDTH 7 0
BBX 7 9 0 0
BITMAP
10
98
68
28
24
44
7C
42
82
ENDCHAR
STARTCHAR 1F0A
ENCODING 7946
SWIDTH 525 0
DWIDTH 7 0
BBX 9 9 -2 0
BITMAP
8400
F600
8A00
0A00
0900
1100
1F00
1080
2080
ENDCHAR
STARTCHAR 1F0B
ENCODING 7947
SWIDTH 525 0
DWIDTH 7 0
BBX 9 9 -2 0
BITMAP
8400
B600
0A00
0A00
0900
1100
1F00
1080
2080
ENDCHAR
STARTCHAR 1F0C
ENCODING 7948
SWIDTH 525 0
DWIDTH 7 0
BBX 8 9 -1 0
BITMAP
88
AC
14
14
12
22
3E
21
41
ENDCHAR
STARTCHAR 1F0D
ENCODING 7949
SWIDTH 525 0
DWIDTH 7 0
BBX 9 9 -2 0
BITMAP
4400
D600
4A00
0A00
0900
1100
1F00
1080
2080
ENDCHAR
STARTCHAR 1F0E
ENCODING 7950
SWIDTH 525 0
DWIDTH 7 0
BBX 8 11 -1 0
BITMAP
C0
30
08
6C
54
14
12
22
3E
21
41
ENDCHAR
STARTCHAR 1F0F
ENCODING 7951
SWIDTH 525 0
DWIDTH 7 0
BBX 8 11 -1 0
BITMAP
C0
30
08
4C
34
14
12
22
3E
21
41
ENDCHAR
STARTCHAR 1F10
ENCODING 7952
SWIDTH 525 0
DWIDTH 7 0
BBX 5 9 1 0
BITMAP
20
20
38
C0
80
70
80
80
F8
ENDCHAR
STARTCHAR 1F11
ENCODING 7953
SWIDTH 525 0
DWIDTH 7 0
BBX 5 9 1 0
BITMAP
20
20
38
C0
80
70
80
80
F8
ENDCHAR
STARTCHAR 1F12
ENCODING 7954
SWIDTH 525 0
DWIDTH 7 0
BBX 5 9 1 0
BITMAP
50
40
38
C0
80
70
80
80
F8
ENDCHAR
STARTCHAR 1F13
ENCODING 7955
SWIDTH 525 0
DWIDTH 7 0
BBX 5 9 1 0
BITMAP
50
40
38
C0
80
70
80
80
F8
ENDCHAR
STARTCHAR 1F14
ENCODING 7956
SWIDTH 525 0
DWIDTH 7 0
BBX 5 9 1 0
BITMAP
50
50
38
C0
80
70
80
80
F8
ENDCHAR
STARTCHAR 1F15
ENCODING 7957
SWIDTH 525 0
DWIDTH 7 0
BBX 5 9 1 0
BITMAP
50
50
38
C0
80
70
80
80
F8
ENDCHAR
STARTCHAR 1F18
ENCODING 7960
SWIDTH 525 0
DWIDTH 7 0
BBX 7 9 -1 0
BITMAP
BE
E0
A0
20
3E
20
20
20
3E
ENDCHAR
STARTCHAR 1F19
ENCODING 7961
SWIDTH 525 0
DWIDTH 7 0
BBX 7 9 -1 0
BITMAP
BE
A0
60
20
3E
20
20
20
3E
ENDCHAR
STARTCHAR 1F1A
ENCODING 7962
SWIDTH 525 0
DWIDTH 7 0
BBX 9 9 -3 0
BITMAP
8F80
F800
8800
0800
0F80
0800
0800
0800
0F80
ENDCHAR
STARTCHAR 1F1B
ENCODING 7963
SWIDTH 525 0
DWIDTH 7 0
BBX 9 9 -3 0
BITMAP
8F80
B800
0800
0800
0F80
0800
0800
0800
0F80
ENDCHAR
STARTCHAR 1F1C
ENCODING 7964
SWIDTH 525 0
DWIDTH 7 0
BBX 9 9 -3 0
BITMAP
8F80
E800
8800
0800
0F80
0800
0800
0800
0F80
ENDCHAR
STARTCHAR 1F1D
ENCODING 7965
SWIDTH 525 0
DWIDTH 7 0
BBX 9 9 -3 0
BITMAP
8F80
A800
0800
0800
0F80
0800
0800
0800
0F80
ENDCHAR
STARTCHAR 1F20
ENCODING 7968
SWIDTH 525 0
DWIDTH 7 0
BBX 5 12 1 -3
BITMAP
20
20
B0
C8
88
88
88
88
88
08
08
08
ENDCHAR
STARTCHAR 1F21
ENCODING 7969
SWIDTH 525 0
DWIDTH 7 0
BBX 5 12 1 -3
BITMAP
20
20
B0
C8
88
88
88
88
88
08
08
08
ENDCHAR
STARTCHAR 1F22
ENCODING 7970
SWIDTH 525 0
DWIDTH 7 0
BBX 5 12 1 -3
BITMAP
50
40
B0
C8
88
88
88
88
88
08
08
08
ENDCHAR
STARTCHAR 1F23
ENCODING 7971
SWIDTH 525 0
DWIDTH 7 0
BBX 5 12 1 -3
BITMAP
50
40
B0
C8
88
88
88
88
88
08
08
08
ENDCHAR
STARTCHAR 1F24
ENCODING 7972
SWIDTH 525 0
DWIDTH 7 0
BBX 5 12 1 -3
BITMAP
50
40
B0
C8
88
88
88
88
88
08
08
08
ENDCHAR
STARTCHAR 1F25
ENCODING 7973
SWIDTH 525 0
DWIDTH 7 0
BBX 5 12 1 -3
BITMAP
50
40
B0
C8
88
88
88
88
88
08
08
08
ENDCHAR
STARTCHAR 1F26
ENCODING 7974
SWIDTH 525 0
DWIDTH 7 0
BBX 5 14 1 -3
BITMAP
F8
00
20
20
B0
C8
88
88
88
88
88
08
08
08
ENDCHAR
STARTCHAR 1F27
ENCODING 7975
SWIDTH 525 0
DWIDTH 7 0
BBX 5 14 1 -3
BITMAP
F8
00
20
20
B0
C8
88
88
88
88
88
08
08
08
ENDCHAR
STARTCHAR 1F28
ENCODING 7976
SWIDTH 525 0
DWIDTH 7 0
BBX 8 9 -1 0
BITMAP
A3
A3
23
23
3F
23
23
23
23
ENDCHAR
STARTCHAR 1F29
ENCODING 7977
SWIDTH 525 0
DWIDTH 7 0
BBX 8 9 -1 0
BITMAP
A3
A3
A3
23
3F
23
23
23
23
ENDCHAR
STARTCHAR 1F2A
ENCODING 7978
SWIDTH 525 0
DWIDTH 7 0
BBX 10 9 -3 0
BITMAP
88C0
A8C0
08C0
08C0
0FC0
08C0
08C0
08C0
08C0
ENDCHAR
STARTCHAR 1F2B
ENCODING 7979
SWIDTH 525 0
DWIDTH 7 0
BBX 10 9 -3 0
BITMAP
88C0
A8C0
88C0
08C0
0FC0
08C0
08C0
08C0
08C0
ENDCHAR
STARTCHAR 1F2C
ENCODING 7980
SWIDTH 525 0
DWIDTH 7 0
BBX 10 9 -3 0
BITMAP
88C0
A8C0
08C0
08C0
0FC0
08C0
08C0
08C0
08C0
ENDCHAR
STARTCHAR 1F2D
ENCODING 7981
SWIDTH 525 0
DWIDTH 7 0
BBX 10 9 -3 0
BITMAP
88C0
A8C0
88C0
08C0
0FC0
08C0
08C0
08C0
08C0
ENDCHAR
STARTCHAR 1F2E
ENCODING 7982
SWIDTH 525 0
DWIDTH 7 0
BBX 10 11 -3 0
BITMAP
4000
B000
28C0
28C0
28C0
08C0
0FC0
08C0
08C0
08C0
08C0
ENDCHAR
STARTCHAR 1F2F
ENCODING 7983
SWIDTH 525 0
DWIDTH 7 0
BBX 10 11 -3 0
BITMAP
4000
B000
28C0
28C0
28C0
08C0
0FC0
08C0
08C0
08C0
08C0
ENDCHAR
STARTCHAR 1F30
ENCODING 7984
SWIDTH 525 0
DWIDTH 7 0
BBX 5 9 1 0
BITMAP
20
20
E0
20
20
20
20
20
18
ENDCHAR
STARTCHAR 1F31
ENCODING 7985
SWIDTH 525 0
DWIDTH 7 0
BBX 5 9 1 0
BITMAP
20
20
E0
20
20
20
20
20
18
ENDCHAR
STARTCHAR 1F32
ENCODING 7986
SWIDTH 525 0
DWIDTH 7 0
BBX 5 9 1 0
BITMAP
50
40
E0
20
20
20
20
20
18
ENDCHAR
STARTCHAR 1F33
ENCODING 7987
SWIDTH 525 0
DWIDTH 7 0
BBX 5 9 1 0
BITMAP
50
40
E0
20
20
20
20
20
18
ENDCHAR
STARTCHAR 1F34
ENCODING 7988
SWIDTH 525 0
DWIDTH 7 0
BBX 5 9 1 0
BITMAP
50
40
E0
20
20
20
20
20
18
ENDCHAR
STARTCHAR 1F35
ENCODING 7989
SWIDTH 525 0
DWIDTH 7 0
BBX 5 9 1 0
BITMAP
50
40
E0
20
20
20
20
20
18
ENDCHAR
STARTCHAR 1F36
ENCODING 7990
SWIDTH 525 0
DWIDTH 7 0
BBX 5 11 1 0
BITMAP
F8
00
20
20
E0
20
20
20
20
20
18
ENDCHAR
STARTCHAR 1F37
ENCODING 7991
SWIDTH 525 0
DWIDTH 7 0
BBX 5 11 1 0
BITMAP
F8
00
20
20
E0
20
20
20
20
20
18
ENDCHAR
STARTCHAR 1F38
ENCODING 7992
SWIDTH 525 0
DWIDTH 7 0
BBX 7 9 -1 0
BITMAP
BE
88
88
08
08
08
08
08
3E
ENDCHAR
STARTCHAR 1F39
ENCODING 7993
SWIDTH 525 0
DWIDTH 7 0
BBX 7 9 -1 0
BITMAP
BE
88
08
08
08
08
08
08
3E
ENDCHAR
STARTCHAR 1F3A
ENCODING 7994
SWIDTH 525 0
DWIDTH 7 0
BBX 9 9 -3 0
BITMAP
8F80
F200
8200
0200
0200
0200
0200
0200
0F80
ENDCHAR
STARTCHAR 1F3B
ENCODING 7995
SWIDTH 525 0
DWIDTH 7 0
BBX 9 9 -3 0
BITMAP
8F80
B200
0200
0200
0200
0200
0200
0200
0F80
ENDCHAR
STARTCHAR 1F3C
ENCODING 7996
SWIDTH 525 0
DWIDTH 7 0
BBX 9 9 -3 0
BITMAP
8F80
A200
8200
0200
0200
0200
0200
0200
0F80
ENDCHAR
STARTCHAR 1F3D
ENCODING 7997
SWIDTH 525 0
DWIDTH 7 0
BBX 9 9 -3 0
BITMAP
8F80
A200
0200
0200
0200
0200
0200
0200
0F80
ENDCHAR
STARTCHAR 1F3E
ENCODING 7998
SWIDTH 525 0
DWIDTH 7 0
BBX 8 11 -2 0
BITMAP
C0
70
5F
44
44
04
04
04
04
04
1F
ENDCHAR
STARTCHAR 1F3F
ENCODING 7999
SWIDTH 525 0
DWIDTH 7 0
BBX 8 11 -2 0
BITMAP
C0
70
5F
44
04
04
04
04
04
04
1F
ENDCHAR
STARTCHAR 1F40
ENCODING 8000
SWIDTH 525 0
DWIDTH 7 0
BBX 6 9 1 0
BITMAP
20
20
30
C8
8C
84
84
88
78
ENDCHAR
STARTCHAR 1F41
ENCODING 8001
SWIDTH 525 0
DWIDTH 7 0
BBX 6 9 1 0
BITMAP
20
20
30
C8
8C
84
84
88
78
ENDCHAR
STARTCHAR 1F42
ENCODING 8002
SWIDTH 525 0
DWIDTH 7 0
BBX 6 9 1 0
BITMAP
50
40
30
C8
8C
84
84
88
78
ENDCHAR
STARTCHAR 1F43
ENCODING 8003
SWIDTH 525 0
DWIDTH 7 0
BBX 6 9 1 0
BITMAP
50
40
30
C8
8C
84
84
88
78
ENDCHAR
STARTCHAR 1F44
ENCODING 8004
SWIDTH 525 0
DWIDTH 7 0
BBX 6 9 1 0
BITMAP
50
40
30
C8
8C
84
84
88
78
ENDCHAR
STARTCHAR 1F45
ENCODING 8005
SWIDTH 525 0
DWIDTH 7 0
BBX 6 9 1 0
BITMAP
50
40
30
C8
8C
84
84
88
78
ENDCHAR
STARTCHAR 1F48
ENCODING 8008
SWIDTH 525 0
DWIDTH 7 0
BBX 8 9 -1 0
BITMAP
8C
B6
A3
61
61
61
21
22
1E
ENDCHAR
STARTCHAR 1F49
ENCODING 8009
SWIDTH 525 0
DWIDTH 7 0
BBX 8 9 -1 0
BITMAP
8C
B6
23
61
61
61
21
22
1E
ENDCHAR
STARTCHAR 1F4A
ENCODING 8010
SWIDTH 525 0
DWIDTH 7 0
BBX 10 9 -3 0
BITMAP
8300
AD80
08C0
1840
1840
1840
0840
0880
0780
ENDCHAR
STARTCHAR 1F4B
ENCODING 8011
SWIDTH 525 0
DWIDTH 7 0
BBX 10 9 -3 0
BITMAP
8300
AD80
88C0
1840
1840
1840
0840
0880
0780
ENDCHAR
STARTCHAR 1F4C
ENCODING 8012
SWIDTH 525 0
DWIDTH 7 0
BBX 10 9 -3 0
BITMAP
0300
7D80
88C0
1840
1840
1840
0840
0880
0780
ENDCHAR
STARTCHAR 1F4D
ENCODING 8013
SWIDTH 525 0
DWIDTH 7 0
BBX 10 9 -3 0
BITMAP
0300
FD80
48C0
1840
1840
1840
0840
0880
0780
ENDCHAR
STARTCHAR 1F50
ENCODING 8016
SWIDTH 525 0
DWIDTH 7 0
BBX 5 9 1 0
BITMAP
20
20
88
88
88
88
88
88
70
ENDCHAR
STARTCHAR 1F51
ENCODING 8017
SWIDTH 525 0
DWIDTH 7 0
BBX 5 9 1 0
BITMAP
20
20
88
88
88
88
88
88
70
ENDCHAR
STARTCHAR 1F52
ENCODING 8018
SWIDTH 525 0
DWIDTH 7 0
BBX 5 9 1 0
BITMAP
50
40
88
88
88
88
88
88
70
ENDCHAR
STARTCHAR 1F53
ENCODING 8019
SWIDTH 525 0
DWIDTH 7 0
BBX 5 9 1 0
BITMAP
50
40
88
88
88
88
88
88
70
ENDCHAR
STARTCHAR 1F54
ENCODING 8020
SWIDTH 525 0
DWIDTH 7 0
BBX 5 9 1 0
BITMAP
50
40
88
88
88
88
88
88
70
ENDCHAR
STARTCHAR 1F55
ENCODING 8021
SWIDTH 525 0
DWIDTH 7 0
BBX 5 9 1 0
BITMAP
50
40
88
88
88
88
88
88
70
ENDCHAR
STARTCHAR 1F56
ENCODING 8022
SWIDTH 525 0
DWIDTH 7 0
BBX 5 11 1 0
BITMAP
F8
00
20
20
88
88
88
88
88
88
70
ENDCHAR
STARTCHAR 1F57
ENCODING 8023
SWIDTH 525 0
DWIDTH 7 0
BBX 5 11 1 0
BITMAP
F8
00
20
20
88
88
88
88
88
88
70
ENDCHAR
STARTCHAR 1F59
ENCODING 8025
SWIDTH 525 0
DWIDTH 7 0
BBX 9 9 -2 0
BITMAP
6080
D180
5100
0B00
0E00
0600
0400
0400
0400
ENDCHAR
STARTCHAR 1F5B
ENCODING 8027
SWIDTH 525 0
DWIDTH 7 0
BBX 10 9 -3 0
BITMAP
9040
A8C0
8880
0580
0700
0300
0200
0200
0200
ENDCHAR
STARTCHAR 1F5D
ENCODING 8029
SWIDTH 525 0
DWIDTH 7 0
BBX 11 9 -4 0
BITMAP
8820
A460
0440
02C0
0380
0180
0100
0100
0100
ENDCHAR
STARTCHAR 1F5F
ENCODING 8031
SWIDTH 525 0
DWIDTH 7 0
BBX 10 11 -3 0
BITMAP
C000
3000
1040
48C0
2880
0580
0700
0300
0200
0200
0200
ENDCHAR
STARTCHAR 1F60
ENCODING 8032
SWIDTH 525 0
DWIDTH 7 0
BBX 7 9 0 0
BITMAP
10
10
44
42
92
92
92
D2
6C
ENDCHAR
STARTCHAR 1F61
ENCODING 8033
SWIDTH 525 0
DWIDTH 7 0
BBX 7 9 0 0
BITMAP
10
10
44
42
92
92
92
D2
6C
ENDCHAR
STARTCHAR 1F62
ENCODING 8034
SWIDTH 525 0
DWIDTH 7 0
BBX 7 9 0 0
BITMAP
28
20
44
42
92
92
92
D2
6C
ENDCHAR
STARTCHAR 1F63
ENCODING 8035
SWIDTH 525 0
DWIDTH 7 0
BBX 7 9 0 0
BITMAP
28
20
44
42
92
92
92
D2
6C
ENDCHAR
STARTCHAR 1F64
ENCODING 8036
SWIDTH 525 0
DWIDTH 7 0
BBX 7 9 0 0
BITMAP
28
20
44
42
92
92
92
D2
6C
ENDCHAR
STARTCHAR 1F65
ENCODING 8037
SWIDTH 525 0
DWIDTH 7 0
BBX 7 9 0 0
BITMAP
28
20
44
42
92
92
92
D2
6C
ENDCHAR
STARTCHAR 1F66
ENCODING 8038
SWIDTH 525 0
DWIDTH 7 0
BBX 7 11 0 0
BITMAP
7C
00
10
10
44
42
92
92
92
D2
6C
ENDCHAR
STARTCHAR 1F67
ENCODING 8039
SWIDTH 525 0
DWIDTH 7 0
BBX 7 11 0 0
BITMAP
7C
00
10
10
44
42
92
92
92
D2
6C
ENDCHAR
STARTCHAR 1F68
ENCODING 8040
SWIDTH 525 0
DWIDTH 7 0
BBX 8 9 -1 0
BITMAP
8C
B6
A3
61
61
61
21
22
77
ENDCHAR
STARTCHAR 1F69
ENCODING 8041
SWIDTH 525 0
DWIDTH 7 0
BBX 8 9 -1 0
BITMAP
8C
B6
23
61
61
61
21
22
77
ENDCHAR
STARTCHAR 1F6A
ENCODING 8042
SWIDTH 525 0
DWIDTH 7 0
BBX 10 9 -3 0
BITMAP
8300
AD80
08C0
1840
1840
1840
0840
0880
1DC0
ENDCHAR
STARTCHAR 1F6B
ENCODING 8043
SWIDTH 525 0
DWIDTH 7 0
BBX 10 9 -3 0
BITMAP
8300
AD80
88C0
1840
1840
1840
0840
0880
1DC0
ENDCHAR
STARTCHAR 1F6C
ENCODING 8044
SWIDTH 525 0
DWIDTH 7 0
BBX 10 9 -3 0
BITMAP
0300
7D80
88C0
1840
1840
1840
0840
0880
1DC0
ENDCHAR
STARTCHAR 1F6D
ENCODING 8045
SWIDTH 525 0
DWIDTH 7 0
BBX 10 9 -3 0
BITMAP
4300
FD80
48C0
1840
1840
1840
0840
0880
1DC0
ENDCHAR
STARTCHAR 1F6E
ENCODING 8046
SWIDTH 525 0
DWIDTH 7 0
BBX 9 11 -2 0
BITMAP
9000
7000
4600
5B00
5180
3080
3080
3080
1080
1100
3B80
ENDCHAR
STARTCHAR 1F6F
ENCODING 8047
SWIDTH 525 0
DWIDTH 7 0
BBX 9 11 -2 0
BITMAP
9000
7000
4600
5B00
1180
3080
3080
3080
1080
1100
3B80
ENDCHAR
STARTCHAR 1F70
ENCODING 8048
SWIDTH 525 0
DWIDTH 7 0
BBX 6 9 1 0
BITMAP
20
00
64
D8
88
88
88
98
F4
ENDCHAR
STARTCHAR 1F71
ENCODING 8049
SWIDTH 525 0
DWIDTH 7 0
BBX 6 9 1 0
BITMAP
30
00
64
D8
88
88
88
98
F4
ENDCHAR
STARTCHAR 1F72
ENCODING 8050
SWIDTH 525 0
DWIDTH 7 0
BBX 5 9 1 0
BITMAP
20
00
38
C0
80
70
80
80
F8
ENDCHAR
STARTCHAR 1F73
ENCODING 8051
SWIDTH 525 0
DWIDTH 7 0
BBX 5 9 1 0
BITMAP
10
00
38
C0
80
70
80
80
F8
ENDCHAR
STARTCHAR 1F74
ENCODING 8052
SWIDTH 525 0
DWIDTH 7 0
BBX 5 12 1 -3
BITMAP
20
00
B0
C8
88
88
88
88
88
08
08
08
ENDCHAR
STARTCHAR 1F75
ENCODING 8053
SWIDTH 525 0
DWIDTH 7 0
BBX 5 12 1 -3
BITMAP
30
00
B0
C8
88
88
88
88
88
08
08
08
ENDCHAR
STARTCHAR 1F76
ENCODING 8054
SWIDTH 525 0
DWIDTH 7 0
BBX 5 9 1 0
BITMAP
20
00
E0
20
20
20
20
20
18
ENDCHAR
STARTCHAR 1F77
ENCODING 8055
SWIDTH 525 0
DWIDTH 7 0
BBX 5 9 1 0
BITMAP
10
00
E0
20
20
20
20
20
18
ENDCHAR
STARTCHAR 1F78
ENCODING 8056
SWIDTH 525 0
DWIDTH 7 0
BBX 6 9 1 0
BITMAP
20
00
30
C8
8C
84
84
88
78
ENDCHAR
STARTCHAR 1F79
ENCODING 8057
SWIDTH 525 0
DWIDTH 7 0
BBX 6 9 1 0
BITMAP
30
00
30
C8
8C
84
84
88
78
ENDCHAR
STARTCHAR 1F7A
ENCODING 8058
SWIDTH 525 0
DWIDTH 7 0
BBX 5 10 1 0
BITMAP
40
20
00
88
88
88
88
88
88
70
ENDCHAR
STARTCHAR 1F7B
ENCODING 8059
SWIDTH 525 0
DWIDTH 7 0
BBX 5 9 1 0
BITMAP
30
00
88
88
88
88
88
88
70
ENDCHAR
STARTCHAR 1F7C
ENCODING 8060
SWIDTH 525 0
DWIDTH 7 0
BBX 7 9 0 0
BITMAP
10
00
44
42
92
92
92
D2
6C
ENDCHAR
STARTCHAR 1F7D
ENCODING 8061
SWIDTH 525 0
DWIDTH 7 0
BBX 7 9 0 0
BITMAP
18
00
44
42
92
92
92
D2
6C
ENDCHAR
STARTCHAR 1F80
ENCODING 8064
SWIDTH 525 0
DWIDTH 7 0
BBX 6 11 1 -3
BITMAP
20
20
64
D8
88
88
88
98
F4
00
20
ENDCHAR
STARTCHAR 1F81
ENCODING 8065
SWIDTH 525 0
DWIDTH 7 0
BBX 6 11 1 -3
BITMAP
20
20
64
D8
88
88
88
98
F4
00
20
ENDCHAR
STARTCHAR 1F82
ENCODING 8066
SWIDTH 525 0
DWIDTH 7 0
BBX 6 11 1 -3
BITMAP
50
40
64
D8
88
88
88
98
F4
00
20
ENDCHAR
STARTCHAR 1F83
ENCODING 8067
SWIDTH 525 0
DWIDTH 7 0
BBX 6 11 1 -3
BITMAP
50
40
64
D8
88
88
88
98
F4
00
20
ENDCHAR
STARTCHAR 1F84
ENCODING 8068
SWIDTH 525 0
DWIDTH 7 0
BBX 6 11 1 -3
BITMAP
50
40
64
D8
88
88
88
98
F4
00
20
ENDCHAR
STARTCHAR 1F85
ENCODING 8069
SWIDTH 525 0
DWIDTH 7 0
BBX 6 11 1 -3
BITMAP
50
40
64
D8
88
88
88
98
F4
00
20
ENDCHAR
STARTCHAR 1F86
ENCODING 8070
SWIDTH 525 0
DWIDTH 7 0
BBX 6 13 1 -3
BITMAP
F8
00
20
20
64
D8
88
88
88
98
F4
00
20
ENDCHAR
STARTCHAR 1F87
ENCODING 8071
SWIDTH 525 0
DWIDTH 7 0
BBX 6 13 1 -3
BITMAP
F8
00
20
20
64
D8
88
88
88
98
F4
00
20
ENDCHAR
STARTCHAR 1F88
ENCODING 8072
SWIDTH 525 0
DWIDTH 7 0
BBX 7 12 0 -3
BITMAP
50
58
A8
28
24
44
7C
42
82
00
10
08
ENDCHAR
STARTCHAR 1F89
ENCODING 8073
SWIDTH 525 0
DWIDTH 7 0
BBX 7 12 0 -3
BITMAP
10
98
68
28
24
44
7C
42
82
00
10
08
ENDCHAR
STARTCHAR 1F8A
ENCODING 8074
SWIDTH 525 0
DWIDTH 7 0
BBX 9 12 -2 -3
BITMAP
8400
F600
8A00
0A00
0900
1100
1F00
1080
2080
0000
0400
0200
ENDCHAR
STARTCHAR 1F8B
ENCODING 8075
SWIDTH 525 0
DWIDTH 7 0
BBX 9 12 -2 -3
BITMAP
8400
B600
0A00
0A00
0900
1100
1F00
1080
2080
0000
0400
0200
ENDCHAR
STARTCHAR 1F8C
ENCODING 8076
SWIDTH 525 0
DWIDTH 7 0
BBX 8 12 -1 -3
BITMAP
88
AC
14
14
12
22
3E
21
41
00
08
04
ENDCHAR
STARTCHAR 1F8D
ENCODING 8077
SWIDTH 525 0
DWIDTH 7 0
BBX 9 12 -2 -3
BITMAP
4400
D600
4A00
0A00
0900
1100
1F00
1080
2080
0000
0400
0200
ENDCHAR
STARTCHAR 1F8E
ENCODING 8078
SWIDTH 525 0
DWIDTH 7 0
BBX 8 14 -1 -3
BITMAP
40
B0
08
2C
54
14
12
22
3E
21
41
00
08
04
ENDCHAR
STARTCHAR 1F8F
ENCODING 8079
SWIDTH 525 0
DWIDTH 7 0
BBX 8 14 -1 -3
BITMAP
C0
30
08
4C
34
14
12
22
3E
21
41
00
08
04
ENDCHAR
STARTCHAR 1F90
ENCODING 8080
SWIDTH 525 0
DWIDTH 7 0
BBX 5 12 1 -3
BITMAP
20
20
B0
C8
88
88
88
88
88
08
88
48
ENDCHAR
STARTCHAR 1F91
ENCODING 8081
SWIDTH 525 0
DWIDTH 7 0
BBX 5 12 1 -3
BITMAP
20
20
B0
C8
88
88
88
88
88
08
88
48
ENDCHAR
STARTCHAR 1F92
ENCODING 8082
SWIDTH 525 0
DWIDTH 7 0
BBX 5 12 1 -3
BITMAP
50
40
B0
C8
88
88
88
88
88
08
88
48
ENDCHAR
STARTCHAR 1F93
ENCODING 8083
SWIDTH 525 0
DWIDTH 7 0
BBX 5 12 1 -3
BITMAP
50
40
B0
C8
88
88
88
88
88
08
88
48
ENDCHAR
STARTCHAR 1F94
ENCODING 8084
SWIDTH 525 0
DWIDTH 7 0
BBX 5 12 1 -3
BITMAP
50
40
B0
C8
88
88
88
88
88
08
88
48
ENDCHAR
STARTCHAR 1F95
ENCODING 8085
SWIDTH 525 0
DWIDTH 7 0
BBX 5 12 1 -3
BITMAP
50
40
B0
C8
88
88
88
88
88
08
88
48
ENDCHAR
STARTCHAR 1F96
ENCODING 8086
SWIDTH 525 0
DWIDTH 7 0
BBX 5 14 1 -3
BITMAP
F8
00
20
20
B0
C8
88
88
88
88
88
08
88
48
ENDCHAR
STARTCHAR 1F97
ENCODING 8087
SWIDTH 525 0
DWIDTH 7 0
BBX 5 14 1 -3
BITMAP
F8
00
20
20
B0
C8
88
88
88
88
88
08
88
48
ENDCHAR
STARTCHAR 1F98
ENCODING 8088
SWIDTH 525 0
DWIDTH 7 0
BBX 8 12 -1 -3
BITMAP
A3
A3
23
23
3F
23
23
23
23
00
08
04
ENDCHAR
STARTCHAR 1F99
ENCODING 8089
SWIDTH 525 0
DWIDTH 7 0
BBX 8 12 -1 -3
BITMAP
A3
A3
A3
23
3F
23
23
23
23
00
08
04
ENDCHAR
STARTCHAR 1F9A
ENCODING 8090
SWIDTH 525 0
DWIDTH 7 0
BBX 10 12 -3 -3
BITMAP
88C0
A8C0
08C0
08C0
0FC0
08C0
08C0
08C0
08C0
0000
0200
0100
ENDCHAR
STARTCHAR 1F9B
ENCODING 8091
SWIDTH 525 0
DWIDTH 7 0
BBX 10 12 -3 -3
BITMAP
88C0
A8C0
88C0
08C0
0FC0
08C0
08C0
08C0
08C0
0000
0200
0100
ENDCHAR
STARTCHAR 1F9C
ENCODING 8092
SWIDTH 525 0
DWIDTH 7 0
BBX 10 12 -3 -3
BITMAP
88C0
A8C0
08C0
08C0
0FC0
08C0
08C0
08C0
08C0
0000
0200
0100
ENDCHAR
STARTCHAR 1F9D
ENCODING 8093
SWIDTH 525 0
DWIDTH 7 0
BBX 10 12 -3 -3
BITMAP
88C0
A8C0
88C0
08C0
0FC0
08C0
08C0
08C0
08C0
0000
0200
0100
ENDCHAR
STARTCHAR 1F9E
ENCODING 8094
SWIDTH 525 0
DWIDTH 7 0
BBX 10 14 -3 -3
BITMAP
4000
B000
28C0
28C0
28C0
08C0
0FC0
08C0
08C0
08C0
08C0
0000
0200
0100
ENDCHAR
STARTCHAR 1F9F
ENCODING 8095
SWIDTH 525 0
DWIDTH 7 0
BBX 10 14 -3 -3
BITMAP
4000
B000
28C0
28C0
28C0
08C0
0FC0
08C0
08C0
08C0
08C0
0000
0200
0100
ENDCHAR
STARTCHAR 1FA0
ENCODING 8096
SWIDTH 525 0
DWIDTH 7 0
BBX 7 12 0 -3
BITMAP
10
10
44
42
92
92
92
D2
6C
00
10
08
ENDCHAR
STARTCHAR 1FA1
ENCODING 8097
SWIDTH 525 0
DWIDTH 7 0
BBX 7 12 0 -3
BITMAP
10
10
44
42
92
92
92
D2
6C
00
10
08
ENDCHAR
STARTCHAR 1FA2
ENCODING 8098
SWIDTH 525 0
DWIDTH 7 0
BBX 7 12 0 -3
BITMAP
28
20
44
42
92
92
92
D2
6C
00
10
08
ENDCHAR
STARTCHAR 1FA3
ENCODING 8099
SWIDTH 525 0
DWIDTH 7 0
BBX 7 12 0 -3
BITMAP
28
20
44
42
92
92
92
D2
6C
00
10
08
ENDCHAR
STARTCHAR 1FA4
ENCODING 8100
SWIDTH 525 0
DWIDTH 7 0
BBX 7 12 0 -3
BITMAP
28
20
44
42
92
92
92
D2
6C
00
10
08
ENDCHAR
STARTCHAR 1FA5
ENCODING 8101
SWIDTH 525 0
DWIDTH 7 0
BBX 7 12 0 -3
BITMAP
28
20
44
42
92
92
92
D2
6C
00
10
08
ENDCHAR
STARTCHAR 1FA6
ENCODING 8102
SWIDTH 525 0
DWIDTH 7 0
BBX 7 14 0 -3
BITMAP
7C
00
10
10
44
42
92
92
92
D2
6C
00
10
08
ENDCHAR
STARTCHAR 1FA7
ENCODING 8103
SWIDTH 525 0
DWIDTH 7 0
BBX 7 14 0 -3
BITMAP
7C
00
10
10
44
42
92
92
92
D2
6C
00
10
08
ENDCHAR
STARTCHAR 1FA8
ENCODING 8104
SWIDTH 525 0
DWIDTH 7 0
BBX 8 12 -1 -3
BITMAP
8C
B6
A3
61
61
61
21
22
77
00
08
04
ENDCHAR
STARTCHAR 1FA9
ENCODING 8105
SWIDTH 525 0
DWIDTH 7 0
BBX 8 12 -1 -3
BITMAP
8C
B6
23
61
61
61
21
22
77
00
08
04
ENDCHAR
STARTCHAR 1FAA
ENCODING 8106
SWIDTH 525 0
DWIDTH 7 0
BBX 10 12 -3 -3
BITMAP
8300
AD80
08C0
1840
1840
1840
0840
0880
1DC0
0000
0200
0100
ENDCHAR
STARTCHAR 1FAB
ENCODING 8107
SWIDTH 525 0
DWIDTH 7 0
BBX 10 12 -3 -3
BITMAP
8300
AD80
88C0
1840
1840
1840
0840
0880
1DC0
0000
0200
0100
ENDCHAR
STARTCHAR 1FAC
ENCODING 8108
SWIDTH 525 0
DWIDTH 7 0
BBX 10 12 -3 -3
BITMAP
0300
7D80
88C0
1840
1840
1840
0840
0880
1DC0
0000
0200
0100
ENDCHAR
STARTCHAR 1FAD
ENCODING 8109
SWIDTH 525 0
DWIDTH 7 0
BBX 10 12 -3 -3
BITMAP
4300
FD80
48C0
1840
1840
1840
0840
0880
1DC0
0000
0200
0100
ENDCHAR
STARTCHAR 1FAE
ENCODING 8110
SWIDTH 525 0
DWIDTH 7 0
BBX 9 14 -2 -3
BITMAP
9000
7000
4600
5B00
5180
3080
3080
3080
1080
1100
3B80
0000
0400
0200
ENDCHAR
STARTCHAR 1FAF
ENCODING 8111
SWIDTH 525 0
DWIDTH 7 0
BBX 9 14 -2 -3
BITMAP
9000
7000
4600
5B00
1180
3080
3080
3080
1080
1100
3B80
0000
0400
0200
ENDCHAR
STARTCHAR 1FB0
ENCODING 8112
SWIDTH 525 0
DWIDTH 7 0
BBX 6 9 1 0
BITMAP
50
20
64
D8
88
88
88
98
F4
ENDCHAR
STARTCHAR 1FB1
ENCODING 8113
SWIDTH 525 0
DWIDTH 7 0
BBX 6 9 1 0
BITMAP
70
00
64
D8
88
88
88
98
F4
ENDCHAR
STARTCHAR 1FB2
ENCODING 8114
SWIDTH 525 0
DWIDTH 7 0
BBX 6 11 1 -3
BITMAP
20
00
64
D8
88
88
88
98
F4
00
20
ENDCHAR
STARTCHAR 1FB3
ENCODING 8115
SWIDTH 525 0
DWIDTH 7 0
BBX 6 9 1 -3
BITMAP
64
D8
88
88
88
98
F4
00
20
ENDCHAR
STARTCHAR 1FB4
ENCODING 8116
SWIDTH 525 0
DWIDTH 7 0
BBX 6 11 1 -3
BITMAP
20
00
64
D8
88
88
88
98
F4
00
20
ENDCHAR
STARTCHAR 1FB6
ENCODING 8118
SWIDTH 525 0
DWIDTH 7 0
BBX 6 9 1 0
BITMAP
68
10
64
D8
88
88
88
98
F4
ENDCHAR
STARTCHAR 1FB7
ENCODING 8119
SWIDTH 525 0
DWIDTH 7 0
BBX 6 11 1 -3
BITMAP
68
10
64
D8
88
88
88
98
F4
00
20
ENDCHAR
STARTCHAR 1FB8
ENCODING 8120
SWIDTH 525 0
DWIDTH 7 0
BBX 7 11 0 0
BITMAP
28
18
10
18
28
28
24
44
7C
42
82
ENDCHAR
STARTCHAR 1FB9
ENCODING 8121
SWIDTH 525 0
DWIDTH 7 0
BBX 7 11 0 0
BITMAP
3C
00
10
18
28
28
24
44
7C
42
82
ENDCHAR
STARTCHAR 1FBA
ENCODING 8122
SWIDTH 525 0
DWIDTH 7 0
BBX 7 9 0 0
BITMAP
10
98
28
28
24
44
7C
42
82
ENDCHAR
STARTCHAR 1FBB
ENCODING 8123
SWIDTH 525 0
DWIDTH 7 0
BBX 7 9 0 0
BITMAP
10
D8
28
28
24
44
7C
42
82
ENDCHAR
STARTCHAR 1FBC
ENCODING 8124
SWIDTH 525 0
DWIDTH 7 0
BBX 7 12 0 -3
BITMAP
10
18
28
28
24
44
7C
42
82
00
10
08
ENDCHAR
STARTCHAR 1FBD
ENCODING 8125
SWIDTH 525 0
DWIDTH 7 0
BBX 1 2 3 7
BITMAP
80
80
ENDCHAR
STARTCHAR 1FBE
ENCODING 8126
SWIDTH 525 0
DWIDTH 7 0
BBX 1 1 3 -3
BITMAP
80
ENDCHAR
STARTCHAR 1FBF
ENCODING 8127
SWIDTH 525 0
DWIDTH 7 0
BBX 1 2 3 7
BITMAP
80
80
ENDCHAR
STARTCHAR 1FC0
ENCODING 8128
SWIDTH 525 0
DWIDTH 7 0
BBX 4 2 2 7
BITMAP
D0
20
ENDCHAR
STARTCHAR 1FC1
ENCODING 8129
SWIDTH 525 0
DWIDTH 7 0
BBX 4 4 2 7
BITMAP
D0
20
90
90
ENDCHAR
STARTCHAR 1FC2
ENCODING 8130
SWIDTH 525 0
DWIDTH 7 0
BBX 5 12 1 -3
BITMAP
20
00
B0
C8
88
88
88
88
88
08
88
48
ENDCHAR
STARTCHAR 1FC3
ENCODING 8131
SWIDTH 525 0
DWIDTH 7 0
BBX 5 10 1 -3
BITMAP
B0
C8
88
88
88
88
88
08
88
48
ENDCHAR
STARTCHAR 1FC4
ENCODING 8132
SWIDTH 525 0
DWIDTH 7 0
BBX 5 12 1 -3
BITMAP
20
00
B0
C8
88
88
88
88
88
08
88
48
ENDCHAR
STARTCHAR 1FC6
ENCODING 8134
SWIDTH 525 0
DWIDTH 7 0
BBX 5 12 1 -3
BITMAP
68
10
B0
C8
88
88
88
88
88
08
08
08
ENDCHAR
STARTCHAR 1FC7
ENCODING 8135
SWIDTH 525 0
DWIDTH 7 0
BBX 5 12 1 -3
BITMAP
68
10
B0
C8
88
88
88
88
88
08
88
48
ENDCHAR
STARTCHAR 1FC8
ENCODING 8136
SWIDTH 525 0
DWIDTH 7 0
BBX 7 9 -1 0
BITMAP
3E
E0
20
20
3E
20
20
20
3E
ENDCHAR
STARTCHAR 1FC9
ENCODING 8137
SWIDTH 525 0
DWIDTH 7 0
BBX 7 9 -1 0
BITMAP
3E
A0
20
20
3E
20
20
20
3E
ENDCHAR
STARTCHAR 1FCA
ENCODING 8138
SWIDTH 525 0
DWIDTH 7 0
BBX 8 9 -1 0
BITMAP
23
A3
23
23
3F
23
23
23
23
ENDCHAR
STARTCHAR 1FCB
ENCODING 8139
SWIDTH 525 0
DWIDTH 7 0
BBX 9 9 -2 0
BITMAP
1180
D180
1180
1180
1F80
1180
1180
1180
1180
ENDCHAR
STARTCHAR 1FCC
ENCODING 8140
SWIDTH 525 0
DWIDTH 7 0
BBX 6 12 1 -3
BITMAP
8C
8C
8C
8C
FC
8C
8C
8C
8C
00
20
10
ENDCHAR
STARTCHAR 1FCD
ENCODING 8141
SWIDTH 525 0
DWIDTH 7 0
BBX 3 2 2 7
BITMAP
A0
80
ENDCHAR
STARTCHAR 1FCE
ENCODING 8142
SWIDTH 525 0
DWIDTH 7 0
BBX 3 2 2 7
BITMAP
A0
80
ENDCHAR
STARTCHAR 1FCF
ENCODING 8143
SWIDTH 525 0
DWIDTH 7 0
BBX 5 4 1 7
BITMAP
F8
00
20
20
ENDCHAR
STARTCHAR 1FD0
ENCODING 8144
SWIDTH 525 0
DWIDTH 7 0
BBX 5 9 1 0
BITMAP
50
20
E0
20
20
20
20
20
18
ENDCHAR
STARTCHAR 1FD1
ENCODING 8145
SWIDTH 525 0
DWIDTH 7 0
BBX 5 9 1 0
BITMAP
70
00
E0
20
20
20
20
20
18
ENDCHAR
STARTCHAR 1FD2
ENCODING 8146
SWIDTH 525 0
DWIDTH 7 0
BBX 5 9 1 0
BITMAP
A8
88
E0
20
20
20
20
20
18
ENDCHAR
STARTCHAR 1FD3
ENCODING 8147
SWIDTH 525 0
DWIDTH 7 0
BBX 5 9 1 0
BITMAP
A8
00
E0
20
20
20
20
20
18
ENDCHAR
STARTCHAR 1FD6
ENCODING 8150
SWIDTH 525 0
DWIDTH 7 0
BBX 5 9 1 0
BITMAP
68
10
E0
20
20
20
20
20
18
ENDCHAR
STARTCHAR 1FD7
ENCODING 8151
SWIDTH 525 0
DWIDTH 7 0
BBX 5 11 1 0
BITMAP
68
10
48
48
E0
20
20
20
20
20
18
ENDCHAR
STARTCHAR 1FD8
ENCODING 8152
SWIDTH 525 0
DWIDTH 7 0
BBX 5 11 1 0
BITMAP
50
30
F8
20
20
20
20
20
20
20
F8
ENDCHAR
STARTCHAR 1FD9
ENCODING 8153
SWIDTH 525 0
DWIDTH 7 0
BBX 5 11 1 0
BITMAP
78
00
F8
20
20
20
20
20
20
20
F8
ENDCHAR
STARTCHAR 1FDA
ENCODING 8154
SWIDTH 525 0
DWIDTH 7 0
BBX 7 9 -1 0
BITMAP
3E
C8
08
08
08
08
08
08
3E
ENDCHAR
ENDFONT
